{"glyphs":{"0":{"ha":885,"x_min":58,"x_max":825,"o":"m 436 -31 q 159 99 260 -31 q 58 457 58 229 q 163 823 58 689 q 450 957 268 957 q 724 828 624 957 q 825 481 825 700 q 721 106 825 243 q 436 -31 617 -31 m 447 854 q 182 472 192 854 q 182 451 182 472 q 249 170 182 269 q 438 71 315 71 q 633 179 563 71 q 704 478 704 288 q 638 757 704 660 q 447 854 571 854 z "},"1":{"ha":885,"x_min":169,"x_max":733,"o":"m 393 321 l 389 724 q 374 818 388 794 q 322 842 361 842 q 282 838 308 842 q 242 835 256 835 q 188 883 188 835 q 239 932 188 932 q 291 928 256 932 q 346 925 326 925 q 419 928 390 925 q 472 932 463 932 q 510 914 503 932 q 515 871 515 901 q 514 838 515 867 q 507 568 507 689 l 507 411 q 508 296 507 368 q 511 181 511 208 q 575 85 513 85 q 621 88 590 85 q 667 92 651 92 q 733 43 733 92 q 672 -6 733 -6 q 628 -3 649 -6 q 450 13 511 13 q 300 0 389 13 q 229 -7 250 -7 q 169 43 169 -7 q 238 92 169 92 q 281 88 258 92 q 322 85 314 85 q 382 123 371 85 q 393 321 393 161 z "},"2":{"ha":885,"x_min":64,"x_max":821,"o":"m 209 253 q 193 235 209 253 q 171 165 178 217 q 322 232 233 232 q 494 160 404 232 q 649 81 594 81 q 712 106 688 81 q 736 172 736 132 q 731 203 736 186 q 681 181 708 181 q 621 239 621 181 q 644 292 621 271 q 707 313 668 313 q 790 276 758 313 q 821 178 821 239 q 767 31 821 92 q 635 -31 713 -31 q 458 49 561 -31 q 276 128 354 128 q 179 69 199 128 q 196 72 193 72 q 236 32 236 72 q 167 -31 236 -31 q 92 9 121 -31 q 64 115 64 49 q 399 465 64 358 l 499 497 q 667 679 667 551 q 606 815 667 765 q 440 865 546 865 q 286 828 347 865 q 214 725 225 790 q 289 660 289 719 q 263 598 289 624 q 197 572 236 572 q 122 605 150 572 q 93 690 93 638 q 196 881 93 804 q 450 957 299 957 q 691 880 597 957 q 785 681 785 803 q 740 533 785 597 q 614 438 694 469 q 447 379 589 428 q 285 313 346 344 q 209 253 240 289 z "},"3":{"ha":885,"x_min":68,"x_max":817,"o":"m 347 540 l 636 824 l 314 824 q 242 817 260 824 q 207 763 207 806 q 210 722 207 749 q 213 682 213 696 q 164 610 213 610 q 117 669 117 610 q 119 720 117 686 q 121 771 121 754 q 119 829 121 810 q 118 872 118 849 q 132 919 118 910 q 201 928 146 928 l 543 928 q 638 931 571 928 q 715 932 671 932 q 797 882 797 932 q 763 817 797 850 l 507 571 q 529 572 515 571 q 547 572 542 572 q 741 497 665 572 q 817 303 817 421 q 709 63 817 156 q 432 -31 601 -31 q 172 45 276 -31 q 68 235 68 121 q 106 345 68 300 q 199 390 143 390 q 258 369 235 390 q 281 313 281 347 q 199 243 281 243 l 183 243 l 183 233 q 259 115 183 165 q 438 65 335 65 q 626 131 553 65 q 700 300 700 197 q 494 481 700 481 q 382 468 440 481 q 358 465 369 465 q 325 501 325 465 q 347 540 325 518 z "},"4":{"ha":885,"x_min":21,"x_max":839,"o":"m 629 858 l 629 379 l 793 379 q 839 332 839 379 q 790 285 839 285 l 629 285 l 629 200 q 692 85 629 85 q 738 88 708 85 q 767 90 767 90 q 825 43 825 90 q 775 -6 825 -6 q 693 3 744 -6 q 586 10 650 10 q 469 1 547 10 q 353 -7 392 -7 q 300 40 300 -7 q 364 90 300 90 q 405 88 378 90 q 446 85 432 85 q 515 200 515 85 l 515 285 l 85 285 q 21 340 21 285 q 36 385 21 363 l 404 842 q 490 935 463 914 q 554 957 518 957 q 629 858 629 957 m 156 379 l 515 379 l 525 833 l 156 379 z "},"5":{"ha":885,"x_min":86,"x_max":817,"o":"m 258 774 l 242 551 q 481 626 350 626 q 726 544 636 626 q 817 318 817 461 q 709 66 817 163 q 428 -31 601 -31 q 185 40 285 -31 q 86 211 86 110 q 118 295 86 261 q 196 329 150 329 q 255 308 232 329 q 278 253 278 288 q 262 212 278 229 q 224 194 246 194 q 207 185 207 193 q 280 102 207 139 q 443 65 353 65 q 626 134 554 65 q 697 310 697 203 q 637 472 697 413 q 471 531 576 531 q 265 456 342 531 q 222 417 235 426 q 190 406 210 408 l 185 406 q 131 467 131 406 q 132 472 131 469 l 151 740 q 154 817 153 763 q 165 910 156 893 q 217 928 175 928 q 242 926 233 928 l 310 928 q 390 928 310 928 l 561 928 q 622 929 601 928 q 679 932 664 932 q 735 850 735 932 l 733 840 q 744 756 733 804 q 750 725 750 739 q 703 681 750 681 q 656 746 658 681 q 588 824 653 824 l 297 824 q 258 774 263 824 z "},"6":{"ha":885,"x_min":68,"x_max":817,"o":"m 475 865 q 272 760 350 865 q 185 475 194 656 q 474 626 272 626 q 721 538 625 626 q 817 310 817 449 q 714 65 817 161 q 450 -31 611 -31 q 170 88 272 -31 q 68 410 68 206 q 181 809 68 661 q 483 957 293 957 q 682 899 600 957 q 764 757 764 840 q 737 690 764 718 q 674 663 710 663 q 623 684 644 663 q 601 736 601 706 q 640 792 601 778 q 475 865 599 865 m 454 532 q 276 470 342 532 q 211 303 211 408 q 277 130 211 194 q 453 65 343 65 q 627 132 560 65 q 694 304 694 199 q 628 469 694 407 q 454 532 563 532 z "},"7":{"ha":885,"x_min":106,"x_max":815,"o":"m 193 874 l 190 858 q 253 933 225 914 q 328 953 281 953 q 488 882 396 953 q 646 803 590 803 q 718 842 704 803 l 707 842 q 672 858 688 842 q 656 896 656 875 q 676 941 656 922 q 724 960 696 960 q 815 836 815 960 q 769 675 815 744 q 707 600 740 632 q 646 544 692 585 q 517 393 551 463 q 467 154 467 294 q 468 124 467 157 q 471 64 471 57 q 401 -24 471 -24 q 329 90 329 -24 q 396 403 329 269 q 626 656 450 511 q 708 754 699 715 q 589 714 661 714 q 415 778 500 714 l 358 821 q 290 843 328 843 q 201 729 201 843 q 207 667 201 694 q 217 594 217 618 q 201 554 217 571 q 161 538 185 538 q 106 597 106 538 q 113 669 106 621 q 121 744 121 718 q 115 828 121 783 q 110 906 110 872 q 158 963 110 963 q 199 914 199 963 q 193 874 199 904 z "},"8":{"ha":885,"x_min":71,"x_max":814,"o":"m 168 474 q 265 524 204 501 q 161 606 189 567 q 133 708 133 646 q 223 885 133 814 q 443 957 313 957 q 663 885 574 957 q 753 708 753 814 q 724 606 753 646 q 621 524 696 567 q 717 474 679 501 q 814 269 814 400 q 713 53 814 136 q 447 -31 611 -31 q 174 51 276 -31 q 71 269 71 133 q 168 474 71 399 m 443 858 q 306 816 360 858 q 253 708 253 774 q 306 613 253 650 q 443 576 358 576 q 580 613 528 576 q 632 710 632 650 q 578 817 632 775 q 443 858 525 858 m 449 471 q 262 417 329 471 q 194 271 194 364 q 263 124 194 181 q 443 68 332 68 q 623 124 554 68 q 692 271 692 181 q 625 416 692 361 q 449 471 558 471 z "},"9":{"ha":885,"x_min":83,"x_max":803,"o":"m 397 60 q 604 163 528 60 q 685 447 681 267 q 408 306 607 306 q 174 392 264 306 q 83 618 83 479 q 183 860 83 764 q 433 957 282 957 q 704 835 606 957 q 803 501 803 714 q 693 111 803 253 q 390 -31 583 -31 q 183 28 268 -31 q 97 171 97 86 q 123 238 97 211 q 186 265 149 265 q 239 245 217 265 q 261 197 261 225 q 221 138 261 157 q 397 60 264 60 m 436 858 q 267 793 332 858 q 203 624 203 728 q 264 463 203 522 q 428 403 325 403 q 598 463 536 403 q 660 625 660 522 q 598 794 660 731 q 436 858 536 858 z "}," ":{"ha":347,"x_min":0,"x_max":0,"o":""},"\u0000":{"ha":0,"x_min":0,"x_max":0,"o":""},"\b":{"ha":0,"x_min":0,"x_max":0,"o":""},"\t":{"ha":347,"x_min":0,"x_max":0,"o":""},"\r":{"ha":347,"x_min":0,"x_max":0,"o":""},"\u001d":{"ha":0,"x_min":0,"x_max":0,"o":""},"!":{"ha":582,"x_min":204,"x_max":378,"o":"m 290 -24 q 229 2 254 -24 q 204 64 204 28 q 229 126 204 100 q 290 151 254 151 q 352 126 326 151 q 378 64 378 100 q 352 2 378 28 q 290 -24 326 -24 m 242 574 l 239 726 q 236 856 239 783 q 235 882 235 867 q 293 957 235 957 q 353 876 353 957 q 351 849 353 861 q 347 726 350 842 l 343 576 l 343 315 q 342 256 343 267 q 313 213 336 217 q 292 211 304 211 q 242 281 242 211 l 242 574 z "},"\"":{"ha":457,"x_min":74,"x_max":383,"o":"m 186 926 l 167 554 l 92 554 l 74 926 l 186 926 m 383 926 l 365 554 l 290 554 l 272 926 l 383 926 z "},"#":{"ha":833,"x_min":44,"x_max":801,"o":"m 608 381 l 761 381 l 746 288 l 594 288 l 550 0 l 446 0 l 490 288 l 303 288 l 258 0 l 156 0 l 200 288 l 44 288 l 58 381 l 214 381 l 242 564 l 88 564 l 101 657 l 256 657 l 297 926 l 401 926 l 360 657 l 546 657 l 588 926 l 692 926 l 651 657 l 801 657 l 788 564 l 636 564 l 608 381 m 504 381 l 532 564 l 346 564 l 318 381 l 504 381 z "},"$":{"ha":885,"x_min":88,"x_max":797,"o":"m 650 750 q 492 840 621 839 l 492 529 q 526 521 503 526 q 676 475 635 496 q 754 407 718 454 q 797 272 797 350 q 757 135 797 199 q 650 42 717 72 q 492 -6 589 13 l 492 -124 q 453 -160 492 -160 q 414 -124 414 -160 l 414 -6 q 240 31 311 1 q 128 117 169 61 q 88 239 88 172 q 115 331 88 296 q 189 365 143 365 q 240 345 219 365 q 261 294 261 325 q 189 231 261 235 q 256 126 196 165 q 414 86 317 88 l 414 436 l 393 442 q 240 490 281 472 q 163 553 190 513 q 131 669 131 599 q 171 804 131 742 q 275 894 211 867 q 414 932 329 918 l 414 1043 q 453 1085 414 1085 q 492 1043 492 1085 l 492 932 q 690 863 617 918 q 764 726 764 807 q 742 666 764 690 q 686 642 719 642 q 639 660 658 642 q 619 703 619 678 q 650 750 619 731 m 414 546 l 414 840 q 287 796 336 838 q 238 690 238 754 q 271 605 238 635 q 389 553 304 575 q 414 546 396 551 m 492 419 l 492 86 q 633 136 576 88 q 689 258 689 185 q 649 363 689 326 q 515 415 608 399 q 492 419 510 417 z "},"%":{"ha":1113,"x_min":49,"x_max":1064,"o":"m 281 21 l 661 754 q 583 728 619 728 q 483 776 518 728 q 494 675 494 726 q 434 468 494 544 q 269 392 374 392 q 109 468 169 392 q 49 671 49 544 q 110 880 49 803 q 278 957 172 957 q 367 941 333 957 q 454 874 400 925 q 586 807 524 807 q 754 933 683 807 q 814 974 776 974 q 853 953 853 974 q 850 939 853 950 l 838 915 l 363 4 q 338 -35 347 -26 q 297 -49 324 -49 q 261 -25 261 -49 q 269 0 261 -15 l 281 21 m 613 239 q 675 455 613 375 q 844 535 738 535 q 1006 461 947 535 q 1064 256 1064 388 q 1002 49 1064 128 q 842 -31 940 -31 q 674 42 735 -31 q 613 239 613 114 m 401 672 q 276 878 401 878 q 142 669 142 878 q 176 523 142 575 q 274 471 211 471 q 401 672 401 471 m 971 253 q 846 456 971 456 q 743 399 781 456 q 706 244 706 343 q 741 101 706 153 q 839 49 776 49 q 935 103 900 49 q 971 253 971 157 z "},"&":{"ha":1138,"x_min":51,"x_max":1126,"o":"m 638 790 q 438 533 638 636 l 453 508 q 586 310 490 446 l 601 290 l 610 314 l 664 457 q 940 713 761 713 q 1075 665 1024 713 q 1126 539 1126 617 q 1078 415 1126 465 q 957 364 1029 364 q 871 390 904 364 q 838 460 838 417 q 896 526 838 526 q 946 481 946 526 q 939 458 946 475 q 961 456 958 456 q 1007 478 988 456 q 1026 532 1026 500 q 1001 597 1026 572 q 931 621 975 621 q 813 542 858 621 q 721 329 775 478 q 667 204 692 249 q 767 115 726 138 q 868 93 807 93 q 905 96 881 93 q 942 99 929 99 q 999 47 999 99 q 940 -1 999 -1 q 918 -1 939 -1 q 879 0 899 0 l 806 0 q 601 113 710 0 q 538 51 564 69 q 339 -8 451 -8 q 132 68 213 -8 q 51 265 51 144 q 188 514 51 428 q 272 563 233 543 l 289 571 q 215 785 215 704 q 273 919 215 868 q 425 971 331 971 q 581 922 524 971 q 638 790 638 874 m 329 790 q 390 617 329 738 q 525 781 525 681 q 498 852 525 825 q 425 879 471 879 q 356 855 382 879 q 329 790 329 831 m 392 389 q 332 486 358 440 q 246 432 279 461 q 169 267 169 367 q 219 141 169 189 q 347 93 268 93 q 538 189 465 93 q 392 389 444 308 z "},"'":{"ha":260,"x_min":74,"x_max":186,"o":"m 186 926 l 167 554 l 92 554 l 74 926 l 186 926 z "},"(":{"ha":632,"x_min":93,"x_max":606,"o":"m 93 344 q 93 371 93 344 q 247 779 93 613 q 440 925 335 874 q 568 968 528 968 q 594 949 594 968 q 558 915 594 933 q 325 729 425 850 q 208 382 208 589 q 350 -64 208 103 q 567 -237 450 -182 q 606 -274 606 -256 q 581 -292 606 -292 q 432 -237 532 -292 q 183 6 271 -150 q 93 344 100 153 z "},")":{"ha":632,"x_min":25,"x_max":539,"o":"m 367 785 q 538 332 529 608 q 539 306 539 324 q 383 -104 539 64 q 190 -249 300 -194 q 63 -292 103 -292 q 36 -272 36 -292 q 72 -239 36 -257 q 307 -53 208 -169 q 424 294 424 86 q 282 740 424 574 q 64 914 182 857 q 25 949 25 932 q 50 968 25 968 q 198 915 99 968 q 367 785 297 861 z "},"*":{"ha":885,"x_min":214,"x_max":671,"o":"m 485 874 l 461 746 q 468 739 461 739 q 489 754 472 739 l 569 829 q 625 854 596 854 q 671 814 671 854 q 617 753 671 774 l 513 714 q 489 697 489 704 q 513 682 489 692 l 617 643 q 671 583 671 622 q 625 542 671 542 q 569 567 596 542 l 489 642 q 468 657 472 657 q 461 650 461 657 l 461 644 l 464 628 l 485 522 q 488 499 488 508 q 442 440 488 440 q 396 499 396 440 q 399 522 396 510 l 421 628 q 424 649 424 642 q 417 657 424 657 q 396 642 413 657 l 315 567 q 258 542 289 542 q 214 582 214 542 q 268 643 214 622 l 371 682 q 394 697 394 692 q 371 714 394 706 l 268 753 q 214 813 214 774 q 260 853 214 853 q 315 829 290 853 l 396 754 q 417 739 413 739 q 424 747 424 739 q 421 768 424 754 l 399 874 q 396 897 396 886 q 442 957 396 957 q 488 897 488 957 q 485 874 488 888 z "},"+":{"ha":694,"x_min":46,"x_max":649,"o":"m 46 415 l 46 510 l 296 510 l 296 747 l 399 747 l 399 510 l 649 510 l 649 415 l 399 415 l 399 178 l 296 178 l 296 415 l 46 415 z "},",":{"ha":379,"x_min":81,"x_max":289,"o":"m 207 -47 q 183 -24 207 -24 l 156 -24 q 102 0 124 -24 q 81 58 81 24 q 108 126 81 99 q 178 153 136 153 q 258 114 228 153 q 289 13 289 75 q 207 -206 289 -93 q 146 -254 171 -254 q 118 -226 118 -254 q 129 -201 118 -217 q 207 -47 207 -99 z "},"-":{"ha":429,"x_min":51,"x_max":379,"o":"m 51 371 q 107 419 51 419 l 324 419 q 379 372 379 419 q 324 322 379 322 l 107 322 q 51 371 51 322 z "},"‐":{"ha":429,"x_min":51,"x_max":379,"o":"m 51 371 q 107 419 51 419 l 324 419 q 379 372 379 419 q 324 322 379 322 l 107 322 q 51 371 51 322 z "},".":{"ha":379,"x_min":103,"x_max":275,"o":"m 189 -24 q 128 2 153 -24 q 103 64 103 28 q 128 126 103 100 q 189 151 153 151 q 250 126 225 151 q 275 64 275 100 q 250 2 275 28 q 189 -24 225 -24 z "},"/":{"ha":556,"x_min":-54,"x_max":508,"o":"m 483 874 l 86 -144 q 49 -247 68 -190 q 11 -282 36 -282 l -33 -282 q -54 -267 -54 -282 q -50 -254 -54 -261 l -36 -219 l -19 -179 l 342 744 q 389 874 357 785 l 408 928 q 449 957 419 957 l 490 957 q 508 942 508 957 q 496 904 508 935 q 483 874 489 888 z "},":":{"ha":379,"x_min":103,"x_max":275,"o":"m 189 -24 q 128 2 153 -24 q 103 64 103 28 q 128 126 103 100 q 189 151 153 151 q 250 126 225 151 q 275 64 275 100 q 250 2 275 28 q 189 -24 225 -24 m 189 446 q 128 472 153 446 q 103 533 103 497 q 128 595 103 569 q 189 621 153 621 q 250 595 225 621 q 275 533 275 569 q 250 472 275 497 q 189 446 225 446 z "},";":{"ha":379,"x_min":81,"x_max":289,"o":"m 207 -47 q 183 -24 207 -24 l 156 -24 q 102 0 124 -24 q 81 58 81 24 q 108 126 81 99 q 178 153 136 153 q 258 114 228 153 q 289 13 289 75 q 207 -206 289 -93 q 146 -254 171 -254 q 118 -226 118 -254 q 129 -201 118 -217 q 207 -47 207 -99 m 175 446 q 114 472 139 446 q 89 533 89 497 q 114 595 89 569 q 175 621 139 621 q 237 595 211 621 q 263 533 263 569 q 237 472 263 497 q 175 446 211 446 z "},"<":{"ha":694,"x_min":46,"x_max":649,"o":"m 46 503 l 649 785 l 649 683 l 156 458 l 647 233 l 649 132 l 46 414 l 46 503 z "},"=":{"ha":694,"x_min":46,"x_max":649,"o":"m 46 536 l 46 626 l 649 626 l 649 536 l 46 536 m 46 324 l 46 414 l 649 414 l 649 324 l 46 324 z "},">":{"ha":694,"x_min":46,"x_max":649,"o":"m 649 414 l 46 132 l 46 235 l 539 458 l 47 683 l 46 785 l 649 503 l 649 414 z "},"?":{"ha":833,"x_min":88,"x_max":783,"o":"m 392 -24 q 330 2 356 -24 q 304 64 304 28 q 330 126 304 100 q 392 151 356 151 q 453 126 428 151 q 478 64 478 100 q 453 2 478 28 q 392 -24 428 -24 m 192 699 q 228 639 192 663 q 226 653 226 644 q 241 685 226 672 q 278 699 256 699 q 339 638 339 699 q 307 570 339 597 q 228 543 275 543 q 127 584 167 543 q 88 689 88 625 q 187 881 88 806 q 442 957 286 957 q 690 885 596 957 q 783 694 783 813 q 636 471 783 546 q 572 442 611 458 q 460 375 490 407 q 431 290 431 343 q 424 238 431 251 q 379 217 413 217 q 321 289 321 217 q 354 403 321 356 q 507 521 396 460 q 636 608 607 575 q 665 699 665 642 q 603 822 665 775 q 438 868 540 868 q 263 819 333 868 q 192 699 192 769 z "},"@":{"ha":961,"x_min":51,"x_max":910,"o":"m 551 279 q 553 299 551 290 q 390 217 500 217 q 283 262 324 217 q 242 379 242 307 q 333 602 242 506 q 546 699 425 699 q 607 690 574 699 l 635 683 q 649 681 640 681 q 672 688 656 681 q 704 697 694 697 q 725 679 725 697 q 722 664 725 675 l 715 638 l 636 342 q 632 315 632 325 q 658 290 632 290 q 754 357 710 290 q 817 572 817 450 q 741 764 817 688 q 550 840 665 840 q 267 710 388 840 q 147 406 147 581 q 235 178 147 269 q 454 88 322 88 q 583 106 532 88 q 710 181 633 125 q 756 201 738 201 q 782 176 782 201 q 746 122 782 150 q 443 14 608 14 q 163 126 275 14 q 51 406 51 238 q 202 759 51 608 q 558 910 353 910 q 812 818 714 910 q 910 579 910 726 q 789 290 910 414 q 635 215 715 215 q 575 233 599 215 q 551 279 551 251 m 581 468 l 618 607 q 538 628 576 628 q 397 557 457 628 q 336 392 336 486 q 419 296 336 296 q 581 468 535 296 z "},"A":{"ha":1036,"x_min":-11,"x_max":1047,"o":"m 726 157 l 676 293 q 659 321 668 315 q 622 326 650 326 l 375 326 q 337 317 347 326 q 310 264 326 307 l 269 157 q 264 128 264 142 q 318 83 264 83 q 358 86 332 83 q 396 89 383 89 q 453 40 453 89 q 390 -6 453 -6 q 360 -3 379 -6 l 290 7 q 226 10 271 10 q 158 7 178 10 l 100 -1 q 43 -7 61 -7 q -11 39 -11 -7 q 42 88 -11 88 q 58 86 53 88 l 76 86 q 133 115 114 86 q 161 181 142 126 l 419 879 q 507 938 442 938 q 592 879 571 938 l 840 190 q 883 104 864 125 q 939 83 903 83 q 956 85 950 83 q 994 88 994 88 q 1047 43 1047 88 q 994 -4 1047 -4 q 954 -1 979 -4 q 824 8 867 8 q 657 -3 772 8 q 613 -6 628 -6 q 557 42 557 -6 q 618 89 557 89 q 655 86 631 89 q 692 83 679 83 q 738 121 738 83 q 726 157 738 126 m 626 440 l 501 824 l 374 440 q 371 431 371 432 q 392 418 371 418 l 613 418 q 629 429 629 418 q 626 440 629 432 z "},"B":{"ha":961,"x_min":26,"x_max":890,"o":"m 843 708 q 682 508 843 567 q 778 468 740 490 q 890 272 890 403 q 792 69 890 144 q 528 -7 693 -7 q 376 0 468 -7 q 242 7 285 7 q 171 3 204 7 l 106 -6 q 96 -7 103 -6 q 86 -7 89 -7 q 26 43 26 -6 q 69 88 26 88 q 107 83 81 88 q 136 81 125 81 q 207 183 207 81 l 207 742 q 136 846 207 846 q 107 843 124 846 q 69 839 82 839 q 26 883 26 839 q 90 932 26 932 l 108 932 l 176 922 q 256 918 206 918 q 406 926 308 918 q 546 932 471 932 q 765 873 686 932 q 843 708 843 814 m 311 649 q 324 558 311 575 q 397 540 338 540 l 475 540 q 721 700 721 540 q 518 846 721 846 q 344 828 376 846 q 311 735 311 810 l 311 649 m 311 367 l 311 213 q 342 101 311 122 q 508 81 372 81 q 768 275 768 81 q 518 454 768 454 l 403 454 q 317 421 328 454 q 311 367 311 404 z "},"C":{"ha":885,"x_min":53,"x_max":832,"o":"m 469 957 q 721 839 624 957 l 719 854 q 719 869 719 861 q 718 879 718 878 q 715 907 715 910 q 760 954 715 954 q 807 896 807 954 q 801 829 807 885 q 794 733 794 760 q 799 657 794 696 l 804 604 l 804 590 q 754 528 804 528 q 701 588 700 528 l 703 638 q 640 800 706 738 q 469 863 575 863 q 254 757 332 863 q 176 465 176 651 q 256 169 176 275 q 479 63 336 63 q 619 100 557 63 q 706 199 681 138 q 722 307 722 239 q 775 371 722 371 q 832 307 832 371 q 729 64 832 158 q 464 -31 626 -31 q 165 101 276 -31 q 53 453 53 233 q 167 818 53 679 q 469 957 282 957 z "},"D":{"ha":1011,"x_min":26,"x_max":958,"o":"m 207 742 q 136 846 207 846 q 107 843 124 846 q 69 839 82 839 q 26 883 26 839 q 89 932 26 932 q 107 931 96 932 l 181 921 q 269 915 222 915 q 347 919 308 915 l 438 929 q 507 932 464 932 q 718 896 633 932 q 894 732 829 849 q 958 461 958 615 q 907 216 958 325 q 767 56 856 107 q 508 -7 660 -7 q 446 -4 478 -7 l 350 4 q 249 8 301 8 q 174 4 203 8 l 107 -6 q 97 -7 104 -6 q 86 -7 90 -7 q 26 42 26 -7 q 39 74 26 61 q 69 88 51 88 q 107 83 85 88 q 136 81 117 81 q 207 185 207 81 l 207 742 m 324 756 l 324 168 q 386 90 324 104 q 503 85 407 85 q 744 175 669 85 q 835 461 835 283 q 780 697 835 600 q 629 821 725 793 q 482 839 568 839 q 348 826 372 839 q 324 756 324 814 z "},"E":{"ha":935,"x_min":26,"x_max":849,"o":"m 207 742 q 136 844 207 844 q 107 842 117 844 q 69 838 85 838 q 39 851 51 838 q 26 883 26 864 q 85 932 26 932 q 106 931 86 932 q 300 917 314 917 q 314 917 314 917 l 649 926 q 721 931 658 926 q 761 932 743 932 q 833 868 833 932 q 828 797 833 857 q 824 715 824 753 q 826 647 824 667 q 832 588 832 607 q 782 535 832 535 q 732 608 732 535 l 732 681 q 683 818 732 797 q 497 833 647 833 q 381 829 399 833 q 321 746 321 814 l 321 683 q 321 653 321 672 q 319 625 319 633 l 319 607 q 344 543 319 551 q 378 540 354 540 l 435 540 q 522 600 522 540 q 518 643 522 617 q 514 690 514 669 q 564 746 514 746 q 614 686 614 746 q 604 600 614 675 q 596 488 596 536 q 601 389 596 460 q 608 340 603 378 q 613 292 613 310 q 563 242 613 242 q 514 300 514 242 q 517 344 514 315 q 521 389 521 374 q 442 449 521 449 l 379 449 q 330 435 339 449 q 321 375 321 421 l 321 289 q 322 229 321 267 q 324 168 324 183 q 346 99 325 113 q 418 89 361 89 l 607 89 q 719 113 689 89 q 750 204 750 138 q 748 266 750 225 q 746 328 746 307 q 796 390 746 390 q 849 326 849 390 q 846 250 849 301 q 843 174 843 199 q 845 116 843 154 q 847 58 847 78 q 783 -7 847 -7 q 735 -4 768 -7 q 674 -3 718 -3 q 565 0 683 -3 q 361 3 447 3 q 106 -6 231 3 q 93 -7 100 -6 q 85 -7 86 -7 q 26 43 26 -7 q 69 88 26 88 q 107 85 76 88 q 136 81 122 81 q 207 185 207 81 l 207 742 z "},"F":{"ha":860,"x_min":26,"x_max":828,"o":"m 206 404 l 206 521 l 204 742 q 133 844 204 844 q 106 842 115 844 q 69 838 83 838 q 39 851 51 838 q 26 883 26 864 q 85 932 26 932 q 106 931 92 932 l 201 921 q 322 915 256 915 q 478 919 358 915 l 638 925 q 713 929 669 926 q 754 931 732 931 q 828 865 828 931 q 821 789 828 840 q 814 711 814 738 q 817 656 814 689 q 819 594 819 622 q 769 538 819 538 q 718 603 718 538 q 720 663 718 622 q 722 722 722 703 q 681 815 722 796 q 483 835 639 835 q 333 811 351 835 q 319 683 319 793 l 319 581 q 330 533 319 542 q 388 524 340 524 l 433 524 q 524 590 524 524 q 520 632 524 606 q 517 672 517 658 q 567 725 517 725 q 614 664 614 725 q 611 631 614 656 l 603 556 q 597 481 597 506 q 610 336 597 424 q 614 281 614 307 q 564 226 614 226 q 517 285 517 226 q 519 326 517 299 q 521 368 521 354 q 497 424 521 411 q 433 433 482 433 l 390 433 q 331 422 342 433 q 319 361 319 411 l 319 196 q 334 108 319 131 q 389 85 349 85 q 419 86 399 85 q 450 88 440 88 q 514 40 514 88 q 499 7 514 21 q 464 -7 485 -7 q 399 0 442 -7 q 260 10 338 10 q 153 1 210 10 l 106 -6 q 96 -7 101 -6 q 88 -7 90 -7 q 26 43 26 -7 q 69 88 26 88 q 106 85 75 88 q 135 81 121 81 q 187 103 172 81 q 203 185 201 126 l 206 404 z "},"G":{"ha":986,"x_min":53,"x_max":968,"o":"m 465 957 q 717 853 604 957 q 714 875 714 872 q 711 906 711 903 q 757 951 711 951 q 807 892 807 951 q 806 863 807 872 l 796 796 q 792 733 792 767 q 797 621 792 707 q 797 608 797 621 q 746 546 797 546 q 697 614 697 546 l 697 656 q 634 807 697 751 q 464 863 571 863 q 253 758 329 863 q 176 472 176 654 q 255 171 176 279 q 472 63 333 63 q 638 125 579 63 q 696 303 696 188 q 680 369 696 350 q 624 388 664 388 q 592 386 613 388 q 560 385 571 385 q 493 432 493 385 q 550 481 493 481 q 590 478 568 481 q 731 467 678 467 q 875 479 799 467 q 913 482 892 482 q 968 436 968 482 q 953 403 968 417 q 919 389 939 389 q 894 390 903 389 q 885 392 892 390 q 874 392 878 392 q 813 256 813 392 l 813 144 q 815 79 813 108 q 818 33 818 50 q 768 -24 818 -24 q 719 25 719 -24 q 722 58 719 25 q 725 101 724 71 q 675 42 693 58 q 451 -31 594 -31 q 163 103 272 -31 q 53 451 53 236 q 165 819 53 682 q 465 957 276 957 z "},"H":{"ha":1088,"x_min":25,"x_max":1061,"o":"m 321 535 l 765 535 l 765 739 q 694 843 765 843 q 665 839 686 843 q 628 835 643 835 q 583 881 583 835 q 643 931 583 931 q 714 922 663 931 q 808 914 765 914 q 947 924 878 914 q 1000 929 988 929 q 1061 881 1061 929 q 1018 836 1061 836 q 985 840 1007 836 q 951 843 963 843 q 881 739 881 843 l 881 185 q 950 81 881 81 q 984 84 961 81 q 1018 88 1007 88 q 1061 43 1061 88 q 1000 -7 1061 -7 q 946 1 988 -7 q 840 11 897 11 q 711 3 764 11 q 644 -7 650 -7 q 583 43 583 -7 q 628 89 583 89 q 661 85 639 89 q 694 82 683 82 q 764 158 753 82 q 765 283 765 168 l 765 440 l 321 440 l 321 282 q 322 157 321 167 q 392 81 333 81 q 426 84 403 81 q 460 88 449 88 q 503 43 503 88 q 442 -7 503 -7 q 382 1 432 -7 q 265 13 315 13 q 140 1 207 13 l 107 -4 q 89 -7 90 -7 q 25 43 25 -7 q 38 75 25 61 q 69 89 51 89 q 107 85 82 89 q 136 81 122 81 q 207 185 207 81 l 207 742 q 136 846 207 846 q 106 842 126 846 q 69 838 85 838 q 38 851 51 838 q 25 883 25 865 q 89 932 25 932 q 140 925 101 932 q 269 915 193 915 q 356 924 299 915 q 442 932 414 932 q 503 882 503 932 q 490 849 503 863 q 460 836 478 836 q 422 840 444 836 q 392 844 400 844 q 322 740 324 844 l 321 535 z "},"I":{"ha":531,"x_min":26,"x_max":504,"o":"m 207 742 q 136 844 207 844 q 107 842 117 844 q 69 838 85 838 q 39 851 51 838 q 26 883 26 864 q 88 932 26 932 q 107 931 96 932 l 181 921 q 267 915 222 915 q 361 922 310 915 l 424 931 q 443 932 435 932 q 504 883 504 932 q 492 851 504 864 q 461 838 479 838 q 424 842 447 838 q 394 844 414 844 q 324 742 324 844 l 324 185 q 394 81 324 81 q 424 83 406 81 q 461 88 450 88 q 504 43 504 88 q 443 -7 504 -7 q 433 -7 440 -7 q 424 -6 428 -6 l 351 6 q 275 11 315 11 q 171 4 217 11 l 107 -6 q 97 -7 104 -6 q 86 -7 90 -7 q 26 43 26 -7 q 69 88 26 88 q 107 85 76 88 q 136 81 122 81 q 207 185 207 81 l 207 742 z "},"J":{"ha":860,"x_min":26,"x_max":890,"o":"m 215 310 q 235 347 215 332 q 214 354 222 354 q 160 322 183 354 q 138 246 138 289 q 197 119 138 169 q 350 69 257 69 q 583 258 560 69 q 593 476 593 338 l 593 521 l 592 742 q 521 844 592 844 q 492 842 501 844 q 454 838 469 838 q 424 851 436 838 q 411 883 411 864 q 472 932 411 932 q 492 931 481 932 l 565 921 q 651 915 607 915 q 746 922 693 915 l 810 931 q 829 932 815 932 q 890 883 890 932 q 846 838 890 838 q 808 842 832 838 q 779 844 799 844 q 708 742 708 844 l 708 476 q 692 197 708 268 q 629 82 676 135 q 354 -31 528 -31 q 117 45 208 -31 q 26 240 26 121 q 83 390 26 329 q 222 450 139 450 q 319 419 282 450 q 357 338 357 388 q 335 277 357 303 q 282 251 313 251 q 235 269 256 251 q 215 310 215 286 z "},"K":{"ha":1088,"x_min":25,"x_max":1090,"o":"m 324 472 l 715 806 q 731 829 731 818 q 704 844 731 844 q 689 843 693 844 q 615 838 639 838 q 565 886 565 838 q 625 932 565 932 q 682 929 657 932 l 756 921 q 829 915 804 915 q 953 926 879 915 q 1008 932 990 932 q 1061 885 1061 932 q 1013 838 1061 838 q 999 839 1008 838 q 983 839 989 839 q 963 840 976 840 q 868 806 910 840 l 606 586 q 589 561 589 572 q 603 538 589 554 l 624 506 l 846 203 q 979 82 935 82 q 988 83 982 82 q 994 83 993 83 q 1040 88 1032 88 q 1090 40 1090 88 q 1036 -7 1090 -7 q 967 1 1036 -7 q 850 7 915 7 q 693 -1 775 7 q 632 -7 639 -7 q 581 39 581 -7 q 635 89 581 89 q 678 86 650 89 q 740 81 732 81 q 774 94 774 81 q 761 121 774 104 l 503 472 q 488 483 494 483 q 469 472 482 483 l 324 344 q 322 288 322 319 q 324 158 322 167 q 393 79 335 79 q 424 83 401 79 q 461 88 446 88 q 492 74 479 88 q 504 42 504 61 q 443 -7 504 -7 q 433 -7 440 -7 q 424 -6 428 -6 l 346 6 q 256 10 317 10 q 182 6 211 10 l 106 -6 q 97 -7 103 -6 q 89 -7 92 -7 q 26 42 26 -7 q 69 86 26 86 q 107 82 82 86 q 136 79 124 79 q 206 183 206 79 q 207 281 206 181 q 207 403 207 281 l 207 519 q 207 643 207 643 l 206 740 q 136 844 206 844 q 107 840 122 844 q 69 836 82 836 q 25 882 25 836 q 88 931 25 931 q 106 929 94 931 l 172 921 q 247 915 217 915 q 360 924 285 915 q 446 932 435 932 q 504 883 504 932 q 492 851 504 864 q 461 838 479 838 q 424 842 447 838 q 394 844 414 844 q 333 810 346 844 q 322 644 321 776 l 324 472 z "},"L":{"ha":885,"x_min":26,"x_max":849,"o":"m 324 200 q 340 103 324 118 q 373 88 353 90 q 464 85 393 85 l 586 85 q 714 110 682 85 q 746 214 746 136 q 744 263 746 235 q 742 328 742 317 q 790 389 742 389 q 849 333 849 389 q 847 307 849 317 l 838 236 q 833 172 833 206 q 837 115 833 153 q 840 57 840 76 q 769 -6 840 -6 q 706 -3 756 -6 q 603 0 672 -1 l 499 1 l 276 1 q 165 -1 243 1 q 127 -4 154 -1 q 85 -7 100 -7 q 26 43 26 -7 q 69 88 26 88 q 103 84 81 88 q 136 81 125 81 q 207 185 207 81 l 207 742 q 136 844 207 844 q 107 842 117 844 q 69 838 85 838 q 39 851 51 838 q 26 883 26 864 q 86 932 26 932 q 107 931 94 932 l 181 922 q 271 915 242 915 q 360 922 307 915 l 424 931 q 442 932 435 932 q 504 883 504 932 q 492 851 504 864 q 461 838 479 838 q 424 842 447 838 q 394 844 414 844 q 324 742 324 844 l 324 200 z "},"M":{"ha":1315,"x_min":26,"x_max":1289,"o":"m 443 828 l 657 125 l 892 874 q 954 932 910 932 l 961 932 q 997 928 975 932 q 1033 921 1025 921 q 1094 918 1056 918 q 1160 922 1136 918 l 1208 931 q 1225 932 1213 932 q 1289 883 1289 932 q 1244 839 1289 839 q 1212 842 1233 839 q 1179 846 1190 846 q 1108 742 1108 846 l 1108 644 l 1107 522 l 1107 404 l 1108 185 q 1178 81 1108 81 q 1208 85 1192 81 q 1244 88 1239 88 q 1289 43 1289 88 q 1229 -7 1289 -7 q 1208 -4 1232 -7 q 1046 7 1113 7 q 921 -3 981 7 q 876 -7 896 -7 q 822 39 822 -7 q 878 86 822 86 q 899 85 892 86 q 935 82 929 82 q 997 186 985 82 q 1000 328 1000 208 q 1001 461 1000 374 l 1004 586 l 1004 832 q 997 840 1004 840 q 989 832 993 840 l 733 39 q 656 -14 717 -14 q 602 -3 619 -14 q 575 39 585 7 l 324 832 q 314 840 319 840 q 308 832 308 840 l 317 186 q 372 85 318 85 q 414 90 388 85 l 431 90 q 485 42 485 90 q 429 -7 485 -7 q 400 -4 419 -7 q 335 6 369 0 q 264 10 307 10 q 165 6 188 10 l 107 -6 q 99 -7 104 -6 q 90 -7 93 -7 q 26 42 26 -7 q 39 74 26 61 q 69 88 51 88 q 106 83 85 88 q 136 79 126 79 q 207 183 207 79 l 207 742 q 136 846 207 846 q 103 842 125 846 q 69 839 81 839 q 26 883 26 839 q 89 932 26 932 q 107 931 94 932 l 156 925 q 224 921 192 921 q 295 926 250 921 q 361 932 340 932 q 433 864 415 932 l 443 828 z "},"N":{"ha":1061,"x_min":25,"x_max":1047,"o":"m 411 869 l 785 93 l 785 653 q 783 772 785 761 q 714 844 771 844 q 681 841 703 844 q 647 838 658 838 q 616 851 629 838 q 603 882 603 864 q 665 932 603 932 q 683 931 678 932 l 746 922 q 824 917 788 917 q 919 925 860 917 q 968 932 940 928 q 978 933 971 932 q 988 933 983 933 q 1047 885 1047 933 q 992 838 1047 838 q 976 839 982 838 l 963 839 q 908 821 921 839 q 893 742 896 803 l 890 663 l 888 521 l 888 150 q 866 15 888 54 q 792 -24 844 -24 q 676 74 724 -24 l 313 831 l 313 185 q 383 81 313 81 q 417 84 394 81 q 450 88 439 88 q 494 42 494 88 q 432 -7 494 -7 q 424 -7 429 -7 q 414 -6 417 -6 l 357 3 q 268 10 310 10 q 175 3 232 10 l 107 -6 q 97 -7 104 -6 q 86 -7 90 -7 q 26 42 26 -7 q 71 85 26 85 q 108 82 78 85 q 138 78 124 78 q 208 182 208 78 l 208 279 l 210 401 l 210 521 l 208 740 q 136 844 208 844 q 108 842 126 844 q 69 838 82 838 q 25 883 25 838 q 85 932 25 932 q 107 931 93 932 q 214 924 176 924 q 276 928 235 924 q 339 932 318 932 q 396 903 382 932 l 411 869 z "},"O":{"ha":910,"x_min":53,"x_max":857,"o":"m 453 -31 q 160 103 268 -31 q 53 464 53 236 q 161 826 53 694 q 460 957 269 957 q 749 829 642 957 q 857 483 857 701 q 748 108 857 247 q 453 -31 639 -31 m 456 857 q 249 754 322 857 q 175 465 175 651 q 249 173 175 276 q 454 69 322 69 q 659 177 583 69 q 735 469 735 285 q 663 756 735 656 q 456 857 590 857 z "},"P":{"ha":885,"x_min":25,"x_max":863,"o":"m 207 185 l 207 742 q 136 844 207 844 q 107 842 125 844 q 69 838 81 838 q 25 883 25 838 q 86 932 25 932 q 107 931 96 932 l 175 922 q 258 918 208 918 q 342 922 293 918 q 514 932 456 932 q 667 918 603 932 q 810 832 758 899 q 863 671 863 765 q 773 471 863 540 q 514 401 683 401 l 415 401 q 361 403 369 401 l 358 403 q 330 395 336 403 q 324 360 324 388 l 324 332 q 334 118 324 156 q 394 81 344 81 q 424 85 410 81 q 461 88 454 88 q 504 43 504 88 q 443 -7 504 -7 q 424 -4 443 -7 l 354 6 q 267 10 325 10 q 188 6 218 10 l 107 -6 q 99 -7 104 -6 q 89 -7 93 -7 q 26 42 26 -7 q 39 74 26 61 q 69 88 51 88 q 107 83 85 88 q 136 81 117 81 q 207 185 207 81 m 333 814 q 324 738 324 800 l 324 532 q 376 489 324 494 q 457 489 372 489 q 621 504 556 489 q 744 667 744 533 q 519 843 744 843 q 333 814 353 843 z "},"Q":{"ha":910,"x_min":53,"x_max":894,"o":"m 857 472 q 633 10 857 147 l 633 -96 q 714 -194 633 -194 q 776 -171 760 -194 q 790 -107 788 -154 q 840 -42 793 -42 q 894 -110 894 -42 q 845 -233 894 -186 q 717 -279 796 -279 q 542 -118 542 -279 l 542 -21 q 456 -31 499 -31 q 162 101 271 -31 q 53 457 53 233 q 161 824 53 690 q 460 957 269 957 q 750 826 643 957 q 857 472 857 696 m 635 196 l 635 122 q 693 218 675 172 q 735 475 735 329 q 663 757 735 657 q 460 857 590 857 q 247 753 324 857 q 171 461 171 649 q 299 99 171 200 q 261 215 261 160 q 317 330 261 283 q 456 376 374 376 q 588 328 540 376 q 635 196 635 281 m 457 60 q 543 74 492 60 l 543 181 q 450 290 543 290 q 368 260 400 290 q 336 181 336 229 q 369 93 336 126 q 457 60 403 60 z "},"R":{"ha":1011,"x_min":26,"x_max":1013,"o":"m 746 511 q 643 478 706 492 q 756 417 725 463 q 788 265 788 371 l 788 201 q 786 185 786 196 q 850 85 786 85 q 915 204 915 85 q 915 246 915 246 l 914 281 q 914 300 914 281 q 919 356 914 340 q 963 379 931 379 q 1013 321 1013 379 q 1011 290 1013 319 l 1010 261 q 1008 224 1008 232 l 1008 189 q 1010 164 1010 181 q 965 38 1010 83 q 839 -7 919 -7 q 675 158 675 -7 l 675 200 l 676 247 l 676 278 q 641 401 676 371 q 494 431 606 431 l 365 431 q 321 376 321 431 l 321 269 q 324 153 321 167 q 393 83 336 83 q 422 86 413 83 q 458 90 446 90 q 503 43 503 90 q 443 -7 503 -7 q 422 -4 443 -7 l 347 6 q 271 11 304 11 q 174 4 229 11 l 107 -4 q 86 -7 85 -7 q 26 43 26 -7 q 69 88 26 88 q 107 85 76 88 q 136 81 122 81 q 207 185 207 81 l 207 742 q 136 846 207 846 q 103 842 125 846 q 69 839 81 839 q 39 852 51 839 q 26 883 26 865 q 88 932 26 932 q 107 931 93 932 l 178 924 q 247 921 206 921 q 343 924 290 921 l 449 929 q 546 932 501 932 q 851 699 851 932 q 746 511 851 561 m 361 524 l 492 524 q 667 557 608 524 q 738 692 738 597 q 521 850 738 850 q 365 833 406 850 q 322 764 324 815 l 321 719 l 321 560 q 329 530 321 536 q 361 524 338 524 z "},"S":{"ha":860,"x_min":83,"x_max":782,"o":"m 426 957 q 649 869 563 957 l 649 889 q 692 943 649 943 q 739 883 739 943 l 739 875 q 735 833 739 872 q 731 740 731 794 q 733 696 731 733 l 738 640 q 739 621 739 633 q 688 554 739 554 q 633 610 633 554 q 633 617 633 617 l 636 654 q 638 685 638 674 q 581 815 638 768 q 426 863 525 863 q 283 818 336 863 q 229 699 229 774 q 308 569 229 611 q 464 529 353 547 q 690 457 629 503 q 782 264 782 389 q 688 51 782 133 q 446 -31 594 -31 q 183 69 288 -31 q 185 57 183 64 q 185 49 185 50 q 188 19 188 26 q 139 -32 188 -32 q 86 26 86 -32 q 88 38 86 33 l 93 110 q 97 179 97 164 q 90 263 97 207 q 83 346 83 318 q 136 408 83 408 q 190 346 190 408 l 190 321 q 189 289 189 310 q 256 124 189 185 q 436 63 322 63 q 604 113 542 63 q 667 249 667 163 q 500 410 667 381 l 421 424 q 238 472 303 444 q 142 555 178 499 q 107 682 107 611 q 196 881 107 804 q 426 957 285 957 z "},"T":{"ha":885,"x_min":36,"x_max":849,"o":"m 496 183 q 567 79 496 79 q 600 83 578 79 q 633 86 622 86 q 665 73 651 86 q 678 42 678 60 q 615 -7 678 -7 q 607 -7 613 -7 q 597 -6 600 -6 l 529 4 q 442 10 490 10 q 349 4 389 10 l 279 -6 q 269 -7 275 -6 q 260 -7 263 -7 q 199 42 199 -7 q 243 86 199 86 q 276 83 254 86 q 310 79 299 79 q 379 183 379 79 l 379 281 l 381 403 l 381 521 l 379 747 q 278 846 379 846 l 235 846 q 135 749 135 846 q 136 701 135 714 l 142 650 q 143 615 143 638 q 89 528 143 528 q 38 592 38 528 q 40 654 38 610 q 44 739 44 721 q 42 811 44 774 q 36 874 36 885 q 89 932 36 932 q 179 928 108 932 q 293 925 186 928 l 451 922 q 600 925 479 922 q 690 929 626 925 q 779 933 747 933 q 849 876 849 933 l 849 874 q 845 822 849 860 q 838 742 842 785 l 838 726 q 842 661 838 706 q 847 589 847 603 q 793 532 847 532 q 740 601 740 532 q 744 676 740 626 q 749 750 749 725 q 639 846 749 846 l 600 846 q 526 824 549 846 q 501 753 504 803 l 497 656 l 496 183 z "},"U":{"ha":986,"x_min":14,"x_max":979,"o":"m 288 713 l 285 624 l 279 511 l 279 297 q 301 156 279 200 q 382 86 322 111 q 496 63 438 63 q 626 92 572 63 q 697 170 681 121 q 714 296 713 219 l 717 653 q 714 772 717 758 q 643 843 701 843 q 615 840 633 843 q 578 836 589 836 q 547 850 560 836 q 533 882 533 864 q 594 932 533 932 q 614 931 604 932 l 696 919 q 765 915 726 915 q 828 919 803 915 l 888 929 q 921 933 913 933 q 979 886 979 933 q 922 839 979 839 l 907 839 q 893 840 903 840 q 842 799 851 840 q 832 585 832 757 l 832 342 q 826 211 832 251 q 779 90 815 142 q 497 -31 696 -31 q 182 129 253 -31 q 160 281 160 178 q 164 428 160 331 q 168 576 168 526 l 168 650 q 167 764 168 751 q 113 840 157 840 q 103 840 110 840 q 90 838 96 839 q 72 838 85 838 q 14 885 14 838 q 67 932 14 932 q 114 928 89 932 q 240 917 182 917 q 378 929 300 917 q 414 932 394 932 q 471 885 471 932 q 422 838 471 838 q 389 841 411 838 q 356 844 367 844 q 296 797 311 844 q 288 713 289 776 z "},"V":{"ha":1011,"x_min":-7,"x_max":1019,"o":"m 338 708 l 533 115 l 719 696 q 740 790 740 763 q 685 843 740 843 q 654 840 675 843 q 624 836 633 836 q 569 885 569 836 q 622 932 569 932 q 710 924 651 932 q 800 915 769 915 q 924 928 850 915 q 968 932 947 932 q 1019 883 1019 932 q 968 836 1019 836 q 963 838 967 836 l 931 840 q 924 840 931 840 q 885 817 900 840 q 844 718 871 794 l 617 50 q 529 -18 593 -18 q 439 50 463 -18 l 190 749 q 161 814 172 800 q 100 838 142 838 q 74 836 92 838 q 47 835 56 835 q -7 883 -7 835 q 49 933 -7 933 q 86 929 65 933 q 224 914 164 914 q 326 923 258 914 q 428 932 394 932 q 479 886 479 932 q 426 836 479 836 q 414 838 424 836 q 400 838 406 838 q 376 839 392 839 q 315 800 315 839 q 322 758 315 781 l 338 708 z "},"W":{"ha":1289,"x_min":-7,"x_max":1296,"o":"m 301 713 l 415 125 l 558 847 q 651 942 576 942 q 746 858 731 942 l 885 115 l 1003 692 q 1015 785 1015 753 q 957 842 1015 842 q 921 840 944 842 q 885 839 897 839 q 825 886 825 839 q 883 932 825 932 q 929 929 906 932 q 1079 915 1043 915 q 1162 924 1107 915 q 1244 932 1217 932 q 1296 883 1296 932 q 1246 839 1296 839 q 1221 841 1238 839 q 1196 843 1204 843 q 1153 821 1167 843 q 1122 721 1140 799 l 967 58 q 881 -18 949 -18 q 790 76 808 -18 l 650 811 l 496 57 q 417 -18 481 -18 q 333 58 351 -18 l 168 750 q 137 822 156 803 q 78 840 118 840 l 68 840 l 38 838 q -7 883 -7 838 q 42 932 -7 932 q 86 928 61 932 q 232 915 161 915 q 385 929 265 915 q 425 932 406 932 q 475 886 475 932 q 414 836 475 836 q 376 839 401 836 q 338 842 350 842 q 289 796 289 842 q 293 757 289 779 l 301 713 z "},"X":{"ha":1088,"x_min":6,"x_max":1081,"o":"m 235 182 l 481 485 l 226 783 q 140 839 179 839 q 109 838 129 839 q 78 836 89 836 q 21 886 21 836 q 81 933 21 933 q 168 919 88 933 q 246 914 207 914 q 410 928 319 914 q 458 932 438 932 q 514 885 514 932 q 458 836 514 836 q 446 838 454 836 q 433 838 438 838 q 394 843 415 840 q 365 846 372 846 q 349 836 349 846 q 357 819 349 831 l 550 567 l 740 808 q 751 833 751 822 q 733 844 751 844 q 713 843 722 844 q 649 838 672 838 q 593 886 593 838 q 644 932 593 932 q 697 926 665 932 q 831 915 761 915 q 951 928 874 915 q 996 933 986 933 q 1053 885 1053 933 q 1001 836 1053 836 q 972 840 992 836 q 943 843 953 843 q 861 783 910 843 l 617 485 l 878 168 q 989 85 946 85 q 999 86 992 85 q 1007 86 1004 86 q 1029 88 1015 88 q 1081 42 1081 88 q 1026 -7 1081 -7 q 978 -1 1013 -7 q 849 11 899 11 q 726 0 793 11 q 660 -7 685 -7 q 600 43 600 -7 q 657 90 600 90 q 704 89 681 90 l 747 86 l 757 86 q 779 100 779 86 q 753 144 779 111 l 546 404 l 343 144 q 318 100 318 113 q 338 85 318 85 l 340 85 l 372 88 l 414 90 q 449 92 435 92 q 510 43 510 92 q 457 -7 510 -7 q 403 0 440 -7 q 267 13 335 13 q 113 -1 189 13 q 64 -7 82 -7 q 6 43 6 -7 q 57 92 6 92 q 83 90 65 92 q 108 88 100 88 q 163 105 140 88 q 235 182 186 122 z "},"Y":{"ha":1011,"x_min":-19,"x_max":1032,"o":"m 451 276 q 451 303 451 282 q 450 340 450 325 l 181 767 q 147 815 154 808 q 96 836 126 836 q 71 835 79 836 q 58 835 67 835 q 44 833 49 833 q -19 882 -19 833 q 36 932 -19 932 q 92 926 58 932 q 217 915 158 915 q 346 928 260 915 q 396 932 375 932 q 453 883 453 932 q 385 836 453 836 l 371 838 l 336 838 l 308 839 q 292 828 292 840 q 293 820 292 822 q 300 808 294 818 l 513 447 l 728 808 q 735 831 735 819 q 717 843 735 843 l 714 843 l 689 842 l 653 838 q 617 835 629 835 q 560 883 560 835 q 615 932 560 932 q 665 928 636 932 q 800 917 743 917 q 932 928 860 917 q 979 932 960 932 q 1032 883 1032 932 q 981 839 1032 839 q 949 842 960 839 q 918 844 926 844 q 860 811 882 844 l 839 779 l 565 350 l 565 292 q 577 115 565 150 q 636 81 589 81 q 670 84 647 81 q 704 88 693 88 q 747 43 747 88 q 685 -7 747 -7 q 676 -7 683 -7 q 667 -6 671 -6 l 590 4 q 506 10 547 10 q 421 4 461 10 l 350 -6 q 342 -7 347 -6 q 332 -7 335 -7 q 269 42 269 -7 q 314 88 269 88 q 347 84 325 88 q 379 81 368 81 q 450 154 438 81 q 451 276 451 167 z "},"Z":{"ha":860,"x_min":54,"x_max":811,"o":"m 782 797 l 169 82 l 518 82 q 674 104 638 82 q 711 197 711 126 q 707 254 711 218 q 703 318 703 290 q 756 374 703 374 q 806 315 806 374 q 801 257 806 300 q 797 174 797 214 q 799 122 797 135 q 804 57 804 74 q 725 -8 804 -8 q 661 -7 692 -8 q 400 -1 536 -1 q 242 -6 332 -1 q 167 -7 213 -7 q 78 10 101 -7 q 54 71 54 26 q 86 151 54 114 l 672 843 l 332 843 q 215 813 246 843 q 183 700 183 782 q 185 657 183 686 q 186 614 186 628 q 133 544 186 544 q 82 601 82 544 q 88 678 82 628 q 93 756 93 729 q 90 809 93 774 q 88 863 88 844 q 163 935 88 938 l 200 933 q 275 933 226 932 q 324 933 294 933 q 368 932 358 932 l 656 933 q 711 933 656 933 q 811 864 811 933 q 782 797 811 832 z "},"[":{"ha":607,"x_min":147,"x_max":544,"o":"m 153 0 l 153 658 q 150 767 153 701 q 147 872 147 832 q 160 928 147 917 q 188 935 168 935 q 241 931 206 935 q 294 928 276 928 q 401 932 365 928 q 471 936 438 936 q 544 888 544 936 q 467 842 544 842 q 399 849 443 842 q 331 856 354 856 q 278 845 292 856 q 263 797 265 835 l 257 722 q 253 543 253 667 l 253 115 q 257 -64 253 -8 l 263 -139 q 281 -187 265 -176 q 331 -196 292 -196 q 399 -190 354 -196 q 467 -183 444 -183 q 544 -229 544 -183 q 471 -278 544 -278 q 388 -274 443 -278 q 304 -269 332 -269 l 293 -269 q 240 -273 275 -269 q 188 -276 204 -276 q 151 -257 160 -276 q 147 -214 147 -246 q 150 -107 147 -172 q 153 0 153 -42 z "},"\\":{"ha":694,"x_min":36,"x_max":631,"o":"m 36 1042 l 136 1042 l 631 -115 l 531 -115 l 36 1042 z "},"]":{"ha":607,"x_min":63,"x_max":460,"o":"m 350 -64 q 354 115 354 -7 l 354 543 q 350 722 354 665 l 344 797 q 328 845 342 835 q 276 856 315 856 q 208 849 253 856 q 140 842 163 842 q 63 888 63 842 q 136 936 63 936 q 206 932 168 936 q 313 928 243 928 q 366 931 331 928 q 419 935 401 935 q 456 915 447 935 q 460 872 460 904 q 457 767 460 829 q 454 539 454 704 l 454 119 q 457 -108 454 -42 q 460 -214 460 -174 q 449 -267 460 -258 q 419 -276 439 -276 q 367 -273 401 -276 q 314 -269 332 -269 q 206 -274 242 -269 q 136 -278 169 -278 q 63 -229 63 -278 q 140 -183 63 -183 q 206 -190 161 -183 q 276 -196 251 -196 q 328 -186 315 -196 q 344 -139 342 -176 l 350 -64 z "},"^":{"ha":694,"x_min":35,"x_max":660,"o":"m 346 847 l 144 507 l 35 507 l 281 929 l 414 929 l 660 507 l 549 507 l 346 847 z "},"_":{"ha":694,"x_min":0,"x_max":694,"o":"m 0 -185 l 0 -93 l 694 -93 l 694 -185 l 0 -185 z "},"`":{"ha":683,"x_min":185,"x_max":479,"o":"m 235 971 q 275 957 253 971 l 450 847 q 479 811 479 829 q 450 778 479 778 q 431 782 451 778 l 233 868 q 185 921 185 889 q 199 956 185 942 q 235 971 214 971 z "},"a":{"ha":783,"x_min":42,"x_max":794,"o":"m 651 -18 q 511 81 538 -18 q 289 -24 440 -24 q 109 32 176 -24 q 42 181 42 88 q 140 350 42 296 q 205 377 178 371 q 314 393 232 383 q 466 428 431 406 q 501 510 501 450 q 462 599 501 567 q 351 632 422 632 q 235 597 289 632 q 214 568 214 583 q 226 554 214 563 q 246 507 246 540 q 226 461 246 479 q 175 443 206 443 q 115 468 139 443 q 90 529 90 493 q 167 663 90 607 q 354 718 244 718 q 607 475 607 718 l 607 194 q 610 115 607 128 q 657 67 618 67 q 706 156 706 67 l 706 224 q 749 268 706 268 q 794 201 794 268 l 794 194 l 793 115 q 651 -18 790 -18 m 497 258 l 499 357 q 434 318 468 329 q 313 299 400 307 q 154 182 154 283 q 192 99 154 129 q 296 68 231 68 q 442 119 389 68 q 497 258 496 169 z "},"b":{"ha":783,"x_min":-33,"x_max":731,"o":"m 235 886 q 222 613 224 771 q 313 694 267 671 q 428 718 358 718 q 649 621 567 718 q 731 363 731 524 q 644 81 731 186 q 410 -24 557 -24 q 203 83 267 -24 q 208 39 208 43 q 160 -11 208 -11 q 111 58 111 -11 q 113 88 111 78 q 114 156 113 119 l 118 263 l 121 403 l 118 774 q 108 843 117 825 q 76 861 99 861 q 40 856 72 861 q 14 853 25 853 q -33 897 -33 853 q 22 943 -33 943 q 50 942 39 943 l 83 938 q 119 935 106 935 q 163 940 135 935 q 204 944 190 944 q 235 906 235 944 l 235 886 m 233 483 q 224 358 224 439 q 246 169 224 221 q 410 68 289 68 q 562 144 506 68 q 618 347 618 219 q 565 552 618 478 q 418 626 511 626 q 300 585 353 626 q 233 483 247 544 z "},"c":{"ha":708,"x_min":54,"x_max":657,"o":"m 458 458 q 528 522 458 514 q 481 599 521 571 q 379 626 442 626 q 225 550 283 626 q 167 347 167 474 q 222 142 167 217 q 374 68 276 68 q 480 103 435 68 q 542 199 525 138 q 558 254 556 247 q 603 282 574 282 q 642 267 626 282 q 657 228 657 251 q 635 144 657 193 q 582 64 613 96 q 369 -24 500 -24 q 141 76 228 -24 q 54 339 54 176 q 144 615 54 511 q 382 718 233 718 q 567 658 493 718 q 640 504 640 597 q 612 419 640 453 q 539 386 583 386 q 481 407 504 386 q 458 458 458 428 z "},"d":{"ha":833,"x_min":54,"x_max":826,"o":"m 365 718 q 571 611 503 718 l 571 751 q 568 819 571 807 q 529 863 561 863 q 498 858 518 863 q 467 854 478 854 q 415 899 415 854 q 485 944 415 944 q 525 942 496 944 q 571 938 569 938 q 607 940 583 938 q 643 943 631 943 q 682 888 682 943 l 682 872 q 679 799 681 868 q 675 692 679 790 q 672 586 672 622 l 672 450 l 675 218 q 683 104 676 126 q 717 82 690 82 q 744 85 735 82 q 775 88 767 88 q 826 42 826 88 q 764 -6 826 -6 q 722 -2 750 -6 q 679 1 693 1 q 647 -1 675 1 q 618 -6 631 -6 q 581 44 581 -6 l 581 51 l 582 75 q 368 -24 508 -24 q 140 79 226 -24 q 54 349 54 182 q 139 617 54 517 q 365 718 224 718 m 563 228 q 568 346 568 274 q 561 472 568 439 q 501 581 549 542 q 374 626 446 626 q 222 553 276 626 q 167 351 167 479 q 224 144 167 219 q 379 68 281 68 q 504 112 454 68 q 563 228 554 156 z "},"e":{"ha":733,"x_min":54,"x_max":685,"o":"m 685 408 q 678 344 685 356 q 638 332 671 332 l 196 332 q 172 327 178 332 q 167 311 167 322 q 229 138 167 207 q 385 68 292 68 q 497 101 446 68 q 563 186 547 135 l 575 226 q 621 260 585 260 q 672 207 672 260 q 581 47 672 117 q 372 -24 489 -24 q 140 74 226 -24 q 54 338 54 172 q 146 613 54 507 q 385 718 238 718 q 600 631 515 718 q 685 408 685 543 m 181 444 q 211 425 181 425 l 543 425 q 572 444 572 425 q 517 572 572 518 q 386 626 461 626 q 244 570 308 626 q 181 444 181 514 z "},"f":{"ha":481,"x_min":24,"x_max":599,"o":"m 465 821 q 479 856 465 840 q 410 878 456 878 q 316 840 350 878 q 282 733 282 801 l 282 708 q 300 690 282 690 l 408 690 q 454 640 454 690 q 408 590 454 590 l 306 590 q 282 565 282 590 l 282 176 q 283 117 282 125 q 318 79 290 79 q 353 86 325 79 q 381 89 372 89 q 428 43 428 89 q 371 -6 428 -6 q 299 0 347 -6 q 228 6 251 6 q 153 1 186 6 q 83 -6 99 -6 q 24 43 24 -6 q 38 75 24 61 q 72 89 53 89 q 103 84 86 89 q 135 79 121 79 q 168 113 161 79 q 176 274 175 146 l 178 565 q 153 590 178 590 l 83 590 q 35 642 35 590 q 85 690 35 690 l 164 690 q 182 708 182 690 l 182 733 q 240 901 182 843 q 406 960 299 960 q 546 924 493 960 q 599 829 599 889 q 579 780 599 799 q 531 761 560 761 q 484 778 503 761 q 465 821 465 796 z "},"g":{"ha":758,"x_min":38,"x_max":774,"o":"m 383 718 q 465 707 419 718 q 624 843 472 843 q 731 810 688 843 q 774 725 774 776 q 752 668 774 692 q 701 644 731 644 q 663 660 679 644 q 646 696 646 675 q 676 742 646 718 q 619 769 654 769 q 544 678 546 769 q 650 488 650 607 q 578 328 650 392 q 397 264 506 264 q 239 300 321 264 q 201 310 217 310 q 167 292 182 310 q 151 251 151 275 q 297 179 151 179 l 306 179 q 331 181 317 179 q 347 181 344 181 q 561 156 479 181 q 682 82 638 132 q 726 -31 726 32 q 633 -191 726 -132 q 379 -250 539 -250 q 128 -194 219 -250 q 38 -42 38 -139 q 164 118 38 71 q 51 251 51 163 q 164 385 51 349 q 128 499 128 433 q 201 656 128 593 q 383 718 274 718 m 388 626 q 283 590 326 626 q 236 500 240 554 q 236 492 236 500 q 278 393 236 431 q 386 356 319 356 q 499 393 456 356 q 543 489 543 431 q 499 588 543 549 q 388 626 454 626 m 389 88 q 214 54 278 88 q 150 -36 150 21 q 213 -126 150 -93 q 381 -158 275 -158 q 556 -125 492 -158 q 621 -36 621 -92 q 560 55 621 22 q 389 88 499 88 z "},"h":{"ha":885,"x_min":13,"x_max":883,"o":"m 272 894 l 267 625 q 368 698 322 678 q 476 718 414 718 q 668 650 596 718 q 740 471 740 582 l 740 239 q 742 149 740 157 q 778 79 747 79 q 810 85 789 79 q 832 86 818 86 q 883 40 883 86 q 817 -6 883 -6 q 764 -1 799 -6 q 669 6 706 6 q 614 3 633 6 q 542 -6 556 -6 q 500 9 517 -6 q 483 46 483 24 q 498 76 483 64 q 532 89 513 89 q 568 82 547 89 q 592 78 581 78 q 635 168 633 78 q 636 233 635 185 l 638 293 l 638 368 q 610 558 638 510 q 468 631 569 631 q 308 556 358 631 q 272 390 274 504 l 271 290 q 269 263 271 282 q 269 236 269 244 q 271 144 269 157 q 311 76 278 76 q 342 81 322 76 q 372 86 363 86 q 417 43 417 86 q 356 -6 417 -6 q 297 -1 336 -6 q 207 4 244 4 q 142 0 183 4 q 71 -6 86 -6 q 14 44 14 -6 q 67 86 14 86 q 93 83 85 86 q 126 79 117 79 q 156 122 149 79 q 165 294 164 164 l 167 543 q 158 806 167 751 q 119 861 150 861 q 90 857 110 861 q 60 853 71 853 q 13 897 13 853 q 29 931 13 917 q 69 944 46 944 q 117 940 76 944 q 174 938 143 938 q 208 940 186 938 q 240 943 231 943 q 272 897 272 943 l 272 894 z "},"i":{"ha":431,"x_min":22,"x_max":426,"o":"m 279 403 l 279 222 q 281 140 279 153 q 318 78 288 78 q 353 85 325 78 q 374 88 360 88 q 426 42 426 88 q 409 8 426 22 q 365 -6 392 -6 q 298 1 343 -6 q 231 7 253 7 q 150 1 194 7 q 78 -6 96 -6 q 22 42 22 -6 q 69 88 22 88 q 102 83 81 88 q 135 79 124 79 q 175 168 168 79 q 175 289 175 174 l 175 403 q 175 524 175 518 q 133 611 168 611 q 102 606 122 611 q 72 601 82 601 q 22 646 22 601 q 83 693 22 693 q 121 692 110 693 q 178 686 165 686 q 212 690 189 686 q 246 693 235 693 q 286 639 286 693 q 285 622 286 633 q 283 606 283 611 q 281 519 282 594 q 279 403 279 463 m 207 767 q 152 790 175 767 q 129 844 129 813 q 152 899 129 876 q 207 921 175 921 q 262 899 239 921 q 285 844 285 876 q 262 790 285 813 q 207 767 239 767 z "},"j":{"ha":404,"x_min":-157,"x_max":290,"o":"m -22 -114 q -47 -168 -22 -143 q 29 -196 -10 -196 q 141 -150 107 -196 q 175 -3 175 -104 l 176 433 q 169 584 176 556 q 132 613 163 613 q 93 607 117 613 q 68 603 81 603 q 24 647 24 603 q 82 693 24 693 q 118 692 103 693 q 181 688 163 688 q 215 691 192 688 q 250 694 239 694 q 290 650 290 694 q 289 622 290 643 q 288 582 288 597 q 283 482 286 560 q 281 347 281 394 l 281 33 q 274 -90 281 -50 q 224 -201 261 -156 q 38 -282 157 -282 q -101 -240 -46 -282 q -157 -136 -157 -199 q -137 -78 -157 -101 q -86 -56 -117 -56 q -41 -73 -60 -56 q -22 -114 -22 -90 m 211 767 q 156 790 179 767 q 133 844 133 813 q 156 899 133 876 q 211 921 179 921 q 267 898 243 921 q 290 844 290 875 q 267 790 290 813 q 211 767 243 767 z "},"k":{"ha":860,"x_min":13,"x_max":865,"o":"m 271 351 l 508 574 q 521 599 521 585 q 503 613 521 613 q 463 607 489 613 q 422 601 436 601 q 374 646 374 601 q 435 694 374 694 q 474 692 450 694 q 619 681 569 681 q 667 683 647 681 l 724 692 q 756 694 743 694 q 824 647 824 694 q 776 603 824 603 q 745 606 765 603 q 714 608 725 608 q 642 574 679 608 l 496 440 q 481 418 481 426 q 492 397 481 411 l 669 167 q 767 79 738 79 q 790 83 774 79 q 815 86 806 86 q 865 42 865 86 q 801 -6 865 -6 q 727 0 776 -6 q 653 6 678 6 q 588 0 631 6 q 525 -6 546 -6 q 472 42 472 -6 q 522 86 472 86 q 544 85 536 86 q 576 78 569 78 q 589 88 589 78 q 589 92 589 89 q 588 94 588 93 l 574 114 l 556 140 l 417 325 q 394 343 403 343 q 374 329 389 343 l 271 238 l 271 206 q 272 131 271 139 q 311 82 279 82 q 335 84 325 82 q 361 86 344 86 q 408 40 408 86 q 356 -6 408 -6 q 284 1 332 -6 q 211 7 236 7 q 138 1 179 7 q 67 -6 85 -6 q 13 40 13 -6 q 65 86 13 86 q 92 83 76 86 q 122 79 114 79 q 160 132 156 79 l 164 186 l 164 747 q 154 842 161 822 q 125 863 147 863 q 99 860 118 863 q 60 853 79 853 q 14 896 14 853 q 68 943 14 943 q 107 942 96 943 q 153 938 142 938 q 185 941 164 938 q 217 944 207 944 l 226 944 q 271 888 271 944 l 271 351 z "},"l":{"ha":429,"x_min":13,"x_max":413,"o":"m 271 581 l 272 149 q 310 78 274 78 q 344 85 318 78 q 367 88 361 88 q 413 40 413 88 q 356 -6 413 -6 q 285 0 333 -6 q 210 6 236 6 q 143 0 188 6 q 78 -6 99 -6 l 71 -6 q 13 44 13 -6 q 60 88 13 88 q 69 88 63 88 q 82 86 78 86 q 122 81 117 81 q 153 102 147 81 q 161 214 160 124 l 163 311 l 167 526 l 165 774 q 161 829 164 815 q 122 861 151 861 q 86 856 118 861 q 61 853 71 853 q 14 897 14 853 q 69 943 14 943 q 96 942 85 943 l 129 938 q 167 935 151 935 q 208 940 181 935 q 250 944 236 944 q 282 904 282 944 q 281 883 282 890 q 271 581 271 776 z "},"m":{"ha":1289,"x_min":22,"x_max":1288,"o":"m 263 653 l 263 613 q 357 695 313 672 q 468 718 401 718 q 668 613 604 718 q 764 694 715 671 q 889 718 813 718 q 1031 685 968 718 q 1126 579 1100 647 q 1144 435 1144 533 l 1144 300 l 1143 196 q 1144 126 1143 139 q 1181 76 1151 76 q 1210 81 1190 76 q 1239 85 1229 85 q 1288 43 1288 85 q 1232 -6 1288 -6 q 1169 -1 1211 -6 q 1104 4 1126 4 q 1035 -1 1081 4 q 967 -6 990 -6 q 908 43 908 -6 q 953 85 908 85 q 981 82 958 85 q 1003 79 989 79 q 1033 103 1026 79 q 1040 221 1039 126 l 1042 306 l 1042 397 q 1027 537 1042 493 q 972 606 1013 581 q 881 631 932 631 q 743 563 782 631 q 713 374 713 508 l 713 275 q 719 112 713 144 q 751 79 725 79 q 776 83 760 79 q 800 86 792 86 q 833 73 819 86 q 846 40 846 60 q 781 -6 846 -6 q 719 0 760 -6 q 657 6 678 6 q 593 0 628 6 q 532 -6 558 -6 q 475 42 475 -6 q 517 85 475 85 q 540 82 532 85 q 569 78 560 78 q 604 149 603 78 l 606 214 q 607 274 607 244 q 608 300 608 299 l 608 415 q 576 583 608 536 q 460 631 543 631 q 319 564 368 631 q 279 375 279 510 l 279 190 q 281 125 279 135 q 311 78 286 78 q 340 83 318 78 q 349 85 343 83 q 358 85 354 85 q 413 39 413 85 q 350 -6 413 -6 q 292 -1 326 -6 q 211 4 244 4 q 150 0 194 4 q 78 -6 90 -6 q 22 42 22 -6 q 75 85 22 85 q 83 85 78 85 q 92 83 89 83 l 126 76 q 132 75 128 75 q 172 143 169 75 l 175 222 l 175 435 q 169 582 175 553 q 135 611 163 611 q 96 604 129 611 q 74 601 82 601 q 22 646 22 601 q 79 693 22 693 q 121 690 94 693 q 167 688 147 688 q 182 689 174 688 q 192 689 190 689 l 225 693 l 229 693 q 263 653 263 693 z "},"n":{"ha":885,"x_min":22,"x_max":885,"o":"m 267 651 l 267 613 q 489 718 350 718 q 631 680 564 718 q 721 585 697 642 q 740 461 740 538 l 740 197 q 742 126 740 138 q 779 79 749 79 q 812 83 792 79 q 840 86 832 86 q 872 74 858 86 q 885 43 885 61 q 868 8 885 22 q 828 -6 851 -6 q 764 0 808 -6 q 681 6 719 6 q 621 3 644 6 q 547 -6 551 -6 q 492 43 492 -6 q 539 86 492 86 q 564 83 550 86 q 597 78 590 78 q 633 154 631 78 l 636 225 l 638 310 l 638 415 q 631 517 638 489 q 576 599 618 569 q 472 631 531 631 q 313 551 361 631 q 279 367 279 497 l 279 182 q 288 99 279 121 q 318 76 296 76 q 349 82 329 76 q 381 88 368 88 q 424 40 424 88 q 368 -6 424 -6 q 296 3 357 -6 q 228 7 265 7 q 150 1 199 7 q 81 -6 89 -6 q 22 42 22 -6 q 67 86 22 86 q 92 82 74 86 q 129 78 111 78 q 172 158 171 78 l 175 313 l 175 481 l 172 529 q 160 594 169 576 q 129 611 151 611 q 101 608 119 611 q 72 604 82 604 q 22 649 22 604 q 85 694 22 694 q 99 693 93 694 l 150 688 q 189 690 172 688 q 226 693 225 693 q 267 651 267 693 z "},"o":{"ha":758,"x_min":53,"x_max":704,"o":"m 374 -24 q 140 77 228 -24 q 53 347 53 178 q 141 617 53 517 q 378 718 229 718 q 617 619 529 718 q 704 351 704 521 q 614 79 704 182 q 374 -24 524 -24 m 381 626 q 228 558 283 626 q 167 365 172 490 q 167 347 167 365 q 222 142 167 217 q 375 68 276 68 q 534 142 476 68 q 592 349 592 217 q 381 626 592 626 z "},"p":{"ha":833,"x_min":13,"x_max":781,"o":"m 265 654 l 265 610 q 478 718 343 718 q 699 622 617 718 q 781 363 781 526 q 694 81 781 186 q 461 -24 607 -24 q 265 61 340 -24 l 265 -54 q 268 -122 265 -107 q 308 -165 276 -165 q 338 -161 318 -165 q 367 -157 357 -157 q 411 -203 411 -157 q 353 -249 411 -249 q 290 -243 332 -249 q 199 -239 260 -239 q 143 -242 165 -239 q 69 -249 88 -249 q 29 -234 46 -249 q 13 -200 13 -219 q 60 -156 13 -156 q 86 -160 68 -156 q 121 -165 110 -165 q 153 -138 147 -165 q 161 13 160 -111 l 163 549 q 126 613 161 613 q 97 608 117 613 q 65 603 76 603 q 14 649 14 603 q 75 693 14 693 q 108 692 90 693 q 160 689 143 689 q 196 691 172 689 q 231 693 219 693 q 265 654 265 693 m 286 485 q 272 353 274 431 q 271 332 272 347 q 271 313 271 319 q 286 177 271 219 q 347 101 301 135 q 458 68 392 68 q 613 141 558 68 q 668 349 668 214 q 471 626 668 626 q 352 586 404 626 q 286 485 300 546 z "},"q":{"ha":783,"x_min":54,"x_max":807,"o":"m 554 -7 l 554 56 q 363 -24 476 -24 q 139 78 224 -24 q 54 350 54 181 q 135 619 54 519 q 356 718 217 718 q 571 614 485 718 q 568 640 568 642 q 615 700 568 700 q 663 628 663 700 q 663 599 663 599 l 657 433 l 657 168 l 661 -31 q 671 -141 663 -115 q 707 -167 679 -167 q 740 -160 706 -167 q 763 -157 754 -157 q 807 -203 807 -157 q 756 -249 807 -249 q 681 -244 731 -249 q 606 -240 631 -240 q 531 -244 581 -240 q 458 -249 482 -249 q 407 -203 407 -249 q 454 -158 407 -158 q 499 -164 471 -158 q 517 -167 513 -167 q 553 -97 547 -167 q 554 -7 554 -89 m 553 311 q 553 350 553 350 q 540 483 550 443 q 467 592 522 551 q 361 626 419 626 q 218 554 269 626 q 167 353 167 482 q 219 143 167 218 q 367 68 272 68 q 490 113 438 68 q 550 226 542 158 q 553 311 553 250 z "},"r":{"ha":682,"x_min":21,"x_max":675,"o":"m 264 654 l 264 617 q 457 718 336 718 q 615 663 554 718 q 675 522 675 608 q 644 423 675 461 q 564 385 614 385 q 510 404 532 385 q 488 451 488 424 q 504 491 488 474 q 543 508 521 508 q 561 504 547 508 q 569 535 569 521 q 534 603 569 575 q 446 631 499 631 q 301 533 338 631 q 279 353 279 474 l 279 261 q 281 157 279 168 q 324 78 288 78 q 361 83 342 78 q 388 88 376 88 q 432 43 432 88 q 375 -6 432 -6 l 369 -6 q 306 -1 349 -6 q 243 4 264 4 q 156 1 188 4 l 78 -6 q 21 43 21 -6 q 74 86 21 86 q 94 85 88 86 l 115 81 q 135 78 129 78 q 172 142 169 78 l 175 213 l 171 528 q 129 610 167 610 q 99 606 118 610 q 68 601 79 601 q 22 646 22 601 q 82 694 22 694 q 124 691 96 694 q 165 688 151 688 q 201 690 176 688 q 228 693 213 693 q 264 654 264 693 z "},"s":{"ha":683,"x_min":60,"x_max":633,"o":"m 347 718 q 503 669 440 718 l 503 675 q 547 726 503 726 q 593 682 593 726 q 590 640 593 674 q 585 585 585 613 q 590 536 585 568 q 594 488 594 504 q 549 435 594 435 q 503 479 504 435 l 501 525 q 453 597 500 567 q 344 626 407 626 q 238 594 281 626 q 194 513 194 561 q 317 407 194 424 l 397 396 q 633 200 633 364 q 557 38 633 100 q 357 -24 481 -24 q 157 42 242 -24 q 158 15 158 28 q 111 -35 158 -35 q 60 22 60 -35 q 68 94 60 13 q 71 133 71 114 q 65 196 71 167 q 60 242 60 225 q 104 290 60 290 q 141 276 133 290 q 150 203 149 263 q 213 106 151 143 q 368 68 274 68 q 481 103 436 68 q 525 190 525 138 q 375 300 525 285 q 157 356 232 315 q 82 500 82 397 q 156 658 82 597 q 347 718 229 718 z "},"t":{"ha":556,"x_min":10,"x_max":538,"o":"m 436 192 l 439 281 q 489 338 440 338 q 538 274 538 338 q 499 63 538 122 q 325 -18 446 -18 q 167 53 214 -18 q 132 228 132 104 l 132 561 q 106 590 132 590 l 61 590 q 24 605 39 590 q 10 640 10 619 q 24 675 10 660 q 57 690 39 690 l 111 690 q 135 717 135 690 l 135 860 q 189 913 135 913 q 239 860 239 913 l 239 711 q 264 690 239 690 l 415 690 q 468 642 468 690 q 411 590 468 590 l 258 590 q 239 561 239 590 l 239 219 q 335 74 239 74 q 436 192 432 74 z "},"u":{"ha":860,"x_min":0,"x_max":856,"o":"m 621 35 l 621 78 q 403 -24 547 -24 q 175 78 239 -24 q 144 182 147 122 q 143 304 143 211 l 143 419 q 103 610 143 610 q 76 606 94 610 q 49 603 58 603 q 0 649 0 603 q 60 693 0 693 q 101 690 74 693 q 142 688 128 688 q 185 692 154 688 q 208 694 206 694 q 251 642 251 694 l 251 613 l 250 522 l 246 419 l 246 329 q 265 156 246 208 q 418 68 297 68 q 524 95 478 68 q 588 167 569 122 q 610 372 610 221 l 610 449 q 610 539 610 532 q 574 606 603 606 q 549 603 558 606 l 532 603 q 483 646 483 603 q 538 694 483 694 q 576 692 550 694 q 614 689 601 689 q 647 691 625 689 q 681 693 669 693 q 722 649 722 693 q 719 618 722 629 q 713 463 713 565 l 713 249 q 714 154 713 164 q 753 81 721 81 q 781 84 763 81 q 808 88 799 88 q 856 42 856 88 q 797 -6 856 -6 q 761 -3 785 -6 q 718 1 726 1 q 689 -1 714 1 q 660 -6 672 -6 q 621 35 621 -6 z "},"v":{"ha":835,"x_min":-15,"x_max":849,"o":"m 261 529 l 424 96 l 581 529 q 594 579 594 568 q 565 610 594 610 q 533 605 554 610 q 500 600 511 600 q 454 646 454 600 q 521 694 454 694 q 532 694 524 694 q 543 693 539 693 l 601 685 q 642 682 621 682 q 733 689 669 682 q 789 693 772 693 q 849 647 849 693 q 800 601 849 601 q 778 604 785 601 q 749 608 757 608 q 697 542 724 608 l 501 42 q 417 -22 476 -22 q 335 42 360 -22 l 135 556 q 89 607 115 607 q 60 603 79 607 q 31 599 40 599 q -15 642 -15 599 q 49 692 -15 692 q 65 690 60 692 l 124 685 q 182 682 153 682 q 251 686 206 682 l 297 690 q 317 692 304 692 q 378 644 378 692 q 325 600 378 600 q 301 601 308 600 q 268 607 275 607 q 246 588 246 607 q 251 560 246 578 l 261 529 z "},"w":{"ha":1113,"x_min":-15,"x_max":1126,"o":"m 249 500 l 350 78 l 458 567 q 495 670 475 644 q 557 696 515 696 q 620 669 600 696 q 657 567 640 643 l 761 78 l 864 500 q 874 569 874 540 l 874 572 q 842 610 874 610 q 806 605 829 610 q 769 600 782 600 q 718 646 718 600 q 786 694 718 694 q 807 693 796 694 l 864 686 q 933 683 886 683 q 1006 688 971 683 l 1051 693 q 1067 694 1057 694 q 1126 647 1126 694 q 1081 601 1126 601 q 1057 604 1065 601 q 1032 607 1035 607 q 954 453 994 607 l 860 96 q 821 5 843 31 q 760 -21 799 -21 q 661 96 686 -21 l 557 590 l 449 104 q 410 6 433 35 q 346 -22 386 -22 q 258 64 281 -22 l 125 564 q 86 608 113 608 q 61 604 78 608 q 31 601 39 601 q -15 646 -15 601 q 47 694 -15 694 q 63 693 58 694 l 122 685 q 174 682 142 682 q 263 688 213 682 q 335 694 325 694 q 396 647 396 694 q 344 601 396 601 q 310 604 335 601 q 275 610 292 610 q 239 568 239 610 q 249 500 239 540 z "},"x":{"ha":885,"x_min":4,"x_max":867,"o":"m 179 139 l 372 360 l 179 588 q 132 610 160 610 q 115 608 121 610 l 92 603 q 72 601 86 601 q 26 646 26 601 q 83 693 26 693 l 88 693 q 157 688 89 693 q 215 685 192 685 q 283 689 239 685 q 350 693 328 693 q 407 646 407 693 q 354 601 407 601 q 333 604 343 601 l 313 610 l 304 610 q 299 607 299 610 q 311 588 301 599 l 438 435 l 569 588 q 582 607 582 601 q 575 610 581 610 q 552 606 568 610 q 528 601 536 601 q 478 649 478 601 q 536 694 478 694 q 610 688 533 694 q 675 685 640 685 q 749 689 710 685 q 804 693 788 693 q 865 646 865 693 q 818 600 865 600 q 786 606 807 600 q 754 611 765 611 q 663 544 721 611 l 501 361 l 718 106 q 765 82 738 82 q 791 85 774 82 q 817 88 808 88 q 867 43 867 88 q 808 -6 867 -6 l 797 -6 l 743 1 q 676 4 721 4 q 601 0 639 4 l 551 -6 l 536 -6 q 471 39 471 -6 q 522 88 471 88 q 574 82 540 88 q 583 81 576 81 q 597 92 597 81 q 593 100 597 96 l 589 106 l 435 286 l 278 106 q 268 89 268 94 q 282 82 268 82 q 311 85 292 82 q 340 88 331 88 q 400 39 400 88 q 340 -6 400 -6 l 321 -6 l 265 0 q 192 4 224 4 q 132 0 167 4 q 63 -6 85 -6 q 4 42 4 -6 q 54 88 4 88 q 79 85 63 88 q 104 83 96 83 q 179 139 131 83 z "},"y":{"ha":835,"x_min":-36,"x_max":853,"o":"m 272 561 l 432 92 l 601 554 q 608 585 608 574 q 576 608 608 608 q 550 606 560 608 q 521 603 528 603 q 475 647 475 603 q 535 694 475 694 q 563 692 543 694 l 613 685 q 654 682 632 682 q 724 688 678 682 q 793 693 769 693 q 853 647 853 693 q 807 603 853 603 q 786 606 793 603 q 761 610 768 610 q 707 539 735 610 l 518 67 q 400 -161 456 -90 q 164 -282 306 -282 q 22 -239 79 -282 q -36 -135 -36 -196 q -11 -65 -36 -92 q 54 -37 14 -37 q 107 -56 86 -37 q 128 -103 128 -75 q 88 -160 128 -147 q 167 -190 108 -190 q 299 -135 240 -190 q 358 -12 358 -81 q 321 117 358 22 l 168 503 q 151 547 168 503 q 97 610 128 610 q 67 606 89 610 q 39 601 46 601 q -10 646 -10 601 q 54 693 -10 693 q 86 692 75 693 l 142 685 q 153 685 143 685 q 169 683 163 683 q 276 689 219 683 q 333 693 319 693 q 392 647 392 693 q 339 601 392 601 q 313 605 331 601 q 286 608 294 608 q 267 589 267 608 q 272 561 267 578 z "},"z":{"ha":733,"x_min":49,"x_max":678,"o":"m 82 143 l 535 601 l 322 601 q 192 595 218 601 q 165 563 165 589 q 168 538 165 551 q 175 469 175 501 q 129 417 175 417 q 82 478 82 417 q 83 514 82 504 q 89 574 89 556 q 84 615 89 588 q 79 656 79 642 q 149 699 79 699 q 208 697 171 699 q 268 694 251 694 l 351 693 l 588 693 q 678 629 678 693 q 625 547 678 600 l 175 93 l 506 93 q 588 140 588 93 l 588 167 q 585 207 588 190 q 582 257 582 260 q 596 297 582 281 q 631 313 610 313 q 675 260 675 313 q 672 211 675 236 q 667 139 667 161 q 670 94 667 124 q 674 50 674 65 q 613 -3 674 -4 l 528 0 l 128 0 q 71 21 93 0 q 49 74 49 42 q 82 143 49 110 z "},"{":{"ha":694,"x_min":201,"x_max":515,"o":"m 382 501 q 364 399 382 433 q 297 339 346 365 q 363 277 344 314 q 382 175 382 240 l 382 -49 q 408 -149 382 -125 q 515 -174 435 -174 l 515 -261 l 475 -261 q 325 -215 369 -261 q 281 -57 281 -168 l 281 172 q 263 261 281 232 q 201 301 244 290 l 201 383 q 281 507 281 406 l 281 751 q 327 897 281 853 q 476 942 374 942 l 515 942 l 515 854 q 408 829 435 853 q 382 733 382 806 l 382 501 z "},"|":{"ha":694,"x_min":296,"x_max":399,"o":"m 296 -347 l 296 1042 l 399 1042 l 399 -347 l 296 -347 z "},"}":{"ha":694,"x_min":194,"x_max":508,"o":"m 328 179 q 346 281 328 246 q 413 342 364 315 q 347 403 365 367 q 328 506 328 440 l 328 729 q 301 830 328 806 q 194 854 275 854 l 194 942 l 233 942 q 384 895 339 942 q 429 738 429 849 l 429 508 q 508 379 429 399 l 508 297 q 429 174 429 275 l 429 -71 q 383 -217 429 -172 q 233 -261 338 -261 l 194 -261 l 194 -174 q 301 -149 275 -172 q 328 -53 328 -125 l 328 179 z "},"~":{"ha":926,"x_min":129,"x_max":797,"o":"m 313 908 q 189 808 244 908 l 129 847 q 215 972 172 936 q 319 1007 257 1007 q 475 960 372 1007 q 610 917 568 917 q 735 1010 679 917 l 797 974 q 597 818 719 818 q 481 849 549 818 l 403 883 q 313 908 347 908 z "},"Ä":{"ha":1036,"x_min":-11,"x_max":1047,"o":"m 726 157 l 676 293 q 659 321 668 315 q 622 326 650 326 l 375 326 q 337 317 347 326 q 310 264 326 307 l 269 157 q 264 128 264 142 q 318 83 264 83 q 358 86 332 83 q 396 89 383 89 q 453 40 453 89 q 390 -6 453 -6 q 360 -3 379 -6 l 290 7 q 226 10 271 10 q 158 7 178 10 l 100 -1 q 43 -7 61 -7 q -11 39 -11 -7 q 42 88 -11 88 q 58 86 53 88 l 76 86 q 133 115 114 86 q 161 181 142 126 l 419 879 q 507 938 442 938 q 592 879 571 938 l 840 190 q 883 104 864 125 q 939 83 903 83 q 956 85 950 83 q 994 88 994 88 q 1047 43 1047 88 q 994 -4 1047 -4 q 954 -1 979 -4 q 824 8 867 8 q 657 -3 772 8 q 613 -6 628 -6 q 557 42 557 -6 q 618 89 557 89 q 655 86 631 89 q 692 83 679 83 q 738 121 738 83 q 726 157 738 126 m 385 1018 q 321 1044 347 1018 q 294 1107 294 1069 q 321 1170 294 1144 q 385 1196 347 1196 q 447 1170 421 1196 q 474 1107 474 1144 q 447 1044 474 1069 q 385 1018 421 1018 m 635 1018 q 571 1044 597 1018 q 544 1107 544 1071 q 571 1169 544 1143 q 635 1196 597 1196 q 697 1170 671 1196 q 724 1107 724 1144 q 697 1044 724 1071 q 635 1018 671 1018 m 626 440 l 501 824 l 374 440 q 371 431 371 432 q 392 418 371 418 l 613 418 q 629 429 629 418 q 626 440 629 432 z "},"Å":{"ha":1036,"x_min":-11,"x_max":1047,"o":"m 726 157 l 676 293 q 659 321 668 315 q 622 326 650 326 l 375 326 q 337 317 347 326 q 310 264 326 307 l 269 157 q 264 128 264 142 q 318 83 264 83 q 358 86 332 83 q 396 89 383 89 q 453 40 453 89 q 390 -6 453 -6 q 360 -3 379 -6 l 290 7 q 226 10 271 10 q 158 7 178 10 l 100 -1 q 43 -7 61 -7 q -11 39 -11 -7 q 42 88 -11 88 q 58 86 53 88 l 76 86 q 133 115 114 86 q 161 181 142 126 l 419 879 q 507 938 442 938 q 592 879 571 938 l 840 190 q 883 104 864 125 q 939 83 903 83 q 956 85 950 83 q 994 88 994 88 q 1047 43 1047 88 q 994 -4 1047 -4 q 954 -1 979 -4 q 824 8 867 8 q 657 -3 772 8 q 613 -6 628 -6 q 557 42 557 -6 q 618 89 557 89 q 655 86 631 89 q 692 83 679 83 q 738 121 738 83 q 726 157 738 126 m 507 988 q 410 1026 450 988 q 371 1121 371 1065 q 410 1216 371 1176 q 507 1256 450 1256 q 603 1217 564 1256 q 642 1121 642 1178 q 602 1026 642 1065 q 507 988 563 988 m 626 440 l 501 824 l 374 440 q 371 431 371 432 q 392 418 371 418 l 613 418 q 629 429 629 418 q 626 440 629 432 m 507 1190 q 458 1170 478 1190 q 438 1121 438 1150 q 458 1073 438 1093 q 507 1053 479 1053 q 555 1073 535 1053 q 575 1121 575 1093 q 555 1170 575 1150 q 507 1190 535 1190 z "},"Ç":{"ha":885,"x_min":53,"x_max":832,"o":"m 469 957 q 721 839 624 957 l 719 854 q 719 869 719 861 q 718 879 718 878 q 715 907 715 910 q 760 954 715 954 q 807 896 807 954 q 801 829 807 885 q 794 733 794 760 q 799 657 794 696 l 804 604 l 804 590 q 754 528 804 528 q 701 588 700 528 l 703 638 q 640 800 706 738 q 469 863 575 863 q 254 757 332 863 q 176 465 176 651 q 256 169 176 275 q 479 63 336 63 q 619 100 557 63 q 706 199 681 138 q 722 307 722 239 q 775 371 722 371 q 832 307 832 371 q 708 46 832 143 q 474 -31 621 -24 l 451 -92 q 508 -86 490 -86 q 605 -119 567 -86 q 643 -200 643 -151 q 593 -292 643 -256 q 465 -329 543 -329 q 349 -305 400 -329 q 297 -250 297 -281 q 325 -218 297 -218 q 347 -226 335 -218 l 369 -242 q 468 -267 406 -267 q 550 -206 550 -267 q 476 -150 550 -150 q 431 -158 460 -150 q 389 -167 403 -167 q 369 -143 369 -167 q 379 -106 369 -129 l 411 -28 q 149 121 244 -8 q 53 453 53 250 q 167 818 53 679 q 469 957 282 957 z "},"É":{"ha":935,"x_min":26,"x_max":849,"o":"m 207 742 q 136 844 207 844 q 107 842 117 844 q 69 838 85 838 q 39 851 51 838 q 26 883 26 864 q 85 932 26 932 q 106 931 86 932 q 300 917 314 917 q 314 917 314 917 l 649 926 q 721 931 658 926 q 761 932 743 932 q 833 868 833 932 q 828 797 833 857 q 824 715 824 753 q 826 647 824 667 q 832 588 832 607 q 782 535 832 535 q 732 608 732 535 l 732 681 q 683 818 732 797 q 497 833 647 833 q 381 829 399 833 q 321 746 321 814 l 321 683 q 321 653 321 672 q 319 625 319 633 l 319 607 q 344 543 319 551 q 378 540 354 540 l 435 540 q 522 600 522 540 q 518 643 522 617 q 514 690 514 669 q 564 746 514 746 q 614 686 614 746 q 604 600 614 675 q 596 488 596 536 q 601 389 596 460 q 608 340 603 378 q 613 292 613 310 q 563 242 613 242 q 514 300 514 242 q 517 344 514 315 q 521 389 521 374 q 442 449 521 449 l 379 449 q 330 435 339 449 q 321 375 321 421 l 321 289 q 322 229 321 267 q 324 168 324 183 q 346 99 325 113 q 418 89 361 89 l 607 89 q 719 113 689 89 q 750 204 750 138 q 748 266 750 225 q 746 328 746 307 q 796 390 746 390 q 849 326 849 390 q 846 250 849 301 q 843 174 843 199 q 845 116 843 154 q 847 58 847 78 q 783 -7 847 -7 q 735 -4 768 -7 q 674 -3 718 -3 q 565 0 683 -3 q 361 3 447 3 q 106 -6 231 3 q 93 -7 100 -6 q 85 -7 86 -7 q 26 43 26 -7 q 69 88 26 88 q 107 85 76 88 q 136 81 122 81 q 207 185 207 81 l 207 742 m 646 1140 q 594 1086 646 1108 l 382 994 q 363 990 372 990 q 328 1022 328 990 q 361 1064 328 1043 l 550 1182 q 594 1196 572 1196 q 646 1140 646 1196 z "},"Ñ":{"ha":1061,"x_min":25,"x_max":1047,"o":"m 411 869 l 785 93 l 785 653 q 783 772 785 761 q 714 844 771 844 q 681 841 703 844 q 647 838 658 838 q 616 851 629 838 q 603 882 603 864 q 665 932 603 932 q 683 931 678 932 l 746 922 q 824 917 788 917 q 919 925 860 917 q 968 932 940 928 q 978 933 971 932 q 988 933 983 933 q 1047 885 1047 933 q 992 838 1047 838 q 976 839 982 838 l 963 839 q 908 821 921 839 q 893 742 896 803 l 890 663 l 888 521 l 888 150 q 866 15 888 54 q 792 -24 844 -24 q 676 74 724 -24 l 313 831 l 313 185 q 383 81 313 81 q 417 84 394 81 q 450 88 439 88 q 494 42 494 88 q 432 -7 494 -7 q 424 -7 429 -7 q 414 -6 417 -6 l 357 3 q 268 10 310 10 q 175 3 232 10 l 107 -6 q 97 -7 104 -6 q 86 -7 90 -7 q 26 42 26 -7 q 71 85 26 85 q 108 82 78 85 q 138 78 124 78 q 208 182 208 78 l 208 279 l 210 401 l 210 521 l 208 740 q 136 844 208 844 q 108 842 126 844 q 69 838 82 838 q 25 883 25 838 q 85 932 25 932 q 107 931 93 932 q 214 924 176 924 q 276 928 235 924 q 339 932 318 932 q 396 903 382 932 l 411 869 m 483 1168 q 585 1147 524 1168 l 638 1129 q 685 1119 665 1119 q 744 1143 721 1119 l 765 1164 q 781 1171 772 1171 q 803 1149 803 1171 q 758 1065 803 1101 q 656 1029 714 1029 q 567 1047 621 1029 l 563 1049 q 456 1075 485 1075 q 392 1049 411 1075 l 379 1032 q 360 1019 369 1019 q 339 1043 339 1019 q 383 1130 339 1092 q 483 1168 426 1168 z "},"Ö":{"ha":910,"x_min":53,"x_max":857,"o":"m 453 -31 q 160 103 268 -31 q 53 464 53 236 q 161 826 53 694 q 460 957 269 957 q 749 829 642 957 q 857 483 857 701 q 748 108 857 247 q 453 -31 639 -31 m 331 1018 q 267 1044 293 1018 q 240 1107 240 1069 q 267 1170 240 1144 q 331 1196 293 1196 q 394 1170 368 1196 q 419 1107 419 1144 q 394 1044 419 1069 q 331 1018 368 1018 m 581 1018 q 518 1044 544 1018 q 492 1107 492 1071 q 518 1169 492 1143 q 581 1196 544 1196 q 644 1169 618 1196 q 669 1107 669 1143 q 643 1044 669 1071 q 581 1018 617 1018 m 456 857 q 249 754 322 857 q 175 465 175 651 q 249 173 175 276 q 454 69 322 69 q 659 177 583 69 q 735 469 735 285 q 663 756 735 656 q 456 857 590 857 z "},"Ü":{"ha":986,"x_min":14,"x_max":979,"o":"m 288 713 l 285 624 l 279 511 l 279 297 q 301 156 279 200 q 382 86 322 111 q 496 63 438 63 q 626 92 572 63 q 697 170 681 121 q 714 296 713 219 l 717 653 q 714 772 717 758 q 643 843 701 843 q 615 840 633 843 q 578 836 589 836 q 547 850 560 836 q 533 882 533 864 q 594 932 533 932 q 614 931 604 932 l 696 919 q 765 915 726 915 q 828 919 803 915 l 888 929 q 921 933 913 933 q 979 886 979 933 q 922 839 979 839 l 907 839 q 893 840 903 840 q 842 799 851 840 q 832 585 832 757 l 832 342 q 826 211 832 251 q 779 90 815 142 q 497 -31 696 -31 q 182 129 253 -31 q 160 281 160 178 q 164 428 160 331 q 168 576 168 526 l 168 650 q 167 764 168 751 q 113 840 157 840 q 103 840 110 840 q 90 838 96 839 q 72 838 85 838 q 14 885 14 838 q 67 932 14 932 q 114 928 89 932 q 240 917 182 917 q 378 929 300 917 q 414 932 394 932 q 471 885 471 932 q 422 838 471 838 q 389 841 411 838 q 356 844 367 844 q 296 797 311 844 q 288 713 289 776 m 378 1018 q 314 1044 340 1018 q 288 1107 288 1069 q 314 1170 288 1144 q 378 1196 340 1196 q 440 1170 414 1196 q 467 1107 467 1144 q 440 1044 467 1069 q 378 1018 414 1018 m 628 1018 q 564 1044 590 1018 q 538 1107 538 1071 q 564 1169 538 1143 q 628 1196 590 1196 q 690 1170 664 1196 q 717 1107 717 1144 q 690 1044 717 1069 q 628 1018 664 1018 z "},"á":{"ha":783,"x_min":42,"x_max":794,"o":"m 651 -18 q 511 81 538 -18 q 289 -24 440 -24 q 109 32 176 -24 q 42 181 42 88 q 140 350 42 296 q 205 377 178 371 q 314 393 232 383 q 466 428 431 406 q 501 510 501 450 q 462 599 501 567 q 351 632 422 632 q 235 597 289 632 q 214 568 214 583 q 226 554 214 563 q 246 507 246 540 q 226 461 246 479 q 175 443 206 443 q 115 468 139 443 q 90 529 90 493 q 167 663 90 607 q 354 718 244 718 q 607 475 607 718 l 607 194 q 610 115 607 128 q 657 67 618 67 q 706 156 706 67 l 706 224 q 749 268 706 268 q 794 201 794 268 l 794 194 l 793 115 q 651 -18 790 -18 m 524 924 q 475 868 524 889 l 276 782 q 258 778 260 778 q 229 811 229 778 q 258 847 229 829 l 433 957 q 475 971 456 971 q 524 924 524 971 m 497 258 l 499 357 q 434 318 468 329 q 313 299 400 307 q 154 182 154 283 q 192 99 154 129 q 296 68 231 68 q 442 119 389 68 q 497 258 496 169 z "},"à":{"ha":783,"x_min":42,"x_max":794,"o":"m 651 -18 q 511 81 538 -18 q 289 -24 440 -24 q 109 32 176 -24 q 42 181 42 88 q 140 350 42 296 q 205 377 178 371 q 314 393 232 383 q 466 428 431 406 q 501 510 501 450 q 462 599 501 567 q 351 632 422 632 q 235 597 289 632 q 214 568 214 583 q 226 554 214 563 q 246 507 246 540 q 226 461 246 479 q 175 443 206 443 q 115 468 139 443 q 90 529 90 493 q 167 663 90 607 q 354 718 244 718 q 607 475 607 718 l 607 194 q 610 115 607 128 q 657 67 618 67 q 706 156 706 67 l 706 224 q 749 268 706 268 q 794 201 794 268 l 794 194 l 793 115 q 651 -18 790 -18 m 229 971 q 269 957 247 971 l 444 847 q 474 811 474 829 q 444 778 474 778 q 426 782 443 778 l 229 868 q 181 921 181 889 q 229 971 181 971 m 497 258 l 499 357 q 434 318 468 329 q 313 299 400 307 q 154 182 154 283 q 192 99 154 129 q 296 68 231 68 q 442 119 389 68 q 497 258 496 169 z "},"â":{"ha":783,"x_min":42,"x_max":794,"o":"m 651 -18 q 511 81 538 -18 q 289 -24 440 -24 q 109 32 176 -24 q 42 181 42 88 q 140 350 42 296 q 205 377 178 371 q 314 393 232 383 q 466 428 431 406 q 501 510 501 450 q 462 599 501 567 q 351 632 422 632 q 235 597 289 632 q 214 568 214 583 q 226 554 214 563 q 246 507 246 540 q 226 461 246 479 q 175 443 206 443 q 115 468 139 443 q 90 529 90 493 q 167 663 90 607 q 354 718 244 718 q 607 475 607 718 l 607 194 q 610 115 607 128 q 657 67 618 67 q 706 156 706 67 l 706 224 q 749 268 706 268 q 794 201 794 268 l 794 194 l 793 115 q 651 -18 790 -18 m 517 801 l 363 874 l 207 801 q 158 785 171 785 q 131 808 131 785 q 161 843 131 821 l 335 967 q 363 976 351 976 q 389 967 375 976 l 564 843 q 586 828 574 836 q 594 811 593 822 l 594 808 q 567 785 594 785 q 517 801 553 785 m 497 258 l 499 357 q 434 318 468 329 q 313 299 400 307 q 154 182 154 283 q 192 99 154 129 q 296 68 231 68 q 442 119 389 68 q 497 258 496 169 z "},"ä":{"ha":783,"x_min":42,"x_max":794,"o":"m 651 -18 q 511 81 538 -18 q 289 -24 440 -24 q 109 32 176 -24 q 42 181 42 88 q 140 350 42 296 q 205 377 178 371 q 314 393 232 383 q 466 428 431 406 q 501 510 501 450 q 462 599 501 567 q 351 632 422 632 q 235 597 289 632 q 214 568 214 583 q 226 554 214 563 q 246 507 246 540 q 226 461 246 479 q 175 443 206 443 q 115 468 139 443 q 90 529 90 493 q 167 663 90 607 q 354 718 244 718 q 607 475 607 718 l 607 194 q 610 115 607 128 q 657 67 618 67 q 706 156 706 67 l 706 224 q 749 268 706 268 q 794 201 794 268 l 794 194 l 793 115 q 651 -18 790 -18 m 232 793 q 177 816 200 793 q 154 871 154 839 q 176 926 154 903 q 231 949 199 949 q 285 926 263 949 q 308 871 308 903 q 286 816 308 839 q 232 793 264 793 m 478 793 q 424 816 447 793 q 401 871 401 839 q 424 926 401 903 q 478 949 446 949 q 533 926 510 949 q 556 871 556 903 q 533 816 556 839 q 478 793 510 793 m 497 258 l 499 357 q 434 318 468 329 q 313 299 400 307 q 154 182 154 283 q 192 99 154 129 q 296 68 231 68 q 442 119 389 68 q 497 258 496 169 z "},"ã":{"ha":783,"x_min":42,"x_max":794,"o":"m 651 -18 q 511 81 538 -18 q 289 -24 440 -24 q 109 32 176 -24 q 42 181 42 88 q 140 350 42 296 q 205 377 178 371 q 314 393 232 383 q 466 428 431 406 q 501 510 501 450 q 462 599 501 567 q 351 632 422 632 q 235 597 289 632 q 214 568 214 583 q 226 554 214 563 q 246 507 246 540 q 226 461 246 479 q 175 443 206 443 q 115 468 139 443 q 90 529 90 493 q 167 663 90 607 q 354 718 244 718 q 607 475 607 718 l 607 194 q 610 115 607 128 q 657 67 618 67 q 706 156 706 67 l 706 224 q 749 268 706 268 q 794 201 794 268 l 794 194 l 793 115 q 651 -18 790 -18 m 281 942 q 375 922 317 942 l 425 906 q 468 897 450 897 q 524 919 500 897 l 543 938 q 558 944 550 944 q 578 924 578 944 q 536 847 578 881 q 442 813 494 813 q 354 831 410 813 q 254 856 276 856 q 194 831 214 856 l 183 817 q 165 804 174 804 q 147 825 147 804 q 188 907 147 872 q 281 942 228 942 m 497 258 l 499 357 q 434 318 468 329 q 313 299 400 307 q 154 182 154 283 q 192 99 154 129 q 296 68 231 68 q 442 119 389 68 q 497 258 496 169 z "},"å":{"ha":783,"x_min":42,"x_max":794,"o":"m 651 -18 q 511 81 538 -18 q 289 -24 440 -24 q 109 32 176 -24 q 42 181 42 88 q 140 350 42 296 q 205 377 178 371 q 314 393 232 383 q 466 428 431 406 q 501 510 501 450 q 462 599 501 567 q 351 632 422 632 q 235 597 289 632 q 214 568 214 583 q 226 554 214 563 q 246 507 246 540 q 226 461 246 479 q 175 443 206 443 q 115 468 139 443 q 90 529 90 493 q 167 663 90 607 q 354 718 244 718 q 607 475 607 718 l 607 194 q 610 115 607 128 q 657 67 618 67 q 706 156 706 67 l 706 224 q 749 268 706 268 q 794 201 794 268 l 794 194 l 793 115 q 651 -18 790 -18 m 356 764 q 265 801 303 764 q 226 890 226 839 q 265 981 226 943 q 356 1018 303 1018 q 446 981 408 1018 q 483 890 483 943 q 446 801 483 838 q 356 764 408 764 m 497 258 l 499 357 q 434 318 468 329 q 313 299 400 307 q 154 182 154 283 q 192 99 154 129 q 296 68 231 68 q 442 119 389 68 q 497 258 496 169 m 356 954 q 309 935 328 954 q 290 890 290 917 q 310 845 290 864 q 356 826 329 826 q 400 845 382 826 q 418 890 418 864 q 400 935 418 917 q 356 954 382 954 z "},"ç":{"ha":708,"x_min":54,"x_max":657,"o":"m 458 458 q 528 522 458 514 q 481 599 521 571 q 379 626 442 626 q 225 550 283 626 q 167 347 167 474 q 222 142 167 217 q 374 68 276 68 q 480 103 435 68 q 542 199 525 138 q 558 254 556 247 q 603 282 574 282 q 642 267 626 282 q 657 228 657 251 q 635 146 657 194 q 582 64 613 97 q 390 -24 518 -7 l 372 -67 q 408 -62 397 -62 q 494 -93 458 -62 q 529 -167 529 -124 q 485 -249 529 -215 q 375 -282 440 -282 q 274 -257 318 -282 q 229 -200 229 -232 q 239 -177 229 -187 q 260 -167 249 -167 q 285 -178 275 -167 l 300 -194 q 371 -221 324 -221 q 443 -168 443 -221 q 381 -119 443 -119 q 349 -125 365 -119 l 315 -136 q 300 -137 311 -137 q 282 -122 282 -137 q 289 -100 282 -117 l 322 -19 q 206 21 249 -7 q 54 339 54 121 q 144 615 54 511 q 382 718 233 718 q 567 658 493 718 q 640 504 640 597 q 612 419 640 453 q 539 386 583 386 q 481 407 504 386 q 458 458 458 428 z "},"é":{"ha":733,"x_min":54,"x_max":685,"o":"m 685 408 q 678 344 685 356 q 638 332 671 332 l 196 332 q 172 327 178 332 q 167 311 167 322 q 229 138 167 207 q 385 68 292 68 q 497 101 446 68 q 563 186 547 135 l 575 226 q 621 260 585 260 q 672 207 672 260 q 581 47 672 117 q 372 -24 489 -24 q 140 74 226 -24 q 54 338 54 172 q 146 613 54 507 q 385 718 238 718 q 600 631 515 718 q 685 408 685 543 m 526 924 q 476 868 526 890 l 279 782 q 261 778 263 778 q 232 811 232 778 q 261 847 232 829 l 436 957 q 478 971 458 971 q 526 924 526 971 m 181 444 q 211 425 181 425 l 543 425 q 572 444 572 425 q 517 572 572 518 q 386 626 461 626 q 244 570 308 626 q 181 444 181 514 z "},"è":{"ha":733,"x_min":54,"x_max":685,"o":"m 685 408 q 678 344 685 356 q 638 332 671 332 l 196 332 q 172 327 178 332 q 167 311 167 322 q 229 138 167 207 q 385 68 292 68 q 497 101 446 68 q 563 186 547 135 l 575 226 q 621 260 585 260 q 672 207 672 260 q 581 47 672 117 q 372 -24 489 -24 q 140 74 226 -24 q 54 338 54 172 q 146 613 54 507 q 385 718 238 718 q 600 631 515 718 q 685 408 685 543 m 268 971 q 308 957 286 971 l 485 847 q 513 811 513 831 q 483 778 513 778 q 465 782 482 778 l 268 868 q 219 921 219 889 q 234 956 219 942 q 268 971 249 971 m 181 444 q 211 425 181 425 l 543 425 q 572 444 572 425 q 517 572 572 518 q 386 626 461 626 q 244 570 308 626 q 181 444 181 514 z "},"ê":{"ha":733,"x_min":54,"x_max":685,"o":"m 685 408 q 678 344 685 356 q 638 332 671 332 l 196 332 q 172 327 178 332 q 167 311 167 322 q 229 138 167 207 q 385 68 292 68 q 497 101 446 68 q 563 186 547 135 l 575 226 q 621 260 585 260 q 672 207 672 260 q 581 47 672 117 q 372 -24 489 -24 q 140 74 226 -24 q 54 338 54 172 q 146 613 54 507 q 385 718 238 718 q 600 631 515 718 q 685 408 685 543 m 543 801 l 388 874 l 233 801 q 185 785 197 785 q 156 808 156 785 q 186 843 156 821 l 361 967 q 388 976 375 976 q 415 967 399 976 l 590 843 q 611 828 600 836 q 619 811 618 822 l 619 808 q 592 785 619 785 q 543 801 579 785 m 181 444 q 211 425 181 425 l 543 425 q 572 444 572 425 q 517 572 572 518 q 386 626 461 626 q 244 570 308 626 q 181 444 181 514 z "},"ë":{"ha":733,"x_min":54,"x_max":685,"o":"m 685 408 q 678 344 685 356 q 638 332 671 332 l 196 332 q 172 327 178 332 q 167 311 167 322 q 229 138 167 207 q 385 68 292 68 q 497 101 446 68 q 563 186 547 135 l 575 226 q 621 260 585 260 q 672 207 672 260 q 581 47 672 117 q 372 -24 489 -24 q 140 74 226 -24 q 54 338 54 172 q 146 613 54 507 q 385 718 238 718 q 600 631 515 718 q 685 408 685 543 m 264 793 q 210 816 233 793 q 188 871 188 839 q 210 926 188 903 q 264 949 232 949 q 319 926 296 949 q 342 871 342 903 q 319 816 342 839 q 264 793 296 793 m 511 793 q 458 816 481 793 q 435 871 435 839 q 457 926 435 903 q 511 949 479 949 q 566 926 543 949 q 589 871 589 903 q 566 816 589 839 q 511 793 543 793 m 181 444 q 211 425 181 425 l 543 425 q 572 444 572 425 q 517 572 572 518 q 386 626 461 626 q 244 570 308 626 q 181 444 181 514 z "},"í":{"ha":431,"x_min":22,"x_max":426,"o":"m 279 403 l 279 222 q 281 140 279 153 q 318 78 288 78 q 353 85 325 78 q 374 88 360 88 q 426 42 426 88 q 409 8 426 22 q 365 -6 392 -6 q 298 1 343 -6 q 231 7 253 7 q 150 1 194 7 q 78 -6 96 -6 q 22 42 22 -6 q 69 88 22 88 q 102 83 81 88 q 135 79 124 79 q 175 168 168 79 q 175 289 175 174 l 175 403 q 175 524 175 518 q 133 611 168 611 q 102 606 122 611 q 72 601 82 601 q 22 646 22 601 q 83 693 22 693 q 121 692 110 693 q 178 686 165 686 q 212 690 189 686 q 246 693 235 693 q 286 639 286 693 q 285 622 286 633 q 283 606 283 611 q 281 519 282 594 q 279 403 279 463 m 347 924 q 297 868 347 890 l 100 782 q 82 778 83 778 q 53 811 53 778 q 82 847 53 829 l 257 957 q 299 971 279 971 q 347 924 347 971 z "},"ì":{"ha":431,"x_min":22,"x_max":426,"o":"m 279 403 l 279 222 q 281 140 279 153 q 318 78 288 78 q 353 85 325 78 q 374 88 360 88 q 426 42 426 88 q 409 8 426 22 q 365 -6 392 -6 q 298 1 343 -6 q 231 7 253 7 q 150 1 194 7 q 78 -6 96 -6 q 22 42 22 -6 q 69 88 22 88 q 102 83 81 88 q 135 79 124 79 q 175 168 168 79 q 175 289 175 174 l 175 403 q 175 524 175 518 q 133 611 168 611 q 102 606 122 611 q 72 601 82 601 q 22 646 22 601 q 83 693 22 693 q 121 692 110 693 q 178 686 165 686 q 212 690 189 686 q 246 693 235 693 q 286 639 286 693 q 285 622 286 633 q 283 606 283 611 q 281 519 282 594 q 279 403 279 463 m 88 971 q 128 957 106 971 l 304 847 q 333 811 333 829 q 303 778 333 778 q 285 782 301 778 l 88 868 q 39 921 39 889 q 53 956 39 942 q 88 971 68 971 z "},"î":{"ha":429,"x_min":0,"x_max":426,"o":"m 279 403 l 279 222 q 281 140 279 153 q 318 78 288 78 q 353 85 325 78 q 374 88 360 88 q 426 42 426 88 q 409 8 426 22 q 365 -6 392 -6 q 298 1 343 -6 q 231 7 253 7 q 150 1 194 7 q 78 -6 96 -6 q 22 42 22 -6 q 69 88 22 88 q 102 83 81 88 q 135 79 124 79 q 175 168 168 79 q 175 289 175 174 l 175 403 q 175 524 175 518 q 133 611 168 611 q 102 606 122 611 q 72 601 82 601 q 22 646 22 601 q 83 693 22 693 q 121 692 110 693 q 178 686 165 686 q 212 690 189 686 q 246 693 235 693 q 286 639 286 693 q 285 622 286 633 q 283 606 283 611 q 281 519 282 594 q 279 403 279 463 m 336 801 l 201 874 l 67 801 q 24 785 36 785 q 0 808 0 785 q 25 843 0 822 l 178 967 q 201 976 190 976 q 225 967 211 976 l 376 843 q 403 808 403 821 q 379 785 403 785 q 336 801 367 785 z "},"ï":{"ha":431,"x_min":0,"x_max":426,"o":"m 279 403 l 279 222 q 281 140 279 153 q 318 78 288 78 q 353 85 325 78 q 374 88 360 88 q 426 42 426 88 q 409 8 426 22 q 365 -6 392 -6 q 298 1 343 -6 q 231 7 253 7 q 151 1 196 7 q 78 -6 97 -6 q 22 42 22 -6 q 69 88 22 88 q 102 83 81 88 q 135 79 124 79 q 175 168 168 79 q 175 289 175 174 l 175 403 q 175 524 175 518 q 133 611 168 611 q 102 606 122 611 q 72 601 82 601 q 22 646 22 601 q 83 693 22 693 q 121 692 110 693 q 178 686 165 686 q 212 690 189 686 q 246 693 235 693 q 286 639 286 693 q 283 579 286 617 q 281 519 281 536 q 279 403 279 463 m 78 793 q 23 816 46 793 q 0 871 0 839 q 23 926 0 903 q 78 949 46 949 q 133 926 110 949 q 156 871 156 903 q 133 816 156 839 q 78 793 110 793 m 325 793 q 270 816 293 793 q 247 871 247 839 q 270 926 247 903 q 325 949 293 949 q 380 926 357 949 q 403 871 403 903 q 380 816 403 839 q 325 793 357 793 z "},"ñ":{"ha":885,"x_min":22,"x_max":885,"o":"m 267 651 l 267 613 q 489 718 350 718 q 631 680 564 718 q 721 585 697 642 q 740 461 740 538 l 740 197 q 742 126 740 138 q 779 79 749 79 q 812 83 792 79 q 840 86 832 86 q 872 74 858 86 q 885 43 885 61 q 868 8 885 22 q 828 -6 851 -6 q 764 0 808 -6 q 681 6 719 6 q 621 3 644 6 q 547 -6 551 -6 q 492 43 492 -6 q 539 86 492 86 q 564 83 550 86 q 597 78 590 78 q 633 154 631 78 l 636 225 l 638 310 l 638 415 q 631 517 638 489 q 576 599 618 569 q 472 631 531 631 q 313 551 361 631 q 279 367 279 497 l 279 182 q 288 99 279 121 q 318 76 296 76 q 349 82 329 76 q 381 88 368 88 q 424 40 424 88 q 368 -6 424 -6 q 296 3 357 -6 q 228 7 265 7 q 150 1 199 7 q 81 -6 89 -6 q 22 42 22 -6 q 67 86 22 86 q 92 82 74 86 q 129 78 111 78 q 172 158 171 78 l 175 313 l 175 481 l 172 529 q 160 594 169 576 q 129 611 151 611 q 101 608 119 611 q 72 604 82 604 q 22 649 22 604 q 85 694 22 694 q 99 693 93 694 l 150 688 q 189 690 172 688 q 226 693 225 693 q 267 651 267 693 m 379 942 q 472 922 413 942 l 524 906 q 567 897 549 897 q 622 919 599 897 l 642 938 q 657 944 649 944 q 676 924 676 944 q 635 847 676 881 q 540 813 593 813 q 453 831 508 813 q 353 856 375 856 q 293 831 313 856 l 282 817 q 264 804 272 804 q 244 825 244 804 q 285 907 244 872 q 379 942 326 942 z "},"ó":{"ha":758,"x_min":53,"x_max":704,"o":"m 374 -24 q 140 77 228 -24 q 53 347 53 178 q 141 617 53 517 q 378 718 229 718 q 617 619 529 718 q 704 351 704 521 q 614 79 704 182 q 374 -24 524 -24 m 529 924 q 481 868 529 889 l 283 782 q 264 778 263 778 q 236 811 236 778 q 264 847 236 829 l 439 957 q 482 971 461 971 q 529 924 529 971 m 381 626 q 228 558 283 626 q 167 365 172 490 q 167 347 167 365 q 222 142 167 217 q 375 68 276 68 q 534 142 476 68 q 592 349 592 217 q 381 626 592 626 z "},"ò":{"ha":758,"x_min":53,"x_max":704,"o":"m 374 -24 q 140 77 228 -24 q 53 347 53 178 q 141 617 53 517 q 378 718 229 718 q 617 619 529 718 q 704 351 704 521 q 614 79 704 182 q 374 -24 524 -24 m 263 971 q 303 957 281 971 l 479 847 q 507 811 507 831 q 478 778 507 778 q 460 782 476 778 l 263 868 q 214 921 214 889 q 263 971 214 971 m 381 626 q 228 558 283 626 q 167 365 172 490 q 167 347 167 365 q 222 142 167 217 q 375 68 276 68 q 534 142 476 68 q 592 349 592 217 q 381 626 592 626 z "},"ô":{"ha":758,"x_min":53,"x_max":704,"o":"m 374 -24 q 140 77 228 -24 q 53 347 53 178 q 141 617 53 517 q 378 718 229 718 q 617 619 529 718 q 704 351 704 521 q 614 79 704 182 q 374 -24 524 -24 m 533 801 l 379 874 l 224 801 q 175 785 188 785 q 147 808 147 785 q 178 843 147 821 l 353 967 q 379 976 367 976 q 406 967 392 976 l 581 843 q 603 828 590 836 q 611 811 610 822 l 611 808 q 583 785 611 785 q 533 801 569 785 m 381 626 q 228 558 283 626 q 167 365 172 490 q 167 347 167 365 q 222 142 167 217 q 375 68 276 68 q 534 142 476 68 q 592 349 592 217 q 381 626 592 626 z "},"ö":{"ha":758,"x_min":53,"x_max":704,"o":"m 374 -24 q 140 77 228 -24 q 53 347 53 178 q 141 617 53 517 q 378 718 229 718 q 617 619 529 718 q 704 351 704 521 q 614 79 704 182 q 374 -24 524 -24 m 256 793 q 201 816 224 793 q 178 871 178 839 q 201 926 178 903 q 256 949 224 949 q 310 926 288 949 q 333 871 333 903 q 310 816 333 839 q 256 793 288 793 m 503 793 q 448 816 471 793 q 425 871 425 839 q 448 926 425 903 q 503 949 471 949 q 558 926 535 949 q 581 871 581 903 q 558 816 581 839 q 503 793 535 793 m 381 626 q 228 558 283 626 q 167 365 172 490 q 167 347 167 365 q 222 142 167 217 q 375 68 276 68 q 534 142 476 68 q 592 349 592 217 q 381 626 592 626 z "},"õ":{"ha":758,"x_min":53,"x_max":704,"o":"m 374 -24 q 140 77 228 -24 q 53 347 53 178 q 141 617 53 517 q 378 718 229 718 q 617 619 529 718 q 704 351 704 521 q 614 79 704 182 q 374 -24 524 -24 m 297 942 q 392 922 333 942 l 442 906 q 485 897 467 897 q 540 919 521 897 l 560 938 q 575 944 567 944 q 594 924 594 944 q 553 846 594 879 q 458 813 513 813 q 371 831 426 813 q 271 856 293 856 q 211 831 231 856 l 200 817 q 182 804 190 804 q 164 825 164 804 q 204 907 164 872 q 297 942 244 942 m 381 626 q 228 558 283 626 q 167 365 172 490 q 167 347 167 365 q 222 142 167 217 q 375 68 276 68 q 534 142 476 68 q 592 349 592 217 q 381 626 592 626 z "},"ú":{"ha":860,"x_min":0,"x_max":856,"o":"m 621 35 l 621 78 q 403 -24 547 -24 q 175 78 239 -24 q 144 182 147 122 q 143 304 143 211 l 143 419 q 103 610 143 610 q 76 606 94 610 q 49 603 58 603 q 0 649 0 603 q 60 693 0 693 q 101 690 74 693 q 142 688 128 688 q 185 692 154 688 q 208 694 206 694 q 251 642 251 694 l 251 613 l 250 522 l 246 419 l 246 329 q 265 156 246 208 q 418 68 297 68 q 524 95 478 68 q 588 167 569 122 q 610 372 610 221 l 610 449 q 610 539 610 532 q 574 606 603 606 q 549 603 558 606 l 532 603 q 483 646 483 603 q 538 694 483 694 q 576 692 550 694 q 614 689 601 689 q 647 691 625 689 q 681 693 669 693 q 722 649 722 693 q 719 618 722 629 q 713 463 713 565 l 713 249 q 714 154 713 164 q 753 81 721 81 q 781 84 763 81 q 808 88 799 88 q 856 42 856 88 q 797 -6 856 -6 q 761 -3 785 -6 q 718 1 726 1 q 689 -1 714 1 q 660 -6 672 -6 q 621 35 621 -6 m 599 924 q 549 868 599 890 l 351 782 q 333 778 335 778 q 304 811 304 778 q 333 847 304 829 l 508 957 q 550 971 531 971 q 599 924 599 971 z "},"ù":{"ha":860,"x_min":0,"x_max":856,"o":"m 621 35 l 621 78 q 403 -24 547 -24 q 175 78 239 -24 q 144 182 147 122 q 143 304 143 211 l 143 419 q 103 610 143 610 q 76 606 94 610 q 49 603 58 603 q 0 649 0 603 q 60 693 0 693 q 101 690 74 693 q 142 688 128 688 q 185 692 154 688 q 208 694 206 694 q 251 642 251 694 l 251 613 l 250 522 l 246 419 l 246 329 q 265 156 246 208 q 418 68 297 68 q 524 95 478 68 q 588 167 569 122 q 610 372 610 221 l 610 449 q 610 539 610 532 q 574 606 603 606 q 549 603 558 606 l 532 603 q 483 646 483 603 q 538 694 483 694 q 576 692 550 694 q 614 689 601 689 q 647 691 625 689 q 681 693 669 693 q 722 649 722 693 q 719 618 722 629 q 713 463 713 565 l 713 249 q 714 154 713 164 q 753 81 721 81 q 781 84 763 81 q 808 88 799 88 q 856 42 856 88 q 797 -6 856 -6 q 761 -3 785 -6 q 718 1 726 1 q 689 -1 714 1 q 660 -6 672 -6 q 621 35 621 -6 m 303 971 q 343 957 321 971 l 518 847 q 547 811 547 829 q 517 778 547 778 q 499 782 515 778 l 301 868 q 253 921 253 889 q 267 956 253 942 q 303 971 282 971 z "},"û":{"ha":860,"x_min":0,"x_max":856,"o":"m 621 35 l 621 78 q 403 -24 547 -24 q 175 78 239 -24 q 144 182 147 122 q 143 304 143 211 l 143 419 q 103 610 143 610 q 76 606 94 610 q 49 603 58 603 q 0 649 0 603 q 60 693 0 693 q 101 690 74 693 q 142 688 128 688 q 185 692 154 688 q 208 694 206 694 q 251 642 251 694 l 251 613 l 250 522 l 246 419 l 246 329 q 265 156 246 208 q 418 68 297 68 q 524 95 478 68 q 588 167 569 122 q 610 372 610 221 l 610 449 q 610 539 610 532 q 574 606 603 606 q 549 603 558 606 l 532 603 q 483 646 483 603 q 538 694 483 694 q 576 692 550 694 q 614 689 601 689 q 647 691 625 689 q 681 693 669 693 q 722 649 722 693 q 719 618 722 629 q 713 463 713 565 l 713 249 q 714 154 713 164 q 753 81 721 81 q 781 84 763 81 q 808 88 799 88 q 856 42 856 88 q 797 -6 856 -6 q 761 -3 785 -6 q 718 1 726 1 q 689 -1 714 1 q 660 -6 672 -6 q 621 35 621 -6 m 564 801 l 410 874 l 254 801 q 206 785 218 785 q 178 808 178 785 q 207 843 178 822 l 382 967 q 410 976 396 976 q 436 967 422 976 l 611 843 q 631 829 621 836 q 640 811 640 822 l 640 808 q 613 785 640 785 q 564 801 600 785 z "},"ü":{"ha":860,"x_min":0,"x_max":856,"o":"m 621 35 l 621 78 q 403 -24 547 -24 q 175 78 239 -24 q 144 182 147 122 q 143 304 143 211 l 143 419 q 103 610 143 610 q 76 606 94 610 q 49 603 58 603 q 0 649 0 603 q 60 693 0 693 q 101 690 74 693 q 142 688 128 688 q 185 692 154 688 q 208 694 206 694 q 251 642 251 694 l 251 613 l 250 522 l 246 419 l 246 329 q 265 156 246 208 q 418 68 297 68 q 524 95 478 68 q 588 167 569 122 q 610 372 610 221 l 610 449 q 610 539 610 532 q 574 606 603 606 q 549 603 558 606 l 532 603 q 483 646 483 603 q 538 694 483 694 q 576 692 550 694 q 614 689 601 689 q 647 691 625 689 q 681 693 669 693 q 722 649 722 693 q 719 618 722 629 q 713 463 713 565 l 713 249 q 714 154 713 164 q 753 81 721 81 q 781 84 763 81 q 808 88 799 88 q 856 42 856 88 q 797 -6 856 -6 q 761 -3 785 -6 q 718 1 726 1 q 689 -1 714 1 q 660 -6 672 -6 q 621 35 621 -6 m 288 793 q 233 816 256 793 q 210 871 210 839 q 233 926 210 903 q 288 949 256 949 q 342 926 319 949 q 365 871 365 903 q 342 816 365 839 q 288 793 319 793 m 535 793 q 480 816 503 793 q 457 871 457 839 q 480 926 457 903 q 535 949 503 949 q 590 926 567 949 q 613 871 613 903 q 590 816 613 839 q 535 793 567 793 z "},"†":{"ha":885,"x_min":144,"x_max":739,"o":"m 381 -78 l 411 615 l 274 583 q 228 579 256 579 q 144 640 144 579 q 229 704 144 704 q 276 700 264 704 l 411 674 l 379 825 q 375 867 375 844 q 442 957 375 957 q 510 867 510 957 q 504 825 510 851 l 472 674 l 608 700 q 656 704 621 704 q 739 640 739 704 q 657 578 739 578 q 611 583 635 578 l 474 615 l 508 -151 q 442 -229 508 -229 q 394 -208 413 -229 q 376 -151 376 -186 l 376 -147 l 381 -78 z "},"°":{"ha":694,"x_min":150,"x_max":544,"o":"m 347 544 q 208 601 265 544 q 150 738 150 657 q 208 873 150 817 q 347 929 265 929 q 487 873 429 929 q 544 738 544 817 q 487 601 544 657 q 347 544 429 544 m 347 865 q 255 828 293 865 q 217 738 217 790 q 255 647 217 685 q 347 608 293 608 q 440 647 401 608 q 478 738 478 685 q 440 828 478 790 q 347 865 401 865 z "},"¢":{"ha":885,"x_min":122,"x_max":761,"o":"m 632 642 q 589 711 628 682 q 494 744 550 740 l 494 208 q 604 257 571 217 q 653 372 626 285 q 706 414 667 414 q 745 397 729 414 q 761 356 761 381 q 711 228 761 293 q 593 138 661 163 q 494 111 558 125 l 494 -43 q 456 -82 494 -82 q 417 -43 417 -82 l 417 111 q 263 167 319 126 q 122 468 122 265 q 177 683 122 592 q 329 813 232 774 q 417 835 363 826 l 417 979 q 456 1018 417 1018 q 494 979 494 1018 l 494 838 q 618 808 568 828 q 714 733 676 785 q 751 625 751 682 q 720 538 751 574 q 643 503 689 503 q 588 524 610 503 q 565 575 565 544 q 582 622 565 603 q 621 642 599 642 l 632 642 m 417 208 l 417 744 q 242 471 242 708 q 288 284 242 353 q 417 208 333 215 z "},"£":{"ha":1011,"x_min":1,"x_max":1010,"o":"m 425 578 l 429 567 l 713 567 q 740 554 728 567 q 751 525 751 542 q 714 485 751 485 l 474 485 q 535 283 535 386 q 518 171 535 225 q 765 68 658 68 q 869 105 831 68 q 907 204 907 142 q 878 287 907 256 q 800 318 849 318 q 741 301 768 318 q 708 260 714 283 l 703 236 q 657 203 694 203 q 608 254 608 203 q 664 364 608 318 q 797 410 719 410 q 951 353 892 410 q 1010 206 1010 296 q 940 39 1010 107 q 771 -29 871 -29 q 582 19 665 -29 l 474 82 q 222 -31 375 -31 q 63 14 125 -31 q 1 128 1 58 q 59 247 1 200 q 206 293 117 293 q 429 221 299 293 q 435 268 435 253 q 364 461 435 328 l 351 485 l 147 485 q 106 525 106 485 q 146 567 106 567 l 304 567 q 274 696 274 635 q 355 884 274 811 q 565 957 436 957 q 751 900 678 957 q 825 757 825 843 q 801 682 825 713 q 740 651 776 651 q 691 672 711 651 q 671 719 671 692 q 710 775 671 757 q 721 788 721 781 q 696 824 721 804 q 564 868 640 868 q 432 822 483 868 q 381 701 381 775 q 394 639 381 667 l 425 578 m 224 61 q 383 135 329 61 q 199 200 283 200 q 133 182 160 200 q 107 136 107 164 q 140 82 107 103 q 224 61 172 61 z "},"§":{"ha":885,"x_min":161,"x_max":736,"o":"m 568 763 q 615 822 568 800 q 476 871 571 871 q 372 842 411 871 q 333 763 333 813 q 365 687 333 714 q 533 597 397 660 q 665 525 626 554 q 724 454 704 496 q 736 393 736 426 q 615 199 736 290 q 685 119 667 156 q 704 33 704 83 q 632 -126 704 -65 q 442 -186 560 -186 q 240 -127 319 -186 q 161 22 161 -68 q 187 104 161 74 q 256 135 213 135 q 313 111 289 135 q 338 56 338 88 q 289 -12 338 14 q 276 -26 276 -19 q 308 -64 276 -44 q 435 -99 367 -99 q 547 -65 504 -99 q 590 22 590 -32 q 567 90 590 64 q 483 147 544 117 l 375 200 q 240 278 278 247 q 171 410 171 335 q 292 603 171 511 q 218 749 218 672 q 286 900 218 843 q 468 957 354 957 q 649 906 576 957 q 721 782 721 856 q 698 719 721 743 q 639 694 675 694 q 588 713 608 694 q 568 763 568 732 m 478 499 q 358 557 401 533 l 350 549 q 288 435 288 486 q 318 368 288 396 q 439 297 349 340 q 549 240 489 274 q 622 367 622 306 q 592 433 622 406 q 478 499 561 461 z "},"•":{"ha":926,"x_min":272,"x_max":654,"o":"m 272 472 q 328 610 272 553 q 464 667 385 667 q 598 610 542 667 q 654 472 654 553 q 598 335 654 392 q 464 278 542 278 q 328 335 385 278 q 272 472 272 392 z "},"¶":{"ha":807,"x_min":29,"x_max":710,"o":"m 393 -136 l 304 -136 l 304 438 q 294 438 301 438 q 283 436 288 436 q 100 503 171 436 q 29 678 29 571 q 70 818 29 757 q 179 903 111 879 q 336 926 247 926 l 710 926 l 710 846 l 626 846 l 626 -136 l 538 -136 l 538 846 l 393 846 l 393 -136 z "},"ß":{"ha":885,"x_min":28,"x_max":838,"o":"m 596 -24 q 442 39 503 -24 q 397 -15 440 -15 q 350 46 350 -15 q 353 83 350 67 q 360 157 360 126 q 356 207 360 174 q 353 257 353 240 q 401 315 353 315 q 444 256 444 315 l 444 233 q 443 210 443 226 q 479 106 443 144 q 578 68 515 68 q 683 112 640 68 q 725 219 725 156 q 696 307 725 272 q 571 403 667 342 l 490 454 q 429 546 429 493 q 496 642 429 589 q 584 723 563 696 q 606 781 606 750 q 569 847 606 821 q 478 874 533 874 q 321 785 368 874 q 279 556 279 707 l 279 464 l 288 81 q 225 -6 289 -6 q 194 -1 214 -6 q 163 3 174 3 q 124 -1 150 3 q 88 -6 99 -6 q 28 42 28 -6 q 79 86 28 86 q 106 85 97 86 q 140 79 126 79 q 181 136 174 79 q 182 217 182 147 l 182 243 q 182 301 182 271 q 181 333 181 332 l 181 424 q 179 526 181 517 q 142 607 174 607 q 117 604 129 607 q 110 604 114 604 q 101 603 104 603 q 49 649 49 603 q 93 693 49 693 q 121 690 99 693 q 157 685 139 685 q 201 746 188 685 q 319 925 229 867 q 479 965 382 965 q 649 909 581 965 q 718 771 718 853 q 646 636 718 692 l 590 593 q 558 553 558 568 q 611 497 558 528 q 736 419 703 444 q 797 356 769 394 q 838 226 838 300 q 767 49 838 122 q 596 -24 696 -24 z "},"®":{"ha":694,"x_min":69,"x_max":625,"o":"m 347 1056 q 544 974 463 1056 q 625 778 625 893 q 544 582 625 664 q 347 500 463 500 q 151 582 233 500 q 69 778 69 664 q 151 974 69 893 q 347 1056 233 1056 m 347 542 q 515 611 446 542 q 583 778 583 681 q 515 945 583 876 q 347 1014 446 1014 q 181 945 250 1014 q 111 778 111 876 q 181 611 111 681 q 347 542 250 542 m 458 851 q 418 788 458 804 q 440 728 440 771 l 440 703 q 450 683 440 683 q 460 710 460 683 l 460 738 q 482 768 460 768 q 506 744 506 768 q 504 733 506 739 l 504 697 q 446 640 504 640 q 390 696 390 640 l 392 708 l 392 732 q 382 761 392 756 q 347 767 372 767 l 311 767 q 307 764 307 767 l 307 706 q 318 683 307 683 q 325 685 322 683 l 338 685 q 358 664 358 685 q 332 640 358 640 q 325 642 331 640 l 304 644 q 293 646 300 644 q 283 646 286 646 q 271 644 279 646 q 257 643 263 643 l 238 642 q 229 640 235 640 q 204 663 204 640 q 225 685 204 685 q 238 683 232 685 l 244 683 q 257 704 257 683 l 257 864 q 254 879 257 869 q 253 883 254 881 q 244 886 251 886 q 238 885 236 885 q 225 883 232 883 q 204 906 204 883 q 231 928 204 928 l 238 928 l 257 925 q 267 925 260 925 q 276 924 272 924 q 304 925 275 924 l 333 926 q 361 928 343 928 q 458 851 458 928 m 307 869 l 307 811 q 310 810 307 810 l 347 810 q 408 850 408 810 q 356 886 408 886 q 307 869 307 886 z "},"©":{"ha":1099,"x_min":56,"x_max":1043,"o":"m 549 957 q 899 813 754 957 q 1043 463 1043 668 q 898 114 1043 258 q 549 -31 753 -31 q 200 114 344 -31 q 56 463 56 258 q 200 813 56 668 q 549 957 344 957 m 549 39 q 845 163 722 39 q 968 463 968 288 q 845 763 968 639 q 549 888 722 888 q 252 763 375 888 q 129 463 129 639 q 252 163 129 288 q 549 39 375 39 m 551 758 q 703 699 649 758 q 701 708 701 701 q 700 725 700 715 q 732 757 700 757 q 765 718 765 757 q 763 679 765 706 q 758 622 758 639 q 761 578 758 610 l 764 546 q 764 538 764 546 q 728 496 764 496 q 692 536 692 496 l 692 567 q 653 659 692 624 q 551 694 615 694 q 422 633 469 694 q 375 464 375 571 q 423 293 375 354 q 556 232 471 232 q 704 371 703 232 q 742 414 704 414 q 782 369 782 414 q 716 224 782 281 q 549 167 650 167 q 360 246 431 167 q 289 457 289 325 q 361 675 289 592 q 551 758 433 758 z "},"™":{"ha":1256,"x_min":28,"x_max":1233,"o":"m 294 506 q 328 451 294 451 q 336 453 331 451 q 344 453 342 453 q 367 456 354 456 q 396 425 396 456 q 357 394 396 394 q 346 396 349 394 l 307 401 q 258 403 297 403 q 207 401 217 403 l 168 396 q 157 394 164 394 q 118 425 118 394 q 147 456 118 456 q 168 453 160 456 q 178 453 172 453 q 186 451 183 451 q 219 506 219 451 l 219 821 q 168 872 219 872 l 143 872 q 92 821 92 872 q 93 796 92 810 l 96 767 l 96 747 q 61 693 96 693 q 28 735 28 693 q 29 769 28 746 q 31 797 29 781 q 32 817 32 810 q 30 854 32 829 q 28 892 28 879 q 63 929 28 929 q 82 929 65 929 q 113 928 99 928 q 176 925 117 928 q 265 924 214 924 q 347 925 313 924 q 449 929 451 929 q 492 893 492 929 q 489 863 492 894 q 485 810 485 814 q 488 771 485 797 q 490 732 490 744 q 456 696 490 696 q 421 740 421 696 q 422 753 421 742 q 422 769 422 763 l 425 800 q 426 822 426 815 q 369 872 426 872 l 347 872 q 297 825 300 872 l 294 769 l 294 506 m 760 868 l 875 489 l 1003 894 q 1042 929 1014 929 l 1046 929 q 1081 926 1056 929 q 1119 922 1106 922 q 1156 924 1149 922 l 1183 929 l 1193 929 q 1233 897 1233 929 q 1204 868 1233 868 q 1183 871 1193 868 q 1175 872 1179 871 q 1167 872 1169 872 q 1132 818 1132 872 l 1132 507 q 1167 453 1132 453 q 1186 455 1174 453 q 1204 457 1199 457 q 1233 426 1233 457 q 1196 394 1233 394 q 1183 396 1189 394 l 1144 400 q 1093 403 1118 403 q 1024 397 1061 403 q 996 394 1006 394 q 963 425 963 394 q 999 456 963 456 l 1011 456 q 1031 453 1031 453 q 1055 479 1049 453 q 1063 586 1061 506 q 1064 661 1063 614 l 1065 731 l 1065 864 l 922 424 q 874 390 911 390 q 825 424 836 390 l 685 865 l 689 507 q 715 456 689 456 q 739 457 726 456 q 749 458 742 458 q 783 426 783 458 q 747 394 783 394 q 731 396 739 394 l 694 401 q 649 403 686 403 q 601 401 610 403 l 568 396 q 558 394 565 394 q 517 426 517 394 q 546 456 517 456 q 568 453 557 456 q 576 453 571 453 q 585 451 582 451 q 618 506 618 451 l 618 560 l 619 629 l 619 694 l 618 764 l 618 818 q 583 872 618 872 q 576 872 582 872 q 568 871 571 871 q 546 868 558 868 q 517 897 517 868 q 557 929 517 929 l 568 929 l 594 925 q 632 922 613 922 q 675 926 657 922 q 710 929 706 929 q 754 888 742 929 l 760 868 z "},"´":{"ha":683,"x_min":253,"x_max":547,"o":"m 547 924 q 499 868 547 889 l 300 782 q 282 778 283 778 q 253 811 253 778 q 282 847 253 829 l 457 957 q 499 971 479 971 q 547 924 547 971 z "},"¨":{"ha":682,"x_min":140,"x_max":542,"o":"m 218 793 q 163 816 186 793 q 140 871 140 839 q 163 926 140 903 q 218 949 186 949 q 272 926 250 949 q 294 871 294 903 q 272 816 294 839 q 218 793 250 793 m 465 793 q 410 816 433 793 q 388 871 388 839 q 410 926 388 903 q 465 949 433 949 q 519 926 497 949 q 542 871 542 903 q 519 816 542 839 q 465 793 496 793 z "},"≠":{"ha":694,"x_min":46,"x_max":649,"o":"m 46 617 l 378 617 l 454 772 l 538 772 l 463 617 l 649 617 l 649 524 l 421 524 l 360 397 l 649 397 l 649 304 l 317 304 l 242 147 l 157 147 l 232 304 l 47 304 l 47 397 l 275 397 l 336 524 l 46 524 l 46 617 z "},"Æ":{"ha":1415,"x_min":-67,"x_max":1328,"o":"m 374 369 l 338 308 l 296 233 l 258 171 q 232 128 250 157 q 224 115 229 124 q 218 100 218 106 q 244 85 218 85 q 274 88 256 85 q 301 92 292 92 q 356 43 356 92 q 299 -7 356 -7 q 260 -3 283 -7 q 147 10 188 10 q 36 -1 111 10 q -17 -7 -1 -7 q -67 40 -67 -7 q -15 88 -67 88 q 11 85 -7 88 q 38 82 29 82 q 97 122 64 82 l 117 146 l 583 886 q 646 925 608 925 q 690 924 664 925 q 838 921 742 921 l 900 921 q 1028 924 931 921 l 1247 932 q 1311 867 1311 929 q 1311 860 1311 865 q 1310 853 1310 856 l 1304 794 q 1300 711 1300 750 q 1303 656 1300 671 q 1308 593 1308 589 q 1258 539 1308 539 q 1208 610 1208 539 q 1210 632 1208 615 q 1210 661 1210 650 q 1211 694 1211 672 q 1174 816 1211 792 q 989 840 1138 840 q 839 835 871 840 q 799 799 807 829 q 794 740 794 786 l 794 543 q 801 518 794 524 q 829 513 807 513 l 929 513 q 1010 578 1010 513 q 1006 619 1010 592 q 1003 661 1003 647 q 1050 718 1003 718 q 1099 664 1099 718 q 1094 607 1099 636 q 1083 456 1083 528 q 1094 314 1083 393 q 1099 267 1099 285 q 1050 214 1099 214 q 1001 264 1001 214 q 1006 307 1001 282 q 1010 356 1010 332 q 928 422 1010 422 l 826 422 q 794 396 794 422 l 794 171 q 808 103 794 117 q 882 90 822 90 l 1063 90 q 1201 113 1169 90 q 1232 217 1232 136 q 1229 282 1232 253 l 1229 311 q 1278 390 1229 390 q 1328 332 1328 390 q 1324 248 1328 304 q 1321 164 1321 192 q 1322 126 1321 144 l 1326 74 q 1326 63 1326 74 q 1253 -7 1326 -7 q 1171 -3 1242 -7 q 819 4 1053 4 q 610 -1 683 4 q 536 -7 536 -7 q 478 42 478 -7 q 546 90 478 90 q 572 89 538 90 q 607 88 599 88 q 675 129 660 88 q 682 217 682 149 l 682 376 q 675 415 682 407 q 649 422 668 422 l 424 422 q 399 409 407 419 q 374 369 392 399 m 674 847 l 463 513 l 658 513 q 682 543 681 513 l 690 847 q 685 856 690 856 q 674 847 678 856 z "},"Ø":{"ha":910,"x_min":53,"x_max":857,"o":"m 458 957 q 639 917 551 957 l 688 1006 q 714 1024 697 1024 l 775 1024 q 788 1010 788 1024 q 786 1006 788 1008 l 714 867 q 797 750 772 797 q 857 467 857 635 q 749 104 857 239 q 460 -31 642 -31 q 265 11 358 -31 l 221 -75 q 194 -93 211 -93 l 129 -93 q 118 -82 118 -93 q 119 -75 118 -78 l 194 64 q 53 446 53 204 q 162 819 53 682 q 458 957 271 957 m 242 160 l 597 831 q 461 863 542 863 q 250 755 325 863 q 175 451 175 647 q 242 160 175 271 m 663 761 l 308 94 q 443 63 371 63 q 659 164 583 63 q 735 453 735 265 q 682 731 735 633 q 663 761 682 731 z "},"∞":{"ha":926,"x_min":25,"x_max":900,"o":"m 692 258 q 465 404 563 258 q 236 260 363 260 q 84 319 143 260 q 25 474 25 379 q 85 626 25 567 q 238 685 144 685 q 461 540 363 685 q 690 685 560 685 q 842 625 783 685 q 900 471 900 565 q 842 318 900 378 q 692 258 783 258 m 678 593 q 514 472 594 593 q 679 350 594 350 q 763 385 731 350 q 796 472 796 419 q 763 559 796 525 q 678 593 729 593 m 249 350 q 413 472 331 350 q 247 593 332 593 q 163 558 196 593 q 131 471 131 524 q 164 384 131 418 q 249 350 197 350 z "},"±":{"ha":694,"x_min":28,"x_max":667,"o":"m 28 481 l 28 575 l 296 575 l 296 826 l 399 826 l 399 575 l 667 575 l 667 481 l 393 481 l 393 231 l 296 231 l 296 481 l 28 481 m 28 75 l 28 169 l 667 169 l 667 75 l 28 75 z "},"≤":{"ha":694,"x_min":46,"x_max":649,"o":"m 46 569 l 649 842 l 649 746 l 156 525 l 647 304 l 649 208 l 46 481 l 46 569 m 46 167 l 649 167 l 649 75 l 46 75 l 46 167 z "},"≥":{"ha":694,"x_min":46,"x_max":649,"o":"m 649 481 l 46 208 l 46 304 l 539 525 l 47 746 l 46 842 l 649 569 l 649 481 m 649 75 l 46 75 l 46 167 l 649 167 l 649 75 z "},"¥":{"ha":986,"x_min":11,"x_max":974,"o":"m 108 354 l 428 354 l 365 469 l 108 469 q 65 508 65 469 q 108 549 65 549 l 322 549 l 203 767 q 174 815 181 807 q 126 838 154 838 q 98 836 117 838 q 69 835 79 835 q 11 882 11 835 q 65 932 11 932 q 121 926 88 932 q 235 915 186 915 q 286 918 272 915 q 340 928 293 919 q 381 932 364 932 q 438 883 438 932 q 371 836 438 836 q 357 838 368 836 q 336 838 346 838 q 322 839 331 839 q 306 829 306 839 q 313 808 306 822 l 497 447 l 685 808 q 692 829 692 822 q 674 843 692 843 q 653 842 663 843 q 600 835 632 835 q 544 883 544 835 q 599 932 544 932 q 640 928 617 932 q 751 917 703 917 q 872 928 800 917 q 919 932 899 932 q 974 885 974 932 q 922 839 974 839 q 892 841 903 839 q 863 843 881 843 q 817 824 833 843 q 788 779 807 815 l 660 549 l 904 549 q 940 508 940 549 q 904 469 940 469 l 617 469 l 553 354 l 904 354 q 940 314 940 354 q 904 275 940 275 l 550 275 l 550 251 q 553 143 550 160 q 621 81 565 81 q 655 84 632 81 q 689 88 678 88 q 732 43 732 88 q 669 -7 732 -7 q 661 -7 668 -7 q 651 -6 656 -6 l 575 4 q 490 10 532 10 q 406 4 446 10 l 335 -6 q 325 -7 332 -6 q 314 -7 318 -7 q 254 42 254 -7 q 299 88 254 88 q 331 84 310 88 q 364 81 353 81 q 419 108 407 81 q 435 229 432 135 l 436 275 l 108 275 q 65 314 65 275 q 108 354 65 354 z "},"µ":{"ha":694,"x_min":64,"x_max":628,"o":"m 165 -233 l 64 -233 l 64 665 l 165 665 l 165 289 q 182 163 165 206 q 242 92 199 119 q 342 64 286 64 q 492 150 439 64 q 526 301 526 207 l 526 665 l 628 665 l 628 0 l 528 0 l 528 118 q 339 -18 463 -18 q 165 85 231 -18 l 165 -233 z "},"μ":{"ha":694,"x_min":64,"x_max":628,"o":"m 165 -233 l 64 -233 l 64 665 l 165 665 l 165 289 q 182 163 165 206 q 242 92 199 119 q 342 64 286 64 q 492 150 439 64 q 526 301 526 207 l 526 665 l 628 665 l 628 0 l 528 0 l 528 118 q 339 -18 463 -18 q 165 85 231 -18 l 165 -233 z "},"∂":{"ha":694,"x_min":31,"x_max":647,"o":"m 299 778 q 106 840 213 825 l 119 931 q 315 882 240 914 q 579 635 490 808 q 647 342 647 501 q 562 83 647 182 q 338 -15 476 -15 q 121 77 211 -15 q 31 299 31 169 q 115 515 31 426 q 319 604 199 604 q 431 581 386 604 q 524 501 476 558 q 514 525 519 511 q 428 676 472 626 q 299 778 375 736 m 538 303 q 482 458 538 397 q 339 518 426 518 q 194 453 253 518 q 135 294 135 388 q 194 140 135 204 q 338 76 253 76 q 480 142 422 76 q 538 303 538 207 z "},"∑":{"ha":926,"x_min":39,"x_max":844,"o":"m 39 1042 l 831 1042 l 831 726 l 739 726 l 729 950 l 154 950 l 504 375 l 151 -256 l 742 -256 l 747 -32 l 844 -32 l 844 -347 l 39 -347 l 39 -243 l 383 375 l 39 939 l 39 1042 z "},"∏":{"ha":971,"x_min":51,"x_max":921,"o":"m 51 950 l 51 1042 l 921 1042 l 921 950 l 811 950 l 811 -256 l 921 -256 l 921 -347 l 593 -347 l 593 -256 l 707 -256 l 707 950 l 264 950 l 264 -256 l 376 -256 l 376 -347 l 51 -347 l 51 -256 l 161 -256 l 161 950 l 51 950 z "},"π":{"ha":807,"x_min":39,"x_max":769,"o":"m 244 0 l 142 0 l 142 613 l 39 613 l 39 704 l 769 704 l 769 613 l 667 613 l 667 0 l 565 0 l 565 613 l 244 613 l 244 0 z "},"∫":{"ha":694,"x_min":131,"x_max":564,"o":"m 213 -346 q 131 -332 167 -346 l 153 -242 q 215 -256 189 -256 q 281 -226 267 -256 q 294 -87 294 -197 l 296 764 q 302 917 296 878 q 332 985 308 956 q 469 1042 379 1042 q 564 1026 510 1042 l 542 936 q 479 950 506 950 q 416 924 431 950 q 400 807 401 897 l 399 738 l 399 -69 q 394 -213 399 -176 q 369 -278 389 -250 q 213 -346 324 -346 z "},"ª":{"ha":590,"x_min":96,"x_max":526,"o":"m 438 546 q 358 592 379 546 l 357 590 q 239 543 321 543 q 136 574 175 543 q 97 654 97 604 q 251 769 97 754 q 332 787 314 776 q 350 826 350 797 q 272 885 350 885 q 211 867 238 885 q 203 858 207 865 q 201 857 201 858 l 201 856 l 207 851 q 219 824 219 842 q 175 786 219 786 q 124 835 124 786 q 167 908 124 878 q 272 938 211 938 q 418 807 418 938 l 418 661 q 418 624 418 625 q 440 600 422 600 q 463 642 463 600 l 463 676 q 492 704 463 704 q 521 665 521 704 l 521 661 l 519 619 q 438 546 517 546 m 96 458 l 526 458 l 526 413 l 96 413 l 96 458 m 349 694 l 349 735 q 251 711 328 718 q 168 656 168 703 q 243 600 168 600 q 320 626 292 600 q 349 694 349 651 z "},"º":{"ha":590,"x_min":111,"x_max":479,"o":"m 292 543 q 160 597 210 543 q 111 740 111 650 q 160 884 111 831 q 294 938 210 938 q 430 885 381 938 q 479 742 479 832 q 428 598 479 653 q 292 543 376 543 m 111 458 l 478 458 l 478 413 l 111 413 l 111 458 m 296 881 q 182 750 188 881 q 182 740 182 750 q 211 638 182 675 q 292 600 240 600 q 407 742 407 600 q 296 881 407 881 z "},"Ω":{"ha":926,"x_min":39,"x_max":886,"o":"m 403 0 l 39 0 l 39 92 l 288 92 q 39 504 39 238 q 161 821 39 693 q 463 949 283 949 q 764 821 642 949 q 886 504 886 693 q 639 92 886 238 l 886 92 l 886 0 l 524 0 l 524 83 q 700 232 642 151 q 781 492 781 344 q 689 751 781 644 q 465 857 597 857 q 236 753 328 857 q 144 492 144 649 q 403 83 144 228 l 403 0 z "},"Ω":{"ha":926,"x_min":39,"x_max":886,"o":"m 403 0 l 39 0 l 39 92 l 288 92 q 39 504 39 238 q 161 821 39 693 q 463 949 283 949 q 764 821 642 949 q 886 504 886 693 q 639 92 886 238 l 886 92 l 886 0 l 524 0 l 524 83 q 700 232 642 151 q 781 492 781 344 q 689 751 781 644 q 465 857 597 857 q 236 753 328 857 q 144 492 144 649 q 403 83 144 228 l 403 0 z "},"æ":{"ha":1163,"x_min":42,"x_max":1115,"o":"m 528 658 q 579 581 558 632 q 822 718 676 718 q 1033 628 950 718 q 1115 397 1115 538 q 1079 328 1115 328 l 642 328 q 611 301 611 328 q 669 135 611 201 q 815 68 728 68 q 926 101 878 68 q 993 188 974 133 l 1004 219 q 1049 250 1015 250 q 1086 235 1071 250 q 1101 200 1101 221 q 1010 46 1101 115 q 807 -24 918 -24 q 561 114 644 -24 q 307 -24 485 -24 q 114 34 186 -24 q 42 189 42 92 q 73 299 42 246 q 156 378 104 351 q 392 421 238 421 l 476 421 q 504 428 499 421 q 510 461 510 435 q 465 586 510 540 q 342 632 419 632 q 235 603 279 632 q 214 576 214 589 q 219 565 214 574 q 238 518 238 539 q 215 467 238 488 q 161 447 193 447 q 103 470 126 447 q 81 529 81 493 q 160 662 81 606 q 344 718 239 718 q 528 658 460 718 m 622 440 q 654 421 622 421 l 969 421 q 1001 439 1001 421 q 947 570 1001 514 q 818 626 892 626 q 682 570 742 626 q 622 440 622 514 m 506 297 q 501 323 506 318 q 475 328 496 328 l 364 328 q 154 192 154 328 q 198 102 154 136 q 311 68 242 68 q 465 132 413 68 q 506 278 506 181 l 506 297 z "},"ø":{"ha":758,"x_min":53,"x_max":704,"o":"m 389 718 q 535 681 469 718 l 578 750 q 606 771 590 771 l 657 771 q 669 760 669 771 q 667 750 669 754 l 597 639 q 704 361 704 536 q 615 82 704 188 q 375 -24 525 -24 q 215 15 292 -24 l 163 -69 q 139 -90 150 -90 l 82 -90 q 72 -79 72 -90 q 75 -69 72 -72 l 153 60 q 53 322 53 174 q 147 608 53 497 q 389 718 240 718 m 215 140 l 483 608 q 394 629 435 629 q 226 548 288 629 q 165 326 165 467 q 215 140 165 218 m 542 561 l 269 90 q 372 65 319 65 q 537 147 476 65 q 597 368 597 228 q 542 561 597 489 z "},"¿":{"ha":833,"x_min":51,"x_max":746,"o":"m 443 718 q 504 692 479 718 q 529 631 529 667 q 504 569 529 594 q 443 543 479 543 q 382 569 407 543 q 357 631 357 594 q 382 692 357 667 q 443 718 407 718 m 643 -3 q 607 56 643 33 q 608 42 608 50 q 593 9 608 22 q 556 -4 578 -4 q 496 57 496 -4 q 528 124 496 97 q 607 151 560 151 q 707 110 668 151 q 746 6 746 69 q 647 -187 746 -112 q 393 -262 549 -262 q 144 -191 238 -262 q 51 0 51 -119 q 199 224 51 149 q 263 253 224 236 q 373 319 343 288 q 403 406 403 351 q 414 463 403 447 q 456 478 425 478 q 514 406 514 478 q 479 292 514 340 q 328 174 436 232 q 197 87 226 119 q 168 -4 168 54 q 231 -127 168 -81 q 396 -174 293 -174 q 572 -124 500 -174 q 643 -3 643 -75 z "},"¡":{"ha":582,"x_min":204,"x_max":378,"o":"m 290 718 q 352 692 326 718 q 378 631 378 667 q 352 569 378 594 q 290 543 326 543 q 229 569 254 543 q 204 631 204 594 q 229 692 204 667 q 290 718 254 718 m 342 -32 q 346 -161 343 -132 l 346 -187 q 288 -262 346 -262 q 229 -181 229 -262 l 229 -153 q 235 -32 231 -136 q 239 119 239 85 l 238 271 l 239 379 q 242 450 240 443 q 290 483 250 483 q 340 414 340 483 l 340 389 l 342 -32 z "},"¬":{"ha":694,"x_min":46,"x_max":649,"o":"m 649 0 l 546 0 l 546 279 l 46 279 l 46 371 l 649 371 l 649 0 z "},"√":{"ha":926,"x_min":0,"x_max":926,"o":"m 567 1149 l 926 1149 l 926 1057 l 654 1057 l 356 0 l 229 0 l 115 415 l 0 415 l 0 507 l 199 507 l 250 331 q 269 242 260 299 q 289 139 281 178 l 297 139 l 303 168 l 357 403 l 567 1149 z "},"ƒ":{"ha":885,"x_min":-37,"x_max":881,"o":"m 749 813 q 767 857 749 833 q 678 893 735 893 q 590 853 622 893 q 557 744 557 814 q 574 722 557 722 l 683 722 q 735 678 735 722 q 674 632 735 632 l 560 632 q 529 601 535 632 l 447 150 q 360 -112 415 -26 q 140 -235 281 -235 q 15 -199 67 -235 q -37 -111 -37 -162 q 36 -36 -37 -36 q 103 -97 103 -36 q 94 -131 103 -110 q 149 -146 125 -146 q 353 181 297 -146 l 425 615 q 414 632 425 632 l 378 632 q 331 678 331 632 q 374 722 331 722 l 417 722 q 450 753 444 722 l 457 793 q 667 972 488 972 q 819 931 757 972 q 881 828 881 889 q 861 776 881 796 q 811 756 842 756 q 749 813 749 756 z "},"≈":{"ha":694,"x_min":14,"x_max":681,"o":"m 196 578 q 74 478 129 578 l 14 517 q 204 676 88 676 q 351 631 258 676 q 493 586 444 586 q 619 679 564 586 l 681 643 q 481 488 604 488 q 365 518 433 488 l 288 553 q 196 578 232 578 m 196 344 q 74 246 128 344 l 14 285 q 204 444 88 444 q 360 397 256 444 q 493 353 457 353 q 619 447 564 353 l 681 411 q 481 254 604 254 q 365 286 438 254 l 288 321 q 196 344 235 344 z "},"⋲":{"ha":694,"x_min":14,"x_max":681,"o":"m 196 578 q 74 478 129 578 l 14 517 q 204 676 88 676 q 351 631 258 676 q 493 586 444 586 q 619 679 564 586 l 681 643 q 481 488 604 488 q 365 518 433 488 l 288 553 q 196 578 232 578 m 196 344 q 74 246 128 344 l 14 285 q 204 444 88 444 q 360 397 256 444 q 493 353 457 353 q 619 447 564 353 l 681 411 q 481 254 604 254 q 365 286 438 254 l 288 321 q 196 344 235 344 z "},"Δ":{"ha":926,"x_min":38,"x_max":888,"o":"m 888 0 l 38 0 l 407 926 l 517 926 l 888 0 m 463 803 l 185 93 l 740 93 l 463 803 z "},"∆":{"ha":926,"x_min":38,"x_max":888,"o":"m 888 0 l 38 0 l 407 926 l 517 926 l 888 0 m 463 803 l 185 93 l 740 93 l 463 803 z "},"«":{"ha":481,"x_min":60,"x_max":421,"o":"m 238 576 l 167 371 l 240 153 q 244 138 244 144 q 226 117 244 117 q 203 131 211 117 l 63 361 q 60 369 60 364 q 64 383 60 375 l 201 603 q 222 617 210 617 q 240 596 240 617 q 238 576 240 585 m 414 576 l 344 371 l 418 153 q 421 138 421 144 q 403 117 421 117 q 381 131 388 117 l 239 361 q 236 371 236 367 q 242 383 236 375 l 379 603 q 399 617 388 617 q 418 597 418 617 q 414 576 418 585 z "},"»":{"ha":481,"x_min":58,"x_max":421,"o":"m 239 153 l 313 371 l 243 576 q 240 596 240 582 q 258 617 240 617 q 278 603 269 617 l 417 383 q 421 371 421 375 q 418 361 421 367 l 276 131 q 254 117 269 117 q 236 138 236 117 q 239 153 236 144 m 63 153 l 136 371 l 65 576 q 63 596 63 585 q 81 617 63 617 q 101 603 93 617 l 239 383 q 244 371 244 375 q 240 361 244 365 l 100 131 q 78 117 92 117 q 58 138 58 117 q 63 153 58 140 z "},"…":{"ha":1136,"x_min":103,"x_max":1033,"o":"m 189 -24 q 128 2 153 -24 q 103 64 103 28 q 128 126 103 100 q 189 151 153 151 q 250 126 225 151 q 275 64 275 100 q 250 2 275 28 q 189 -24 225 -24 m 568 -24 q 507 2 532 -24 q 482 64 482 28 q 507 126 482 100 q 568 151 532 151 q 629 126 604 151 q 654 64 654 100 q 629 2 654 28 q 568 -24 604 -24 m 947 -24 q 886 2 911 -24 q 861 64 861 28 q 886 126 861 100 q 947 151 911 151 q 1008 126 983 151 q 1033 64 1033 100 q 1008 2 1033 28 q 947 -24 983 -24 z "}," ":{"ha":347,"x_min":0,"x_max":0,"o":""},"À":{"ha":1036,"x_min":-11,"x_max":1047,"o":"m 726 157 l 676 293 q 659 321 668 315 q 622 326 650 326 l 375 326 q 337 317 347 326 q 310 264 326 307 l 269 157 q 264 128 264 142 q 318 83 264 83 q 358 86 332 83 q 396 89 383 89 q 453 40 453 89 q 390 -6 453 -6 q 360 -3 379 -6 l 290 7 q 226 10 271 10 q 158 7 178 10 l 100 -1 q 43 -7 61 -7 q -11 39 -11 -7 q 42 88 -11 88 q 58 86 53 88 l 76 86 q 133 115 114 86 q 161 181 142 126 l 419 879 q 507 938 442 938 q 592 879 571 938 l 840 190 q 883 104 864 125 q 939 83 903 83 q 956 85 950 83 q 994 88 994 88 q 1047 43 1047 88 q 994 -4 1047 -4 q 954 -1 979 -4 q 824 8 867 8 q 657 -3 772 8 q 613 -6 628 -6 q 557 42 557 -6 q 618 89 557 89 q 655 86 631 89 q 692 83 679 83 q 738 121 738 83 q 726 157 738 126 m 404 1196 q 447 1182 425 1196 l 636 1064 q 671 1022 671 1042 q 636 990 671 990 q 615 994 625 990 l 403 1086 q 351 1140 351 1108 q 404 1196 351 1196 m 626 440 l 501 824 l 374 440 q 371 431 371 432 q 392 418 371 418 l 613 418 q 629 429 629 418 q 626 440 629 432 z "},"Ã":{"ha":1036,"x_min":-11,"x_max":1047,"o":"m 726 157 l 676 293 q 659 321 668 315 q 622 326 650 326 l 375 326 q 337 317 347 326 q 310 264 326 307 l 269 157 q 264 128 264 142 q 318 83 264 83 q 358 86 332 83 q 396 89 383 89 q 453 40 453 89 q 390 -6 453 -6 q 360 -3 379 -6 l 290 7 q 226 10 271 10 q 158 7 178 10 l 100 -1 q 43 -7 61 -7 q -11 39 -11 -7 q 42 88 -11 88 q 58 86 53 88 l 76 86 q 133 115 114 86 q 161 181 142 126 l 419 879 q 507 938 442 938 q 592 879 571 938 l 840 190 q 883 104 864 125 q 939 83 903 83 q 956 85 950 83 q 994 88 994 88 q 1047 43 1047 88 q 994 -4 1047 -4 q 954 -1 979 -4 q 824 8 867 8 q 657 -3 772 8 q 613 -6 628 -6 q 557 42 557 -6 q 618 89 557 89 q 655 86 631 89 q 692 83 679 83 q 738 121 738 83 q 726 157 738 126 m 431 1168 q 531 1147 468 1168 l 585 1129 q 631 1119 614 1119 q 692 1143 669 1119 l 711 1164 q 728 1171 718 1171 q 750 1149 750 1171 q 706 1065 750 1101 q 603 1029 661 1029 q 508 1049 565 1029 q 403 1075 431 1075 q 338 1049 356 1075 l 326 1032 q 306 1019 314 1019 q 286 1043 286 1019 q 330 1131 286 1093 q 431 1168 374 1168 m 626 440 l 501 824 l 374 440 q 371 431 371 432 q 392 418 371 418 l 613 418 q 629 429 629 418 q 626 440 629 432 z "},"Õ":{"ha":910,"x_min":53,"x_max":857,"o":"m 453 -31 q 160 103 268 -31 q 53 464 53 236 q 161 826 53 694 q 460 957 269 957 q 749 829 642 957 q 857 483 857 701 q 748 108 857 247 q 453 -31 639 -31 m 368 1168 q 468 1147 406 1168 l 522 1129 q 568 1119 551 1119 q 628 1143 604 1119 l 649 1164 q 665 1171 656 1171 q 686 1149 686 1171 q 642 1065 686 1101 q 540 1029 597 1029 q 446 1049 503 1029 q 340 1075 368 1075 q 275 1049 294 1075 l 263 1032 q 243 1019 253 1019 q 224 1043 224 1019 q 267 1131 224 1093 q 368 1168 311 1168 m 456 857 q 249 754 322 857 q 175 465 175 651 q 249 173 175 276 q 454 69 322 69 q 659 177 583 69 q 735 469 735 285 q 663 756 735 656 q 456 857 590 857 z "},"Œ":{"ha":1442,"x_min":51,"x_max":1354,"o":"m 447 951 q 722 825 613 951 q 714 855 719 836 q 708 892 708 874 q 726 920 708 908 q 768 932 743 932 q 838 929 786 932 q 929 926 889 926 l 1025 926 l 1151 928 q 1208 931 1169 928 q 1268 933 1247 933 q 1339 871 1339 933 q 1334 798 1339 846 q 1329 725 1329 750 q 1333 660 1329 703 q 1336 596 1336 618 q 1288 538 1336 538 q 1243 568 1253 538 q 1238 631 1238 585 l 1238 704 l 1239 721 q 1240 757 1240 743 q 1199 831 1240 815 q 1024 844 1163 844 l 931 844 q 844 827 865 844 q 824 756 824 810 l 824 600 q 842 549 824 558 q 883 543 853 543 l 950 543 q 1029 606 1029 543 q 1025 647 1029 626 q 1019 694 1019 675 q 1069 747 1019 747 q 1119 693 1119 747 q 1114 644 1119 683 q 1103 490 1103 568 q 1113 342 1103 404 q 1117 297 1117 315 q 1068 246 1117 246 q 1021 303 1021 246 q 1024 347 1021 318 q 1028 392 1028 376 q 954 453 1028 453 l 883 453 q 826 426 832 453 q 824 396 824 417 l 824 167 q 854 90 824 104 q 940 82 871 82 l 1088 82 q 1226 106 1194 82 q 1257 213 1257 131 q 1256 265 1257 231 q 1254 317 1254 300 q 1304 389 1254 389 q 1354 332 1354 389 q 1350 253 1354 306 q 1346 175 1346 201 q 1347 115 1346 132 l 1351 67 q 1351 58 1351 67 q 1286 -7 1351 -10 l 1219 -4 l 1125 -1 l 1025 3 l 928 0 q 818 -3 875 -1 q 754 -7 779 -7 q 703 35 703 -7 q 715 113 703 63 q 656 46 674 61 q 444 -26 575 -26 q 158 103 264 -26 q 51 456 51 233 q 158 817 51 682 q 447 951 265 951 m 453 858 q 249 754 324 858 q 175 468 175 650 q 249 174 175 281 q 451 68 322 68 q 647 173 578 68 q 717 471 717 278 q 648 757 717 656 q 453 858 579 858 z "},"œ":{"ha":1239,"x_min":53,"x_max":1192,"o":"m 876 -24 q 728 11 788 -24 q 619 126 668 46 q 371 -24 556 -24 q 138 74 224 -24 q 53 339 53 171 q 143 613 53 508 q 378 718 233 718 q 554 663 482 718 q 631 563 599 628 q 893 718 711 718 q 1111 630 1031 718 q 1192 392 1192 542 q 1156 329 1192 329 l 711 329 q 685 323 690 329 q 681 292 681 317 q 742 133 681 199 q 890 68 804 68 q 1004 103 950 68 q 1069 186 1058 139 l 1079 226 q 1125 258 1088 258 q 1178 203 1178 258 q 1117 74 1178 140 q 876 -24 1028 -24 m 697 443 q 728 422 697 422 l 1044 422 q 1071 426 1064 422 q 1078 450 1078 431 q 1024 575 1078 524 q 894 626 971 626 q 758 570 818 626 q 697 443 697 514 m 372 68 q 526 142 471 68 q 581 349 581 215 q 526 552 581 478 q 375 626 471 626 q 223 550 279 626 q 167 343 167 474 q 222 142 167 215 q 372 68 276 68 z "},"–":{"ha":694,"x_min":46,"x_max":649,"o":"m 46 415 l 46 510 l 649 510 l 649 415 l 46 415 z "},"—":{"ha":1061,"x_min":50,"x_max":1013,"o":"m 50 371 q 106 419 50 419 l 957 419 q 1013 372 1013 419 q 957 322 1013 322 l 106 322 q 50 371 50 322 z "},"“":{"ha":607,"x_min":78,"x_max":538,"o":"m 413 768 q 439 744 413 746 l 467 743 q 516 717 494 742 q 538 660 538 692 q 510 594 538 621 q 440 568 482 568 q 360 606 392 568 q 329 704 329 644 q 417 932 329 815 q 472 975 449 975 q 499 947 499 975 q 483 917 499 936 q 421 804 446 869 q 413 768 413 782 m 160 768 q 186 744 160 746 l 214 743 q 265 717 243 742 q 286 660 286 692 q 258 594 286 621 q 189 568 231 568 q 109 606 140 568 q 78 704 78 644 q 165 932 78 815 q 221 975 197 975 q 247 947 247 975 q 232 917 247 936 q 182 836 204 882 q 160 768 160 790 z "},"”":{"ha":607,"x_min":69,"x_max":529,"o":"m 194 775 q 168 799 194 797 l 140 800 q 91 826 113 801 q 69 883 69 850 q 97 949 69 922 q 167 975 125 975 q 245 937 214 975 q 276 839 276 899 q 190 611 276 725 q 135 568 158 568 q 107 596 107 568 q 122 626 107 607 q 172 707 150 661 q 194 775 194 753 m 446 775 q 421 799 446 797 l 393 800 q 342 826 364 801 q 321 883 321 850 q 349 949 321 922 q 418 975 376 975 q 498 937 467 975 q 529 839 529 899 q 442 611 529 726 q 386 568 408 568 q 360 596 360 568 q 375 626 360 607 q 424 707 401 661 q 446 775 446 753 z "},"‘":{"ha":354,"x_min":76,"x_max":285,"o":"m 160 768 q 186 744 160 746 l 214 743 q 264 717 243 742 q 285 660 285 692 q 258 594 285 619 q 189 568 231 568 q 108 606 140 568 q 76 704 76 644 q 164 932 76 818 q 219 975 197 975 q 247 947 247 975 q 232 917 247 936 q 168 804 192 867 q 160 768 160 782 z "},"’":{"ha":356,"x_min":69,"x_max":276,"o":"m 194 775 q 168 799 194 797 l 140 800 q 91 826 113 801 q 69 883 69 850 q 97 949 69 922 q 167 975 125 975 q 245 937 214 975 q 276 839 276 899 q 190 611 276 724 q 135 568 157 568 q 107 596 107 568 q 124 626 107 606 q 172 707 150 661 q 194 775 194 753 z "},"÷":{"ha":694,"x_min":46,"x_max":649,"o":"m 278 715 q 298 765 278 744 q 347 785 318 785 q 395 764 375 785 q 415 715 415 743 q 395 667 415 688 q 347 646 375 646 q 299 667 319 646 q 278 715 278 688 m 278 210 q 299 258 278 238 q 347 279 319 279 q 395 258 375 279 q 415 210 415 238 q 395 162 415 182 q 347 142 375 142 q 299 162 319 142 q 278 210 278 182 m 46 415 l 46 510 l 649 510 l 649 415 l 46 415 z "},"◊":{"ha":926,"x_min":103,"x_max":824,"o":"m 103 464 l 463 963 l 824 464 l 463 -36 l 103 464 m 736 464 l 463 839 l 189 464 l 463 88 l 736 464 z "},"ÿ":{"ha":835,"x_min":-36,"x_max":853,"o":"m 272 561 l 432 92 l 601 554 q 608 585 608 574 q 576 608 608 608 q 550 606 560 608 q 521 603 528 603 q 475 647 475 603 q 535 694 475 694 q 563 692 543 694 l 613 685 q 654 682 632 682 q 724 688 678 682 q 793 693 769 693 q 853 647 853 693 q 807 603 853 603 q 786 606 793 603 q 761 610 768 610 q 707 539 735 610 l 518 67 q 400 -161 456 -90 q 164 -282 306 -282 q 22 -239 79 -282 q -36 -135 -36 -196 q -11 -65 -36 -92 q 54 -37 14 -37 q 107 -56 86 -37 q 128 -103 128 -75 q 88 -160 128 -147 q 167 -190 108 -190 q 299 -135 240 -190 q 358 -12 358 -81 q 321 117 358 22 l 168 503 q 151 547 168 503 q 97 610 128 610 q 67 606 89 610 q 39 601 46 601 q -10 646 -10 601 q 54 693 -10 693 q 86 692 75 693 l 142 685 q 153 685 143 685 q 169 683 163 683 q 276 689 219 683 q 333 693 319 693 q 392 647 392 693 q 339 601 392 601 q 313 605 331 601 q 286 608 294 608 q 267 589 267 608 q 272 561 267 578 m 308 793 q 253 816 276 793 q 231 871 231 839 q 253 926 231 903 q 308 949 276 949 q 363 926 340 949 q 385 871 385 903 q 363 816 385 839 q 308 793 340 793 m 556 793 q 501 816 524 793 q 478 871 478 839 q 501 926 478 903 q 556 949 524 949 q 610 926 588 949 q 632 871 632 903 q 609 816 632 839 q 556 793 586 793 z "},"Ÿ":{"ha":1011,"x_min":-19,"x_max":1032,"o":"m 451 276 q 451 303 451 282 q 450 340 450 325 l 181 767 q 147 815 154 808 q 96 836 126 836 q 71 835 79 836 q 58 835 67 835 q 44 833 49 833 q -19 882 -19 833 q 36 932 -19 932 q 92 926 58 932 q 217 915 158 915 q 346 928 260 915 q 396 932 375 932 q 453 883 453 932 q 385 836 453 836 l 371 838 l 336 838 l 308 839 q 292 828 292 840 q 293 820 292 822 q 300 808 294 818 l 513 447 l 728 808 q 735 831 735 819 q 717 843 735 843 l 714 843 l 689 842 l 653 838 q 617 835 629 835 q 560 883 560 835 q 615 932 560 932 q 665 928 636 932 q 800 917 743 917 q 932 928 860 917 q 979 932 960 932 q 1032 883 1032 932 q 981 839 1032 839 q 949 842 960 839 q 918 844 926 844 q 860 811 882 844 l 839 779 l 565 350 l 565 292 q 577 115 565 150 q 636 81 589 81 q 670 84 647 81 q 704 88 693 88 q 747 43 747 88 q 685 -7 747 -7 q 676 -7 683 -7 q 667 -6 671 -6 l 590 4 q 506 10 547 10 q 421 4 461 10 l 350 -6 q 342 -7 347 -6 q 332 -7 335 -7 q 269 42 269 -7 q 314 88 269 88 q 347 84 325 88 q 379 81 368 81 q 450 154 438 81 q 451 276 451 167 m 382 1018 q 318 1044 344 1018 q 292 1107 292 1069 q 318 1170 292 1144 q 382 1196 344 1196 q 445 1170 419 1196 q 471 1107 471 1144 q 444 1044 471 1069 q 382 1018 418 1018 m 632 1018 q 569 1044 594 1018 q 543 1107 543 1069 q 569 1169 543 1143 q 632 1196 594 1196 q 695 1170 669 1196 q 721 1107 721 1144 q 694 1044 721 1069 q 632 1018 668 1018 z "},"⁄":{"ha":203,"x_min":-235,"x_max":438,"o":"m 365 939 l 424 939 q 438 931 438 939 q 438 928 438 929 q 436 925 436 926 l -140 -1 q -161 -14 -149 -14 l -224 -14 q -235 -1 -235 -14 q -232 7 -235 -1 l 342 925 q 365 939 350 939 z "},"€":{"ha":885,"x_min":13,"x_max":832,"o":"m 249 347 q 503 63 275 63 q 656 116 599 63 q 722 269 714 169 q 775 333 728 333 q 832 269 832 333 q 740 56 832 142 q 488 -31 647 -31 q 125 347 169 -31 l 57 346 q 13 386 13 346 q 54 429 13 429 l 119 429 l 119 453 q 121 514 119 494 l 57 513 q 13 553 13 513 q 54 597 13 597 l 57 597 l 129 594 q 493 957 186 957 q 721 849 639 957 q 718 879 718 854 l 717 896 q 715 904 717 901 l 715 907 q 760 954 715 954 q 807 896 807 954 q 801 822 807 871 q 796 750 796 775 q 801 676 796 725 q 804 633 804 644 q 754 571 804 571 q 703 638 703 571 q 646 801 703 739 q 493 863 589 863 q 249 593 278 863 l 447 594 q 496 554 496 594 q 450 511 496 511 l 446 511 l 243 514 l 243 429 l 447 428 q 496 388 496 428 q 450 343 496 343 l 446 343 l 249 347 z "},"‹":{"ha":303,"x_min":60,"x_max":244,"o":"m 238 576 l 167 371 l 240 153 q 244 138 244 140 q 225 117 244 117 q 203 131 211 117 l 63 361 q 60 371 60 364 q 64 383 60 375 l 201 603 q 222 617 210 617 q 240 597 240 617 q 238 576 240 585 z "},"›":{"ha":304,"x_min":58,"x_max":244,"o":"m 63 153 l 136 371 l 65 576 q 63 597 63 585 q 82 617 63 617 q 101 603 93 617 l 239 383 q 244 371 244 375 q 240 361 244 365 l 100 131 q 78 117 92 117 q 58 138 58 117 q 63 153 58 140 z "},"ﬁ":{"ha":833,"x_min":24,"x_max":829,"o":"m 544 806 q 554 842 544 824 q 440 878 517 878 q 282 719 282 878 q 308 686 282 686 l 511 686 q 622 690 589 686 q 650 693 635 693 q 689 642 689 693 q 688 632 689 636 q 686 586 686 606 q 685 519 686 593 l 683 446 l 683 221 q 685 135 683 142 q 724 78 690 78 q 756 83 739 78 q 785 88 774 88 q 829 42 829 88 q 774 -6 829 -6 q 693 1 761 -6 q 611 6 653 6 q 546 1 576 6 q 478 -6 494 -6 q 436 39 436 -6 q 481 88 436 88 q 506 83 488 88 q 538 79 524 79 q 578 144 571 79 q 579 232 579 151 l 579 421 q 564 575 579 556 q 467 594 549 594 l 328 594 q 289 586 294 594 q 283 572 283 578 q 282 539 282 565 l 282 333 q 282 274 282 274 q 283 211 282 247 q 285 172 285 181 q 285 115 285 118 q 317 79 290 79 q 344 83 326 79 q 369 88 361 88 q 415 40 415 88 q 360 -6 415 -6 q 300 1 347 -6 q 229 6 271 6 q 154 3 175 6 l 90 -6 l 78 -6 q 24 40 24 -6 q 76 92 24 92 q 100 89 83 92 q 136 82 122 82 q 174 175 171 82 q 175 269 174 193 q 176 368 175 317 q 178 417 178 413 l 178 561 q 174 589 178 583 q 150 594 169 594 l 86 594 q 36 640 36 594 q 86 686 36 686 l 146 686 q 176 690 169 686 q 182 711 182 694 q 444 960 189 960 q 618 919 550 960 q 686 813 686 878 q 615 742 686 742 q 565 760 585 742 q 544 806 544 778 z "},"ﬂ":{"ha":833,"x_min":24,"x_max":817,"o":"m 417 960 q 586 921 508 960 q 625 924 600 922 q 658 926 650 926 q 692 885 692 926 q 690 875 692 892 l 686 825 q 676 607 676 708 l 676 196 q 678 126 676 135 q 714 79 685 79 q 742 84 726 79 q 771 89 758 89 q 817 44 817 89 q 764 -6 817 -6 q 688 4 751 -6 q 608 10 651 10 q 510 -1 560 10 q 476 -6 492 -6 q 435 40 435 -6 q 482 88 435 88 q 505 83 489 88 q 526 79 521 79 q 557 103 549 79 q 567 193 565 126 l 572 425 l 572 703 q 541 843 572 808 q 413 878 510 878 q 282 735 282 878 q 287 692 282 699 q 322 686 292 686 l 383 686 q 446 642 446 686 q 388 594 446 594 l 314 594 q 288 588 293 594 q 282 556 282 581 l 282 176 q 283 117 282 125 q 317 79 289 79 q 353 86 324 79 q 371 88 358 88 q 418 43 418 88 q 368 -6 418 -6 q 301 0 346 -6 q 232 6 256 6 q 153 1 186 6 q 83 -6 97 -6 q 24 43 24 -6 q 38 75 24 61 q 72 89 53 89 q 103 84 86 89 q 135 79 121 79 q 168 113 161 79 q 176 274 175 146 l 178 569 q 153 594 178 594 l 83 594 q 35 640 35 594 q 85 686 35 686 l 151 686 q 177 693 172 686 q 183 731 182 700 q 231 889 188 836 q 417 960 289 960 z "},"‡":{"ha":885,"x_min":144,"x_max":739,"o":"m 388 381 q 411 615 388 507 l 274 583 q 228 579 256 579 q 144 640 144 579 q 236 704 144 704 q 276 700 256 704 l 411 674 l 379 825 q 375 867 375 844 q 442 957 375 957 q 510 867 510 957 q 504 825 510 851 l 472 674 l 608 700 q 646 704 629 704 q 739 640 739 704 q 657 578 739 578 q 611 583 635 578 l 474 615 q 497 379 497 510 q 474 128 497 250 l 611 158 q 657 164 636 164 q 739 101 739 164 q 649 38 739 38 q 608 42 629 38 l 472 68 l 504 -97 q 508 -140 508 -119 q 442 -229 508 -229 q 375 -139 375 -229 q 379 -97 375 -119 l 411 68 l 276 42 q 238 38 256 38 q 144 101 144 38 q 228 164 144 164 q 274 158 249 164 l 411 128 q 388 381 388 250 z "},"·":{"ha":190,"x_min":0,"x_max":190,"o":"m 94 394 q 28 423 56 394 q 0 490 0 451 q 28 558 0 529 q 94 586 56 586 q 163 558 135 586 q 190 490 190 531 q 163 423 190 451 q 94 394 135 394 z "},"∙":{"ha":190,"x_min":0,"x_max":190,"o":"m 94 394 q 28 423 56 394 q 0 490 0 451 q 28 558 0 529 q 94 586 56 586 q 163 558 135 586 q 190 490 190 531 q 163 423 190 451 q 94 394 135 394 z "},"‚":{"ha":356,"x_min":69,"x_max":276,"o":"m 194 -47 q 168 -24 194 -25 l 140 -22 q 91 4 113 -21 q 69 61 69 29 q 97 126 69 100 q 165 153 125 153 q 245 115 214 153 q 276 17 276 76 q 190 -211 276 -97 q 135 -254 158 -254 q 107 -226 107 -254 q 124 -196 107 -217 q 186 -83 160 -150 q 194 -47 194 -61 z "},"„":{"ha":607,"x_min":69,"x_max":529,"o":"m 194 -47 q 168 -24 194 -25 l 140 -22 q 91 4 113 -21 q 69 61 69 29 q 97 126 69 100 q 165 153 125 153 q 245 115 214 153 q 276 17 276 76 q 190 -211 276 -97 q 135 -254 158 -254 q 107 -226 107 -254 q 122 -196 107 -215 q 172 -115 150 -161 q 194 -47 194 -69 m 446 -47 q 421 -24 446 -25 l 393 -22 q 342 4 364 -21 q 321 61 321 29 q 349 126 321 100 q 418 153 376 153 q 498 115 467 153 q 529 17 529 76 q 442 -211 529 -94 q 386 -254 410 -254 q 360 -226 360 -254 q 375 -196 360 -215 q 438 -83 408 -154 q 446 -47 446 -62 z "},"‰":{"ha":1618,"x_min":49,"x_max":1569,"o":"m 1118 239 q 1181 455 1118 375 q 1350 535 1243 535 q 1511 461 1453 535 q 1569 256 1569 388 q 1508 49 1569 128 q 1347 -31 1446 -31 q 1179 42 1240 -31 q 1118 239 1118 114 m 281 21 l 661 754 q 583 728 619 728 q 483 776 518 728 q 494 675 494 726 q 434 468 494 544 q 269 392 374 392 q 109 468 169 392 q 49 671 49 544 q 110 880 49 803 q 278 957 172 957 q 367 941 333 957 q 454 874 400 925 q 586 807 524 807 q 754 933 683 807 q 814 974 776 974 q 853 953 853 974 q 850 939 853 950 l 838 915 l 363 4 q 338 -35 347 -26 q 297 -49 324 -49 q 261 -25 261 -49 q 269 0 261 -15 l 281 21 m 613 239 q 675 455 613 375 q 844 535 738 535 q 1006 461 947 535 q 1064 256 1064 388 q 1002 49 1064 128 q 842 -31 940 -31 q 674 42 735 -31 q 613 239 613 114 m 1475 254 q 1350 456 1475 456 q 1248 399 1285 456 q 1211 244 1211 343 q 1247 101 1211 153 q 1344 49 1282 49 q 1440 103 1406 49 q 1475 254 1475 157 m 401 672 q 276 878 401 878 q 142 669 142 878 q 176 523 142 575 q 274 471 211 471 q 401 672 401 471 m 971 253 q 846 456 971 456 q 743 399 781 456 q 706 244 706 343 q 741 101 706 153 q 839 49 776 49 q 935 103 900 49 q 971 253 971 157 z "},"Â":{"ha":1036,"x_min":-11,"x_max":1047,"o":"m 726 157 l 676 293 q 659 321 668 315 q 622 326 650 326 l 375 326 q 337 317 347 326 q 310 264 326 307 l 269 157 q 264 128 264 142 q 318 83 264 83 q 358 86 332 83 q 396 89 383 89 q 453 40 453 89 q 390 -6 453 -6 q 360 -3 379 -6 l 290 7 q 226 10 271 10 q 158 7 178 10 l 100 -1 q 43 -7 61 -7 q -11 39 -11 -7 q 42 88 -11 88 q 58 86 53 88 l 76 86 q 133 115 114 86 q 161 181 142 126 l 419 879 q 507 938 442 938 q 592 879 571 938 l 840 190 q 883 104 864 125 q 939 83 903 83 q 956 85 950 83 q 994 88 994 88 q 1047 43 1047 88 q 994 -4 1047 -4 q 954 -1 979 -4 q 824 8 867 8 q 657 -3 772 8 q 613 -6 628 -6 q 557 42 557 -6 q 618 89 557 89 q 655 86 631 89 q 692 83 679 83 q 738 121 738 83 q 726 157 738 126 m 679 1014 l 513 1092 l 346 1014 q 321 1001 322 1003 q 296 996 304 996 l 294 996 q 264 1022 264 996 q 296 1060 264 1038 l 483 1192 q 513 1203 499 1203 q 542 1192 526 1203 l 731 1060 q 761 1022 761 1039 q 732 996 761 996 q 706 1001 722 996 q 679 1014 700 1004 m 626 440 l 501 824 l 374 440 q 371 431 371 432 q 392 418 371 418 l 613 418 q 629 429 629 418 q 626 440 629 432 z "},"Ê":{"ha":935,"x_min":26,"x_max":849,"o":"m 207 742 q 136 844 207 844 q 107 842 117 844 q 69 838 85 838 q 39 851 51 838 q 26 883 26 864 q 85 932 26 932 q 106 931 86 932 q 300 917 314 917 q 314 917 314 917 l 649 926 q 721 931 658 926 q 761 932 743 932 q 833 868 833 932 q 828 797 833 857 q 824 715 824 753 q 826 647 824 667 q 832 588 832 607 q 782 535 832 535 q 732 608 732 535 l 732 681 q 683 818 732 797 q 497 833 647 833 q 381 829 399 833 q 321 746 321 814 l 321 683 q 321 653 321 672 q 319 625 319 633 l 319 607 q 344 543 319 551 q 378 540 354 540 l 435 540 q 522 600 522 540 q 518 643 522 617 q 514 690 514 669 q 564 746 514 746 q 614 686 614 746 q 604 600 614 675 q 596 488 596 536 q 601 389 596 460 q 608 340 603 378 q 613 292 613 310 q 563 242 613 242 q 514 300 514 242 q 517 344 514 315 q 521 389 521 374 q 442 449 521 449 l 379 449 q 330 435 339 449 q 321 375 321 421 l 321 289 q 322 229 321 267 q 324 168 324 183 q 346 99 325 113 q 418 89 361 89 l 607 89 q 719 113 689 89 q 750 204 750 138 q 748 266 750 225 q 746 328 746 307 q 796 390 746 390 q 849 326 849 390 q 846 250 849 301 q 843 174 843 199 q 845 116 843 154 q 847 58 847 78 q 783 -7 847 -7 q 735 -4 768 -7 q 674 -3 718 -3 q 565 0 683 -3 q 361 3 447 3 q 106 -6 231 3 q 93 -7 100 -6 q 85 -7 86 -7 q 26 43 26 -7 q 69 88 26 88 q 107 85 76 88 q 136 81 122 81 q 207 185 207 81 l 207 742 m 617 1014 l 450 1092 l 283 1014 q 258 1001 283 1014 q 233 996 242 996 l 232 996 q 201 1022 201 996 q 233 1060 201 1038 l 422 1192 q 450 1203 438 1203 q 479 1192 464 1203 l 668 1060 q 699 1022 699 1039 q 669 996 699 996 q 643 1001 660 996 q 617 1014 638 1004 z "},"Á":{"ha":1036,"x_min":-11,"x_max":1047,"o":"m 726 157 l 676 293 q 659 321 668 315 q 622 326 650 326 l 375 326 q 337 317 347 326 q 310 264 326 307 l 269 157 q 264 128 264 142 q 318 83 264 83 q 358 86 332 83 q 396 89 383 89 q 453 40 453 89 q 390 -6 453 -6 q 360 -3 379 -6 l 290 7 q 226 10 271 10 q 158 7 178 10 l 100 -1 q 43 -7 61 -7 q -11 39 -11 -7 q 42 88 -11 88 q 58 86 53 88 l 76 86 q 133 115 114 86 q 161 181 142 126 l 419 879 q 507 938 442 938 q 592 879 571 938 l 840 190 q 883 104 864 125 q 939 83 903 83 q 956 85 950 83 q 994 88 994 88 q 1047 43 1047 88 q 994 -4 1047 -4 q 954 -1 979 -4 q 824 8 867 8 q 657 -3 772 8 q 613 -6 628 -6 q 557 42 557 -6 q 618 89 557 89 q 655 86 631 89 q 692 83 679 83 q 738 121 738 83 q 726 157 738 126 m 660 1140 q 608 1086 660 1108 l 396 994 q 375 990 386 990 q 340 1022 340 990 q 375 1064 340 1042 l 564 1182 q 607 1196 586 1196 q 660 1140 660 1196 m 626 440 l 501 824 l 374 440 q 371 431 371 432 q 392 418 371 418 l 613 418 q 629 429 629 418 q 626 440 629 432 z "},"Ë":{"ha":935,"x_min":26,"x_max":849,"o":"m 207 742 q 136 844 207 844 q 107 842 117 844 q 69 838 85 838 q 39 851 51 838 q 26 883 26 864 q 85 932 26 932 q 106 931 86 932 q 300 917 314 917 q 314 917 314 917 l 649 926 q 721 931 658 926 q 761 932 743 932 q 833 868 833 932 q 828 797 833 857 q 824 715 824 753 q 826 647 824 667 q 832 588 832 607 q 782 535 832 535 q 732 608 732 535 l 732 681 q 683 818 732 797 q 497 833 647 833 q 381 829 399 833 q 321 746 321 814 l 321 683 q 321 653 321 672 q 319 625 319 633 l 319 607 q 344 543 319 551 q 378 540 354 540 l 435 540 q 522 600 522 540 q 518 643 522 617 q 514 690 514 669 q 564 746 514 746 q 614 686 614 746 q 604 600 614 675 q 596 488 596 536 q 601 389 596 460 q 608 340 603 378 q 613 292 613 310 q 563 242 613 242 q 514 300 514 242 q 517 344 514 315 q 521 389 521 374 q 442 449 521 449 l 379 449 q 330 435 339 449 q 321 375 321 421 l 321 289 q 322 229 321 267 q 324 168 324 183 q 346 99 325 113 q 418 89 361 89 l 607 89 q 719 113 689 89 q 750 204 750 138 q 748 266 750 225 q 746 328 746 307 q 796 390 746 390 q 849 326 849 390 q 846 250 849 301 q 843 174 843 199 q 845 116 843 154 q 847 58 847 78 q 783 -7 847 -7 q 735 -4 768 -7 q 674 -3 718 -3 q 565 0 683 -3 q 361 3 447 3 q 106 -6 231 3 q 93 -7 100 -6 q 85 -7 86 -7 q 26 43 26 -7 q 69 88 26 88 q 107 85 76 88 q 136 81 122 81 q 207 185 207 81 l 207 742 m 331 1018 q 267 1044 293 1018 q 240 1107 240 1069 q 267 1170 240 1144 q 331 1196 293 1196 q 394 1170 368 1196 q 421 1107 421 1144 q 394 1044 421 1069 q 331 1018 368 1018 m 581 1018 q 518 1044 544 1018 q 492 1107 492 1069 q 518 1169 492 1143 q 581 1196 544 1196 q 644 1170 618 1196 q 671 1107 671 1144 q 644 1044 671 1069 q 581 1018 618 1018 z "},"È":{"ha":935,"x_min":26,"x_max":849,"o":"m 207 742 q 136 844 207 844 q 107 842 117 844 q 69 838 85 838 q 39 851 51 838 q 26 883 26 864 q 85 932 26 932 q 106 931 86 932 q 300 917 314 917 q 314 917 314 917 l 649 926 q 721 931 658 926 q 761 932 743 932 q 833 868 833 932 q 828 797 833 857 q 824 715 824 753 q 826 647 824 667 q 832 588 832 607 q 782 535 832 535 q 732 608 732 535 l 732 681 q 683 818 732 797 q 497 833 647 833 q 381 829 399 833 q 321 746 321 814 l 321 683 q 321 653 321 672 q 319 625 319 633 l 319 607 q 344 543 319 551 q 378 540 354 540 l 435 540 q 522 600 522 540 q 518 643 522 617 q 514 690 514 669 q 564 746 514 746 q 614 686 614 746 q 604 600 614 675 q 596 488 596 536 q 601 389 596 460 q 608 340 603 378 q 613 292 613 310 q 563 242 613 242 q 514 300 514 242 q 517 344 514 315 q 521 389 521 374 q 442 449 521 449 l 379 449 q 330 435 339 449 q 321 375 321 421 l 321 289 q 322 229 321 267 q 324 168 324 183 q 346 99 325 113 q 418 89 361 89 l 607 89 q 719 113 689 89 q 750 204 750 138 q 748 266 750 225 q 746 328 746 307 q 796 390 746 390 q 849 326 849 390 q 846 250 849 301 q 843 174 843 199 q 845 116 843 154 q 847 58 847 78 q 783 -7 847 -7 q 735 -4 768 -7 q 674 -3 718 -3 q 565 0 683 -3 q 361 3 447 3 q 106 -6 231 3 q 93 -7 100 -6 q 85 -7 86 -7 q 26 43 26 -7 q 69 88 26 88 q 107 85 76 88 q 136 81 122 81 q 207 185 207 81 l 207 742 m 335 1196 q 378 1182 356 1196 l 567 1064 q 601 1022 601 1042 q 567 990 601 990 q 547 994 557 990 l 335 1086 q 282 1140 282 1108 q 297 1180 282 1164 q 335 1196 313 1196 z "},"Í":{"ha":531,"x_min":26,"x_max":504,"o":"m 207 742 q 136 844 207 844 q 107 842 117 844 q 69 838 85 838 q 39 851 51 838 q 26 883 26 864 q 88 932 26 932 q 107 931 96 932 l 181 921 q 267 915 222 915 q 361 922 310 915 l 424 931 q 443 932 435 932 q 504 883 504 932 q 492 851 504 864 q 461 838 479 838 q 424 842 447 838 q 394 844 414 844 q 324 742 324 844 l 324 185 q 394 81 324 81 q 424 83 406 81 q 461 88 450 88 q 504 43 504 88 q 443 -7 504 -7 q 433 -7 440 -7 q 424 -6 428 -6 l 351 6 q 275 11 315 11 q 171 4 217 11 l 107 -6 q 97 -7 104 -6 q 86 -7 90 -7 q 26 43 26 -7 q 69 88 26 88 q 107 85 76 88 q 136 81 122 81 q 207 185 207 81 l 207 742 m 426 1140 q 374 1086 426 1108 l 161 994 q 142 990 151 990 q 107 1022 107 990 q 140 1064 107 1043 l 331 1182 q 374 1196 353 1196 q 426 1140 426 1196 z "},"Î":{"ha":531,"x_min":11,"x_max":508,"o":"m 207 742 q 136 844 207 844 q 107 842 117 844 q 69 838 85 838 q 39 851 51 838 q 26 883 26 864 q 88 932 26 932 q 107 931 96 932 l 181 921 q 267 915 222 915 q 361 922 310 915 l 424 931 q 443 932 435 932 q 504 883 504 932 q 492 851 504 864 q 461 838 479 838 q 424 842 447 838 q 394 844 414 844 q 324 742 324 844 l 324 185 q 394 81 324 81 q 424 83 406 81 q 461 88 450 88 q 504 43 504 88 q 443 -7 504 -7 q 433 -7 440 -7 q 424 -6 428 -6 l 351 6 q 275 11 315 11 q 171 4 217 11 l 107 -6 q 97 -7 104 -6 q 86 -7 90 -7 q 26 43 26 -7 q 69 88 26 88 q 107 85 76 88 q 136 81 122 81 q 207 185 207 81 l 207 742 m 426 1014 l 260 1092 l 93 1014 q 68 1001 93 1014 q 43 996 51 996 l 42 996 q 11 1022 11 996 q 43 1060 11 1038 l 232 1192 q 260 1203 247 1203 q 289 1192 274 1203 l 478 1060 q 508 1022 508 1039 q 479 996 508 996 q 453 1001 469 996 q 426 1014 447 1004 z "},"Ï":{"ha":531,"x_min":26,"x_max":504,"o":"m 207 742 q 136 844 207 844 q 107 842 117 844 q 69 838 85 838 q 39 851 51 838 q 26 883 26 864 q 88 932 26 932 q 107 931 96 932 l 181 921 q 267 915 222 915 q 361 922 310 915 l 424 931 q 443 932 435 932 q 504 883 504 932 q 492 851 504 864 q 461 838 479 838 q 424 842 447 838 q 394 844 414 844 q 324 742 324 844 l 324 185 q 394 81 324 81 q 424 83 406 81 q 461 88 450 88 q 504 43 504 88 q 443 -7 504 -7 q 433 -7 440 -7 q 424 -6 428 -6 l 351 6 q 275 11 315 11 q 171 4 217 11 l 107 -6 q 97 -7 104 -6 q 86 -7 90 -7 q 26 43 26 -7 q 69 88 26 88 q 107 85 76 88 q 136 81 122 81 q 207 185 207 81 l 207 742 m 140 1018 q 76 1044 103 1018 q 50 1107 50 1069 q 76 1170 50 1144 q 140 1196 103 1196 q 204 1170 178 1196 q 231 1107 231 1144 q 204 1044 231 1069 q 140 1018 178 1018 m 390 1018 q 328 1044 354 1018 q 301 1107 301 1071 q 328 1169 301 1143 q 390 1196 354 1196 q 454 1170 428 1196 q 481 1107 481 1144 q 454 1044 481 1071 q 390 1018 428 1018 z "},"Ì":{"ha":531,"x_min":26,"x_max":504,"o":"m 207 742 q 136 844 207 844 q 107 842 117 844 q 69 838 85 838 q 39 851 51 838 q 26 883 26 864 q 88 932 26 932 q 107 931 96 932 l 181 921 q 267 915 222 915 q 361 922 310 915 l 424 931 q 443 932 435 932 q 504 883 504 932 q 492 851 504 864 q 461 838 479 838 q 424 842 447 838 q 394 844 414 844 q 324 742 324 844 l 324 185 q 394 81 324 81 q 424 83 406 81 q 461 88 450 88 q 504 43 504 88 q 443 -7 504 -7 q 433 -7 440 -7 q 424 -6 428 -6 l 351 6 q 275 11 315 11 q 171 4 217 11 l 107 -6 q 97 -7 104 -6 q 86 -7 90 -7 q 26 43 26 -7 q 69 88 26 88 q 107 85 76 88 q 136 81 122 81 q 207 185 207 81 l 207 742 m 151 1196 q 194 1182 172 1196 l 383 1064 q 418 1022 418 1042 q 383 990 418 990 q 363 994 372 990 l 151 1086 q 99 1140 99 1108 q 151 1196 99 1196 z "},"Ó":{"ha":910,"x_min":53,"x_max":857,"o":"m 453 -31 q 160 103 268 -31 q 53 464 53 236 q 161 826 53 694 q 460 957 269 957 q 749 829 642 957 q 857 483 857 701 q 748 108 857 247 q 453 -31 639 -31 m 615 1140 q 564 1086 615 1108 l 351 994 q 331 990 342 990 q 296 1022 296 990 q 331 1064 296 1042 l 519 1182 q 563 1196 542 1196 q 615 1140 615 1196 m 456 857 q 249 754 322 857 q 175 465 175 651 q 249 173 175 276 q 454 69 322 69 q 659 177 583 69 q 735 469 735 285 q 663 756 735 656 q 456 857 590 857 z "},"Ô":{"ha":910,"x_min":53,"x_max":857,"o":"m 453 -31 q 160 103 268 -31 q 53 464 53 236 q 161 826 53 694 q 460 957 269 957 q 749 829 642 957 q 857 483 857 701 q 748 108 857 247 q 453 -31 639 -31 m 617 1014 l 450 1092 l 257 1001 q 233 996 240 996 l 231 996 q 201 1022 201 996 q 233 1060 201 1038 l 421 1192 q 450 1203 436 1203 q 479 1192 464 1203 l 667 1060 q 699 1022 699 1038 q 669 996 699 996 q 643 1001 656 996 q 617 1014 638 1004 m 456 857 q 249 754 322 857 q 175 465 175 651 q 249 173 175 276 q 454 69 322 69 q 659 177 583 69 q 735 469 735 285 q 663 756 735 656 q 456 857 590 857 z "},"":{"ha":926,"x_min":44,"x_max":892,"o":"m 461 719 q 517 884 463 821 q 667 960 572 947 l 667 946 q 605 788 667 856 q 461 719 543 719 m 665 733 q 865 635 792 733 q 754 440 754 549 q 892 235 754 293 q 657 -37 782 -37 q 601 -25 632 -37 l 544 -1 q 499 4 531 4 q 428 -3 444 4 l 368 -28 q 315 -39 342 -39 q 161 75 239 -39 q 44 425 44 247 q 117 645 44 560 q 304 731 189 731 q 411 706 347 731 q 478 689 454 689 q 538 703 500 689 q 665 733 619 733 z "},"Ò":{"ha":910,"x_min":53,"x_max":857,"o":"m 453 -31 q 160 103 268 -31 q 53 464 53 236 q 161 826 53 694 q 460 957 269 957 q 749 829 642 957 q 857 483 857 701 q 748 108 857 247 q 453 -31 639 -31 m 340 1196 q 385 1182 363 1196 l 574 1064 q 607 1022 607 1042 q 572 990 607 990 q 553 994 563 990 l 340 1086 q 289 1140 289 1108 q 340 1196 289 1196 m 456 857 q 249 754 322 857 q 175 465 175 651 q 249 173 175 276 q 454 69 322 69 q 659 177 583 69 q 735 469 735 285 q 663 756 735 656 q 456 857 590 857 z "},"Ú":{"ha":986,"x_min":14,"x_max":979,"o":"m 288 713 l 285 624 l 279 511 l 279 297 q 301 156 279 200 q 382 86 322 111 q 496 63 438 63 q 626 92 572 63 q 697 170 681 121 q 714 296 713 219 l 717 653 q 714 772 717 758 q 643 843 701 843 q 615 840 633 843 q 578 836 589 836 q 547 850 560 836 q 533 882 533 864 q 594 932 533 932 q 614 931 604 932 l 696 919 q 765 915 726 915 q 828 919 803 915 l 888 929 q 921 933 913 933 q 979 886 979 933 q 922 839 979 839 l 907 839 q 893 840 903 840 q 842 799 851 840 q 832 585 832 757 l 832 342 q 826 211 832 251 q 779 90 815 142 q 497 -31 696 -31 q 182 129 253 -31 q 160 281 160 178 q 164 428 160 331 q 168 576 168 526 l 168 650 q 167 764 168 751 q 113 840 157 840 q 103 840 110 840 q 90 838 96 839 q 72 838 85 838 q 14 885 14 838 q 67 932 14 932 q 114 928 89 932 q 240 917 182 917 q 378 929 300 917 q 414 932 394 932 q 471 885 471 932 q 422 838 471 838 q 389 841 411 838 q 356 844 367 844 q 296 797 311 844 q 288 713 289 776 m 675 1140 q 624 1086 675 1108 l 411 994 q 390 990 401 990 q 356 1022 356 990 q 390 1064 356 1042 l 579 1182 q 622 1196 601 1196 q 675 1140 675 1196 z "},"Û":{"ha":986,"x_min":14,"x_max":979,"o":"m 288 713 l 285 624 l 279 511 l 279 297 q 301 156 279 200 q 382 86 322 111 q 496 63 438 63 q 626 92 572 63 q 697 170 681 121 q 714 296 713 219 l 717 653 q 714 772 717 758 q 643 843 701 843 q 615 840 633 843 q 578 836 589 836 q 547 850 560 836 q 533 882 533 864 q 594 932 533 932 q 614 931 604 932 l 696 919 q 765 915 726 915 q 828 919 803 915 l 888 929 q 921 933 913 933 q 979 886 979 933 q 922 839 979 839 l 907 839 q 893 840 903 840 q 842 799 851 840 q 832 585 832 757 l 832 342 q 826 211 832 251 q 779 90 815 142 q 497 -31 696 -31 q 182 129 253 -31 q 160 281 160 178 q 164 428 160 331 q 168 576 168 526 l 168 650 q 167 764 168 751 q 113 840 157 840 q 103 840 110 840 q 90 838 96 839 q 72 838 85 838 q 14 885 14 838 q 67 932 14 932 q 114 928 89 932 q 240 917 182 917 q 378 929 300 917 q 414 932 394 932 q 471 885 471 932 q 422 838 471 838 q 389 841 411 838 q 356 844 367 844 q 296 797 311 844 q 288 713 289 776 m 658 1014 l 492 1092 l 299 1001 q 274 996 282 996 l 272 996 q 242 1022 242 996 q 274 1060 242 1038 l 463 1192 q 492 1203 478 1203 q 521 1192 506 1203 l 708 1060 q 740 1022 740 1038 q 710 996 740 996 q 683 1001 700 996 q 658 1014 678 1004 z "},"Ù":{"ha":986,"x_min":14,"x_max":979,"o":"m 288 713 l 285 624 l 279 511 l 279 297 q 301 156 279 200 q 382 86 322 111 q 496 63 438 63 q 626 92 572 63 q 697 170 681 121 q 714 296 713 219 l 717 653 q 714 772 717 758 q 643 843 701 843 q 615 840 633 843 q 578 836 589 836 q 547 850 560 836 q 533 882 533 864 q 594 932 533 932 q 614 931 604 932 l 696 919 q 765 915 726 915 q 828 919 803 915 l 888 929 q 921 933 913 933 q 979 886 979 933 q 922 839 979 839 l 907 839 q 893 840 903 840 q 842 799 851 840 q 832 585 832 757 l 832 342 q 826 211 832 251 q 779 90 815 142 q 497 -31 696 -31 q 182 129 253 -31 q 160 281 160 178 q 164 428 160 331 q 168 576 168 526 l 168 650 q 167 764 168 751 q 113 840 157 840 q 103 840 110 840 q 90 838 96 839 q 72 838 85 838 q 14 885 14 838 q 67 932 14 932 q 114 928 89 932 q 240 917 182 917 q 378 929 300 917 q 414 932 394 932 q 471 885 471 932 q 422 838 471 838 q 389 841 411 838 q 356 844 367 844 q 296 797 311 844 q 288 713 289 776 m 382 1196 q 425 1182 403 1196 l 614 1064 q 649 1022 649 1042 q 614 990 649 990 q 594 994 604 990 l 382 1086 q 329 1140 329 1108 q 344 1180 329 1164 q 382 1196 360 1196 z "},"ı":{"ha":431,"x_min":22,"x_max":426,"o":"m 279 403 l 279 222 q 281 140 279 153 q 318 78 288 78 q 353 85 325 78 q 374 88 360 88 q 426 42 426 88 q 409 8 426 22 q 365 -6 392 -6 q 298 1 343 -6 q 231 7 253 7 q 150 1 194 7 q 78 -6 96 -6 q 22 42 22 -6 q 69 88 22 88 q 102 83 81 88 q 135 79 124 79 q 175 168 168 79 q 175 289 175 174 l 175 403 q 175 524 175 518 q 133 611 168 611 q 102 606 122 611 q 72 601 82 601 q 22 646 22 601 q 83 693 22 693 q 121 692 110 693 q 178 686 165 686 q 212 690 189 686 q 246 693 235 693 q 286 639 286 693 q 285 622 286 633 q 283 606 283 611 q 281 519 282 594 q 279 403 279 463 z "},"ˆ":{"ha":683,"x_min":110,"x_max":572,"o":"m 496 801 l 342 874 l 186 801 q 138 785 150 785 q 110 808 110 785 q 139 843 110 822 l 314 967 q 342 976 331 976 q 368 967 354 976 l 543 843 q 565 828 553 836 q 572 811 572 821 l 572 808 q 544 785 572 785 q 496 801 532 785 z "},"˜":{"ha":682,"x_min":125,"x_max":557,"o":"m 260 942 q 353 922 293 942 l 404 906 q 447 897 429 897 q 503 919 479 897 l 522 938 q 538 944 526 944 q 557 924 557 944 q 515 847 557 881 q 421 813 474 813 q 333 831 389 813 q 233 856 256 856 q 174 831 193 856 l 163 817 q 144 804 153 804 q 125 825 125 804 q 166 907 125 872 q 260 942 207 942 z "},"¯":{"ha":682,"x_min":138,"x_max":544,"o":"m 138 871 q 189 915 138 915 l 494 915 q 544 875 544 915 q 530 842 544 856 q 494 829 515 829 l 189 829 q 138 871 138 829 z "},"ˉ":{"ha":682,"x_min":138,"x_max":544,"o":"m 138 871 q 189 915 138 915 l 494 915 q 544 875 544 915 q 530 842 544 856 q 494 829 515 829 l 189 829 q 138 871 138 829 z "},"˘":{"ha":682,"x_min":124,"x_max":558,"o":"m 164 963 q 342 883 243 883 q 519 963 439 883 q 543 976 533 976 q 558 957 558 976 q 543 901 558 932 q 461 818 518 850 q 342 786 404 786 q 222 818 278 786 q 140 901 165 850 q 124 957 124 935 q 142 976 124 976 q 164 963 150 976 z "},"˙":{"ha":683,"x_min":261,"x_max":421,"o":"m 342 792 q 285 815 308 792 q 261 871 261 839 q 285 928 261 904 q 342 951 308 951 q 397 928 374 951 q 421 871 421 904 q 397 815 421 839 q 342 792 374 792 z "},"˚":{"ha":683,"x_min":176,"x_max":432,"o":"m 304 764 q 214 801 251 764 q 176 890 176 838 q 214 981 176 943 q 304 1018 251 1018 q 394 981 357 1018 q 432 890 432 943 q 394 801 432 838 q 304 764 357 764 m 304 954 q 259 935 278 954 q 240 890 240 917 q 259 845 240 864 q 304 826 278 826 q 349 845 331 826 q 368 890 368 864 q 350 936 368 918 q 304 954 332 954 z "},"¸":{"ha":683,"x_min":217,"x_max":517,"o":"m 318 0 l 386 0 l 360 -67 q 396 -62 385 -62 q 481 -93 446 -62 q 517 -167 517 -124 q 472 -249 517 -215 q 363 -282 428 -282 q 261 -257 306 -282 q 217 -200 217 -232 q 226 -177 217 -187 q 247 -167 236 -167 q 272 -178 263 -167 l 288 -194 q 358 -221 311 -221 q 431 -168 431 -221 q 368 -119 431 -119 q 336 -125 353 -119 l 303 -136 q 288 -137 299 -137 q 269 -122 269 -137 q 276 -100 269 -117 l 318 0 z "},"˝":{"ha":682,"x_min":208,"x_max":603,"o":"m 422 989 q 400 944 422 969 l 261 789 q 235 775 251 775 q 208 801 208 775 q 221 831 208 810 l 329 1003 q 375 1035 349 1035 q 408 1022 394 1035 q 422 989 422 1008 m 603 989 q 579 944 603 971 l 440 789 q 414 775 428 775 q 389 801 389 775 q 400 831 389 813 l 508 1003 q 554 1035 528 1035 q 588 1021 574 1035 q 603 989 603 1007 z "},"˛":{"ha":683,"x_min":281,"x_max":551,"o":"m 281 -135 q 383 0 281 -57 l 464 0 l 449 -14 q 367 -133 367 -89 q 451 -203 367 -203 q 490 -197 465 -203 q 524 -190 514 -190 q 551 -218 551 -190 q 521 -251 551 -237 q 444 -265 490 -265 q 326 -229 371 -265 q 281 -135 281 -193 z "},"ˇ":{"ha":683,"x_min":110,"x_max":572,"o":"m 186 960 l 342 886 l 496 960 q 544 976 531 976 q 572 951 572 976 q 543 917 572 938 l 368 793 q 342 785 357 785 q 314 793 331 785 l 139 917 q 110 951 110 938 q 138 976 110 976 q 186 960 151 976 z "},"¤":{"ha":926,"x_min":74,"x_max":853,"o":"m 133 114 l 76 171 l 207 301 q 136 500 136 393 q 206 696 136 603 l 74 828 l 131 886 l 263 754 q 464 825 361 825 q 663 756 567 825 l 793 885 l 851 828 l 719 697 q 790 499 790 601 q 721 304 790 401 l 853 171 l 796 114 l 664 246 q 465 175 571 175 q 264 244 365 175 l 133 114 m 696 500 q 628 666 696 597 q 463 735 560 735 q 299 666 367 735 q 231 500 231 597 q 299 335 231 403 q 464 267 367 267 q 628 335 560 267 q 696 500 696 403 z "},"­":{"ha":763,"x_min":64,"x_max":699,"o":"m 64 285 l 64 371 l 699 371 l 699 285 l 64 285 z "},"−":{"ha":763,"x_min":64,"x_max":699,"o":"m 64 285 l 64 371 l 699 371 l 699 285 l 64 285 z "},"":{"ha":389,"x_min":0,"x_max":0,"o":""},"̀":{"ha":0,"x_min":-524,"x_max":-229,"o":"m -474 971 q -433 957 -456 971 l -258 847 q -229 811 -229 829 q -258 778 -229 778 q -278 782 -257 778 l -475 868 q -524 921 -524 889 q -509 956 -524 942 q -474 971 -494 971 z "},"́":{"ha":0,"x_min":-524,"x_max":-229,"o":"m -229 924 q -278 868 -229 889 l -476 782 q -494 778 -493 778 q -524 811 -524 778 q -494 847 -524 829 l -319 957 q -278 971 -297 971 q -229 924 -229 971 z "},"̂":{"ha":0,"x_min":-607,"x_max":-144,"o":"m -221 801 l -375 874 l -531 801 q -579 785 -567 785 q -607 808 -607 785 q -578 843 -607 822 l -403 967 q -375 976 -386 976 q -349 967 -362 976 l -174 843 q -151 828 -164 836 q -144 811 -144 821 l -144 808 q -172 785 -144 785 q -221 801 -185 785 z "},"̃":{"ha":0,"x_min":-592,"x_max":-160,"o":"m -457 942 q -364 922 -424 942 l -312 906 q -269 897 -287 897 q -214 919 -237 897 l -194 938 q -179 944 -190 944 q -160 924 -160 944 q -201 847 -160 881 q -296 813 -243 813 q -383 831 -328 813 q -483 856 -461 856 q -543 831 -524 856 l -554 817 q -572 804 -564 804 q -592 825 -592 804 q -551 907 -592 872 q -457 942 -510 942 z "},"̄":{"ha":0,"x_min":-579,"x_max":-172,"o":"m -579 871 q -528 915 -579 915 l -222 915 q -172 875 -172 915 q -187 842 -172 856 q -222 829 -201 829 l -528 829 q -579 871 -579 829 z "},"̆":{"ha":0,"x_min":-593,"x_max":-158,"o":"m -553 963 q -375 883 -474 883 q -197 963 -278 883 q -174 976 -183 976 q -158 957 -158 976 q -174 901 -158 932 q -256 818 -199 850 q -375 786 -312 786 q -495 818 -439 786 q -576 901 -551 850 q -593 957 -593 935 q -575 976 -593 976 q -553 963 -567 976 z "},"̇":{"ha":0,"x_min":-456,"x_max":-296,"o":"m -375 792 q -432 815 -408 792 q -456 871 -456 839 q -432 928 -456 904 q -375 951 -408 951 q -319 928 -343 951 q -296 871 -296 904 q -319 815 -296 839 q -375 792 -343 792 z "},"̈":{"ha":0,"x_min":-576,"x_max":-175,"o":"m -499 793 q -553 816 -531 793 q -576 871 -576 839 q -553 926 -576 903 q -499 949 -531 949 q -444 926 -467 949 q -422 871 -422 903 q -444 816 -422 839 q -499 793 -467 793 m -251 793 q -306 816 -283 793 q -329 871 -329 839 q -306 926 -329 903 q -251 949 -283 949 q -197 926 -219 949 q -175 871 -175 903 q -198 816 -175 839 q -251 793 -221 793 z "},"̋":{"ha":0,"x_min":-574,"x_max":-179,"o":"m -360 989 q -382 944 -360 969 l -521 789 q -547 775 -531 775 q -574 801 -574 775 q -561 831 -574 810 l -453 1003 q -407 1035 -433 1035 q -374 1022 -387 1035 q -360 989 -360 1008 m -179 989 q -203 944 -179 971 l -342 789 q -368 775 -354 775 q -393 801 -393 775 q -382 831 -393 813 l -274 1003 q -228 1035 -254 1035 q -194 1021 -208 1035 q -179 989 -179 1007 z "},"̊":{"ha":0,"x_min":-504,"x_max":-249,"o":"m -376 764 q -467 801 -429 764 q -504 890 -504 838 q -467 981 -504 943 q -376 1018 -429 1018 q -286 981 -324 1018 q -249 890 -249 943 q -286 801 -249 838 q -376 764 -324 764 m -376 954 q -422 935 -403 954 q -440 890 -440 917 q -422 845 -440 864 q -376 826 -403 826 q -331 845 -350 826 q -312 890 -312 864 q -331 936 -312 918 q -376 954 -349 954 z "},"̌":{"ha":0,"x_min":-607,"x_max":-144,"o":"m -531 960 l -375 886 l -221 960 q -172 976 -186 976 q -144 951 -144 976 q -174 917 -144 938 l -349 793 q -375 785 -360 785 q -403 793 -386 785 l -578 917 q -607 951 -607 938 q -579 976 -607 976 q -531 960 -565 976 z "},"̧":{"ha":0,"x_min":-526,"x_max":-226,"o":"m -425 0 l -357 0 l -383 -67 q -347 -62 -358 -62 q -262 -93 -297 -62 q -226 -167 -226 -124 q -271 -249 -226 -215 q -381 -282 -315 -282 q -482 -257 -437 -282 q -526 -200 -526 -232 q -517 -177 -526 -187 q -496 -167 -507 -167 q -471 -178 -481 -167 l -456 -194 q -385 -221 -432 -221 q -312 -168 -312 -221 q -375 -119 -312 -119 q -407 -125 -390 -119 l -440 -136 q -456 -137 -444 -137 q -474 -122 -474 -137 q -467 -100 -474 -117 l -425 0 z "},"̨":{"ha":0,"x_min":-511,"x_max":-240,"o":"m -511 -135 q -408 0 -511 -57 l -328 0 l -343 -14 q -425 -133 -425 -89 q -340 -203 -425 -203 q -302 -197 -326 -203 q -268 -190 -278 -190 q -240 -218 -240 -190 q -271 -251 -240 -237 q -347 -265 -301 -265 q -466 -229 -421 -265 q -511 -135 -511 -193 z "},"̸":{"ha":0,"x_min":-658,"x_max":-96,"o":"m -121 874 l -518 -144 q -556 -247 -536 -190 q -593 -282 -568 -282 l -637 -282 q -658 -267 -658 -282 q -654 -254 -658 -261 l -640 -219 l -624 -179 l -262 744 q -215 874 -247 785 l -196 928 q -156 957 -185 957 l -114 957 q -96 942 -96 957 q -108 904 -96 935 q -121 874 -115 888 z "},"":{"ha":0,"x_min":0,"x_max":0,"o":""}}}
